<?xml version="1.0" encoding="utf-8"?>
<!-- Generator: Adobe Illustrator 19.0.0, SVG Export Plug-In . SVG Version: 6.00 Build 0)  -->
<svg version="1.1" id="Layer_1" xmlns="http://www.w3.org/2000/svg" xmlns:xlink="http://www.w3.org/1999/xlink" x="0px" y="0px"
	 viewBox="0 0 382.8 75.2" style="enable-background:new 0 0 382.8 75.2;" xml:space="preserve">
<style type="text/css">
	.st0{fill:#0FE4BD;}
</style>
<g id="XMLID_2480_">
	<path id="XMLID_2482_" class="st0" d="M18.1,61c-0.5,0-0.9-0.3-1.2-0.8c-0.2-0.2-0.4-0.6-0.5-1c-0.1-0.4,0.1-1.2,0.4-2.4
		c0.3-1.1,0.9-2.9,1.7-5.2c0.4-1.6,0.7-2.7,1-3.4s0.4-1.2,0.4-1.6c0-0.5,0.1-0.8,0.2-1.1c0.1-0.3,0.2-0.6,0.2-0.9
		c0.2,0,0.5-0.2,0.7-0.7s0.5-1.1,0.6-1.9c0.2-0.7,0.3-1.3,0.5-1.7c0.1-0.4,0.2-0.7,0.2-0.9c0.2-0.3,0.4-0.8,0.6-1.5
		c0.2-0.7,0.6-1.5,1.1-2.5c0.3-1.2,0.7-2.5,1.1-3.9c0.4-1.3,0.8-2.6,1.3-3.8c0.4-1.2,0.8-2.1,1.1-2.8c0.5-1.3,0.8-2.2,1.1-2.7
		c0.2-0.5,0.2-0.9,0-1c-0.3-0.2-0.4-0.6-0.2-1.1c0.2-0.5,0.6-1.1,1.4-1.7c0.5-0.5,0.8-0.9,1.2-1.1c0.3-0.2,0.8-0.3,1.3-0.3
		c0.5,0,1.3,0,2.3,0.1c0.7,0,1.5,0.1,2.4,0.1c0.8,0,1.4,0,1.6,0c0.4,0.2,0.8,0.3,1.4,0.5c0.5,0.2,1,0.4,1.5,0.5
		c0.4,0.2,0.6,0.3,0.6,0.4c0,0.2,0.1,0.4,0.3,0.5c0.2,0.1,0.4,0.1,0.6,0.2c0.3,0,0.7,0.2,1.2,0.6s1,1,1.5,1.6c0.5,0.6,0.9,1.3,1.2,2
		c0.3,0.7,0.6,1.4,0.8,2c0.2,0.6,0.2,1.5,0,2.7c0,0.6-0.1,1.2-0.3,1.9c-0.1,0.6-0.3,1-0.5,1.2c-0.2,0.2-0.5,0.4-0.7,0.6
		c-0.2,0.2-0.3,0.5-0.3,0.7c0,0.2-0.1,0.5-0.4,1c-0.3,0.5-0.7,1-1.1,1.6c-0.5,0.6-0.9,1.2-1.5,1.9c-0.5,0.6-1.1,1.2-1.5,1.6
		c-0.5,0.7-1.2,1.3-1.9,1.9c-0.7,0.6-1.4,1.1-1.9,1.4c-1.1,0.5-2.3,1-3.6,1.5s-2.5,0.9-3.7,1.2s-2.2,0.5-2.9,0.4
		c-1.2,0.2-2,0.3-2.3,0.5c-0.4,0.1-0.6,0.5-0.8,1.1c-0.2,0.5-0.4,1.1-0.6,1.6c-0.2,0.6-0.3,0.9-0.3,1.1c-0.1,0.2-0.3,0.7-0.6,1.5
		c-0.3,0.8-0.6,1.8-1,2.9c-0.4,1.1-0.7,2.2-1,3.3c-0.3,1.1-0.6,2-0.7,2.7c-0.2,0.6-0.4,0.9-0.6,1C18.8,61,18.4,61,18.1,61z
		 M25.8,41.8c0.2,0.2,0.8,0.2,1.9,0.1c1.1-0.1,2.3-0.4,3.6-0.9c0.8-0.3,1.7-0.6,2.5-1.1c0.8-0.4,1.7-0.9,2.4-1.4
		c0.4-0.3,1-0.8,1.9-1.5c0.8-0.7,1.6-1.6,2.5-2.7c0.1-0.2,0.3-0.6,0.6-1.2c0.3-0.6,0.6-1.2,0.8-1.7c0.4-0.6,0.7-1.4,1.1-2.6
		c0.4-1.1,0.5-2.1,0.2-2.8c-0.2-1.1-0.7-2.1-1.6-3c-0.9-0.9-1.9-1.6-3.1-1.9c-0.9-0.2-1.7-0.2-2.3-0.2c-0.6,0-1.2,0.1-1.9,0.2
		c-0.7,0.2-1.1,0.5-1.5,0.9c-0.3,0.4-0.7,1.2-1.2,2.4c-0.3,0.6-0.7,1.5-1.2,2.6c-0.5,1.2-1,2.3-1.4,3.3c-0.7,2.7-1.5,5-2.2,6.7
		c-0.7,1.8-1.2,2.9-1.3,3.3c0,0.5,0,0.8-0.1,1C25.5,41.4,25.6,41.6,25.8,41.8z"/>
	<path id="XMLID_2485_" class="st0" d="M47.4,55.9c-0.4-0.3-0.6-0.6-0.8-0.9c-0.1-0.3-0.2-0.8,0-1.7c0.1-1.2,0.3-2.2,0.5-3.1
		c0.2-0.9,0.5-1.9,0.7-3.1c0.1-0.5,0.3-1.3,0.7-2.5c0.4-1.2,0.9-2.5,1.5-3.9c0.6-1.4,1.2-2.7,1.7-4c0.6-1.3,1.1-2.2,1.5-2.8
		c0.3-0.2,0.7-0.4,1.2-0.3c0.5,0,0.9,0.2,1.2,0.6c0.5,0.4,0.5,1,0.2,2c-0.3,0.9-0.9,2.4-1.9,4.4c-0.5,1.1-0.9,1.9-1.1,2.5
		c-0.2,0.6-0.4,0.9-0.3,1c0,0.1,0.2,0.1,0.6-0.2c0.2-0.5,0.7-1,1.4-1.6c0.7-0.6,1.4-1.2,2.1-1.8s1.4-1.1,2.1-1.5
		c0.7-0.5,1.1-0.7,1.4-0.9c0.3-0.2,0.7-0.4,1.1-0.5c0.4-0.1,0.7-0.3,0.9-0.3c0.9-0.5,1.9-0.6,2.9-0.5c1,0.1,1.6,0.5,1.9,1.1
		c0,0.3,0.3,0.7,0.7,1c0.2,0,0.3,0.1,0.3,0.4c0,0.3-0.2,0.5-0.6,0.5c-0.4,0.1-1,0.1-1.6,0.2c-0.5,0-1,0.1-1.4,0.3
		c-0.4,0.2-0.9,0.4-1.5,0.6c-1.6,0.9-3.1,1.8-4.5,2.7c-1.4,0.9-2.8,2-4.1,3.5c-0.3,0.3-0.6,0.7-0.9,1.2c-0.3,0.5-0.6,0.9-0.9,1.5
		c-0.2,0.2-0.4,0.7-0.6,1.4c-0.2,0.7-0.4,1.4-0.5,2c-0.1,0.6-0.2,1-0.2,1.1c-0.2,0.8-0.5,1.4-0.8,1.7c-0.5,0.7-0.9,1-1.2,1
		C48.5,56.9,48,56.5,47.4,55.9z"/>
	<path id="XMLID_2487_" class="st0" d="M68.6,55.8c-0.2-0.3-0.4-0.6-0.6-0.8s-0.4-0.4-0.4-0.5s0-0.3,0-0.5c0-0.2-0.1-0.4-0.3-0.5
		c-0.2-0.2-0.2-0.8,0.1-1.7c0.2-0.9,0.7-2,1.2-3.3c0.6-1.3,1.3-2.7,2-4.1c0.3-0.3,0.7-0.8,1-1.3c0.3-0.5,0.6-0.9,0.7-1.1
		c0-0.2,0.1-0.3,0.2-0.5c0.1-0.1,0.3-0.2,0.4-0.2V41c0-0.2,0.2-0.6,0.6-1.1c0.4-0.5,0.9-1,1.5-1.6c0.6-0.6,1.2-1.2,1.8-1.7
		c0.6-0.6,1.1-1,1.5-1.2c0.9-0.6,1.8-0.9,2.7-1.1c0.9-0.1,1.7,0.1,2.4,0.6c0.1,0.1,0.3,0.3,0.6,0.6c0.3,0.3,0.6,0.6,1,1
		c0.4,0.4,0.8,0.7,1.2,1.1l2.3,2l-1.1,3.1c-0.5,1.7-0.7,3.1-0.4,4.3c0.3,1.2,0.7,2.3,1.2,3.2c0.2,0.5,0.6,0.9,1.3,1.3
		c0.6,0.4,1.2,0.7,1.8,0.7c0.3,0,0.6,0.2,0.9,0.4c0.3,0.2,0.4,0.5,0.4,1c0,0.4-0.1,0.7-0.2,1c-0.2,0.2-0.5,0.4-0.9,0.5
		c-1.4,0.2-2.6-0.2-3.8-1c-1.2-0.8-2.3-2.2-3.2-4.1c-0.2-0.2-0.4-0.7-0.6-1.4c-0.3-0.7-0.4-1.1-0.5-1.3c-0.2,0.2-0.5,0.6-0.9,1.1
		c-0.5,0.6-0.8,1-1.1,1.2c-2.9,3-5.5,5-7.6,6C71.7,56.7,70,56.7,68.6,55.8z M72.1,52.3C73,52,74,51.4,75,50.6c1.4-1.2,2.8-2.5,4.2-4
		c1.4-1.4,2.6-2.8,3.4-4l1.4-2.2c-0.4-0.9-0.9-1.6-1.3-2c-0.5-0.3-0.9-0.5-1.2-0.5c-0.5,0-1.3,0.5-2.4,1.5c-1.1,1-2.2,2.3-3.4,4
		c-1.2,1.7-2.3,3.5-3.4,5.4c-0.4,0.8-0.9,2-1.5,3.5C70.8,52.6,71.3,52.6,72.1,52.3z"/>
	<path id="XMLID_2539_" class="st0" d="M102.9,57.9c-0.6-0.2-1.1-0.4-1.4-0.6c-0.4-0.2-0.9-0.6-1.5-1.1c-0.5-0.7-0.9-1.3-1.1-1.9
		c-0.3-0.6-0.4-1.2-0.5-2c-0.1-0.8-0.1-1.7-0.1-2.9c0-0.5,0.1-1.2,0.3-2.2c0.2-1,0.4-2,0.7-3.1c0.3-1.1,0.5-2.1,0.7-2.9
		c0.2-0.9,0.4-1.4,0.4-1.7c0.1-0.5-0.1-0.8-0.6-0.9c-0.5-0.1-1.1-0.1-1.8-0.1c-0.6,0-1.1,0-1.3-0.2c-0.2,0-0.2-0.2-0.2-0.4
		c0-0.2,0-0.3,0-0.3c0-0.1-0.1-0.2-0.2-0.4c-0.1-0.2,0-0.4,0.2-0.7s0.5-0.5,1-0.6c0.4-0.1,0.9-0.2,1.5-0.2c0.6-0.1,1.3-0.2,1.9-0.4
		c0.7-0.2,1.2-0.6,1.6-1.1c0.4-0.9,0.8-1.9,1.3-3s1-2.1,1.5-3c0.5-0.9,0.8-1.4,1-1.6c0.7-0.4,1.2-0.5,1.5-0.5
		c0.3,0.1,0.7,0.4,1.1,1.1c0.2,0.3,0.4,0.5,0.5,0.7c0.1,0.2,0.1,0.4,0,0.7c-0.1,0.3-0.3,0.8-0.6,1.5c-0.4,0.7-0.9,1.7-1.6,3
		c-0.2,0.4-0.5,0.9-0.8,1.5c0.2,0,0.4,0.1,0.7,0.1c0.3,0,0.7,0,1.2-0.1c0.5-0.1,1-0.2,1.7-0.2c0.7-0.1,1.3-0.1,1.7,0
		c0.9,0,1.6,0.2,2.1,0.5c0.5,0.4,0.7,0.9,0.7,1.8c0.1,0.5,0,0.7-0.3,0.8c-0.3,0.1-1,0.1-2.1,0.1c-0.4,0-0.9,0-1.7,0.1
		c-0.8,0-1.6,0.1-2.4,0.1c-0.8,0-1.6,0.1-2.2,0.2c-0.6,0.1-0.9,0.1-0.9,0.2c-0.1,0.1-0.3,0.5-0.6,1.2c-0.3,0.7-0.5,1.5-0.8,2.4
		c-0.3,0.9-0.5,1.7-0.7,2.4c-0.3,1.4-0.5,2.8-0.6,4.2c-0.1,1.4-0.2,2.6-0.1,3.7c0.1,1,0.3,1.8,0.7,2.2c0.4,0.4,1.1,0.4,2.2,0.2
		c1.1-0.2,1.9-0.6,2.6-1.1c0.7-0.6,1.4-0.9,1.8-0.9c0.5,0,0.7,0.2,0.8,0.6c0.1,0.4-0.2,1-0.7,1.8c-0.5,0.7-1.1,1.4-1.9,1.9
		c-0.7,0.6-1.5,1-2.3,1.2C104.4,58.1,103.6,58.1,102.9,57.9z"/>
	<path id="XMLID_2541_" class="st0" d="M118.8,56.1c-0.6-0.1-1.1-0.5-1.6-1.3c-0.4-0.8-0.7-1.5-0.8-2.2c0-0.3,0.1-0.8,0.2-1.4
		s0.1-1.3,0.2-1.9c0.2-0.8,0.4-1.7,0.7-2.9c0.3-1.1,0.6-2.3,0.9-3.4c0.3-1.2,0.6-2.1,0.8-3c0.2-0.8,0.4-1.3,0.5-1.5
		c0.2-0.3,0.5-0.4,1-0.2c0.5,0.2,0.8,0.4,1.1,0.7c0.2,0.3,0.4,0.7,0.5,1.2c0.1,0.5,0,1.1-0.2,2c-0.2,0.9-0.5,2.1-1,3.8
		c-0.5,1.7-0.8,3-1,4c-0.2,1-0.3,2.1-0.3,3.2c-0.2,1.4-0.3,2.3-0.4,2.6C119.3,56,119.1,56.2,118.8,56.1z M125.9,31.4
		c-0.2,0.1-0.3,0.2-0.5,0.2c-0.1,0-0.4-0.1-0.7-0.3c-0.3,0-0.6-0.2-1.1-0.6c-0.4-0.3-0.8-0.7-1.1-1.1c-0.3-0.4-0.5-0.6-0.5-0.7
		c0-0.4,0-0.9,0.1-1.6c0.1-0.6,0.3-1.2,0.6-1.7c0.3-0.5,0.8-0.8,1.4-0.8c0.2,0,0.3,0,0.4,0.1c0.1,0,0.5,0.2,1.1,0.4
		c0.3,0.6,0.7,1.3,1,2.1c0.3,0.8,0.5,1.5,0.4,2.2C127.1,30.2,126.7,30.9,125.9,31.4z"/>
	<path id="XMLID_2544_" class="st0" d="M130.3,54.9c0-0.3,0-0.6-0.1-0.9c-0.1-0.3,0-0.5,0.1-0.7l0.5,0.1c-0.2,0-0.4,0.1-0.7,0
		c-0.3,0-0.6-0.1-0.9-0.2c-0.3-0.1-0.4-0.2-0.5-0.3c0-0.7,0.1-1.2,0.2-1.6c0.1-0.4,0.2-0.7,0.3-0.9c0-0.4,0.1-0.8,0.4-1.4
		c0.2-0.6,0.5-1.2,0.6-1.8c0.2-0.7,0.4-1.8,0.6-3.2c0.3-1.4,0.7-2.7,1.2-4c0.3-1.1,0.7-2.4,1.2-4.1c0.5-1.6,1-3,1.4-4.1
		c0.5-1.9,1-3.4,1.4-4.6c0.4-1.2,0.9-2.2,1.4-3.2c0.5-1,1-2.1,1.6-3.3c0.2-0.3,0.3-0.8,0.5-1.3c0.2-0.5,0.3-1,0.4-1.3
		c0.1-0.3,0.4-0.6,1-0.7c0.6-0.1,1.1,0,1.6,0.5c0.5,0.5,0.7,0.8,0.7,1.2c0,0.3-0.1,0.9-0.4,1.6c-0.3,0.8-0.8,2-1.5,3.7
		c-0.3,0.4-0.6,1.1-1,2.1c-0.4,1-0.7,1.8-1,2.6c-0.6,1.4-1.1,2.7-1.5,3.7c-0.4,1-0.7,2.1-1.1,3.2c-0.3,1.2-0.6,2.5-1,3.9
		c-0.4,1.4-0.8,2.8-1.2,4.1l-1,0.3c0.3-0.4,0.6-0.8,1.1-1.3s0.8-0.9,1.2-1.4c0.4-0.4,0.6-0.7,0.8-0.8c1.1-0.9,2.4-1.8,3.7-2.6
		c1.4-0.8,2.7-1.4,3.9-1.8c1.2-0.4,2.1-0.5,2.8-0.2c0.5,0.2,1.1,0.6,1.9,1.3c0.7,0.7,1.2,1.4,1.3,2c0.3,0.7,0.4,1.4,0.2,2.3
		c-0.2,0.9-0.7,2.1-1.5,3.5c-0.7,1.3-1.5,2.5-2.4,3.7c-0.9,1.2-1.8,2.2-2.6,2.9c-0.3,0.2-0.6,0.4-1.1,0.8c-0.4,0.4-0.8,0.8-1.1,1.1
		c-0.9,0.8-1.9,1.4-3.1,1.9c-1.2,0.5-2.3,0.7-3.5,0.8c-1.2,0.1-2.2,0-3-0.3C131.2,56,130.6,55.6,130.3,54.9z M131.3,53.2
		c0.2,0,0.4,0.1,0.6,0.1c0.2,0,0.4,0,0.7,0c0.9-0.1,1.7-0.3,2.3-0.4c0.6-0.1,1.3-0.3,1.9-0.6c0.6-0.3,1.3-0.6,2-1.1
		c1.1-0.8,2.1-1.6,2.9-2.4c0.9-0.8,1.7-1.7,2.5-2.7c0.7-0.9,1.3-2,1.9-3.2c0.6-1.2,0.8-2.2,0.8-2.9c0-0.4-0.1-0.6-0.3-0.6
		c-0.1,0-0.5,0.1-1.1,0.3c-0.7,0.2-1.3,0.5-2,0.8c-0.7,0.3-1.1,0.6-1.3,0.8c0,0.2-0.2,0.4-0.7,0.6c-1.3,0.9-2.3,1.8-3,2.4
		s-1.4,1.3-1.9,2c-0.3,0.4-0.5,0.8-0.7,1c-0.2,0.3-0.4,0.5-0.6,0.8c-0.2,0.3-0.4,0.7-0.7,1.1c-0.3,0.5-0.7,1.1-1.2,1.9
		c-0.3,0.5-0.6,1.1-1.1,1.5c-0.4,0.5-0.8,0.8-1,0.9V53.2z"/>
	<path id="XMLID_2547_" class="st0" d="M156.4,54.7c-0.3,0-0.6,0-0.9,0c-0.3-0.1-0.6-0.2-0.9-0.4c-0.3-0.3-0.6-0.6-0.7-0.8
		c-0.1-0.2-0.2-0.5-0.1-0.9c0.1-0.4,0.2-1.1,0.4-1.9c0.2-0.7,0.5-1.6,0.7-2.8c0.3-1.2,0.6-2.3,0.9-3.5c0.1-0.7,0.3-1.3,0.5-2
		c0.2-0.7,0.5-1.4,0.7-1.9s0.4-1.1,0.6-1.4c0.3-1.2,0.6-2.2,1-3c0.3-0.9,0.7-1.9,1.1-3c0.5-1.1,1-2.7,1.7-4.5
		c0.9-2.5,1.6-4.4,2.1-5.7c0.5-1.3,0.8-2.2,1.1-2.8c0.2-0.6,0.4-1.1,0.5-1.4c0-0.3,0.1-0.6,0.3-0.7s0.4-0.2,0.7-0.2
		c0.6,0,1,0.3,1.4,0.8c0.3,0.6,0.6,1.2,0.6,2c0.1,0.8,0,1.5-0.4,2.1c-0.7,1.5-1.4,3.2-2.1,5.3c-0.7,2-1.5,4-2.2,6
		c-0.7,2-1.4,3.6-2,5c0,0.2-0.1,0.5-0.2,0.9c-0.1,0.4-0.3,0.8-0.4,1.1c-0.2,0.3-0.4,0.8-0.7,1.4c0,0.2-0.1,0.5-0.2,0.9
		c-0.1,0.5-0.3,1-0.5,1.7c-0.2,0.5-0.4,1.1-0.6,1.9c-0.2,0.8-0.4,1.4-0.5,2c0.2-0.4,0.6-0.9,1.3-1.7c0.7-0.7,1.3-1.4,1.9-1.9
		c0.7-0.6,1.4-1.2,2.2-1.9c0.8-0.7,1.5-1.2,2-1.5c0.5-0.3,1.1-0.8,1.9-1.3c0-0.2,0.1-0.3,0.2-0.3c0.1,0,0.3,0,0.5,0
		c0.2,0,0.3,0,0.3-0.1c0,0,0-0.1,0-0.3c0-0.2,0.2-0.4,0.7-0.6c0.5-0.2,1-0.3,1.7-0.4c0.6-0.1,1.2-0.2,1.6-0.2c0.5,0,0.9,0.1,1.2,0.3
		c0.3,0.2,0.7,0.7,1.1,1.4c0.5,0.7,0.8,1.5,1,2.4c0.1,0.9,0.1,1.9-0.3,2.9c0,0.3-0.1,0.8-0.2,1.4c-0.1,0.6-0.2,1.2-0.2,1.9l-0.4,2h1
		c0.3,0,0.8,0.1,1.4,0.3c0.2,0.2,0.3,0.3,0.5,0.5c0.2,0.1,0.3,0.2,0.5,0.2c0.5,0,0.7,0.2,0.6,0.6c-0.1,0.4-0.4,0.8-0.9,1.1
		c-1,0.7-1.9,1-2.7,1c-0.8,0-1.5-0.3-2.2-1c-0.7-0.7-1.1-1.5-1.2-2.4c-0.2-0.9-0.1-2,0.2-3.3c0.2-1.8,0.3-3.1,0.3-4
		c0-0.8-0.2-1.3-0.6-1.3c-0.4,0-1.1,0.3-2.2,0.8c-1,0.6-2.2,1.3-3.5,2.3c-1.3,0.9-2.5,2-3.8,3.2c-1.2,1.2-2.3,2.4-3.1,3.6
		c-0.5,0.6-1,1.2-1.4,1.6C157.3,54.4,156.9,54.7,156.4,54.7z"/>
	<path id="XMLID_2549_" class="st0" d="M186.7,56c-0.5,0.1-1,0-1.6-0.2c-0.6-0.2-1.1-0.6-1.5-1.1s-0.7-0.9-0.8-1.4
		c-0.2-0.9-0.1-1.9,0.3-3.2c0.4-1.3,1-2.7,1.7-4.1c0.8-1.5,1.6-2.9,2.6-4.2c1-1.4,2-2.5,3-3.6c1.1-1,2-1.7,2.9-2.1
		c0.5-0.3,0.8-0.5,1.1-0.6c0.3-0.1,0.6-0.1,0.9,0c0.3,0.1,0.8,0.3,1.4,0.6c0.6,0.2,1,0.4,1.3,0.6c0.3,0.2,0.7,0.6,1.1,1.2
		c0.3,0.6,0.6,1.2,0.7,1.9c0.2,0.6,0.3,1.3,0.4,2.1c0.3,1,0.5,1.7,0.4,2c-0.1,0.3-0.2,0.5-0.4,0.7c-0.3,0.4-0.4,0.6-0.2,0.6
		c0,0.3-0.1,0.6-0.3,0.9c-0.3,0.9-0.5,1.8-0.6,2.8c-0.1,1-0.1,1.8,0,2.4c0.3,0.9,0.9,1.4,1.8,1.6c0.9,0.2,1.8-0.2,2.7-1.1
		c0.5-0.3,0.9-0.6,1.3-0.9c0.4-0.3,0.6-0.2,0.6,0.1c0.2,0.2,0.5,0.3,0.6,0.3c0.2,0,0.3,0.1,0.4,0.2s0.1,0.4,0,0.6
		c-0.1,0.3-0.2,0.6-0.4,0.9c-0.6,0.6-0.9,1-0.9,1.2c-0.3,0.3-0.6,0.6-0.9,0.9c-0.7,0.5-1.7,0.7-2.8,0.7c-1.1,0-2-0.2-2.6-0.7
		c-0.6-0.5-1.2-1.1-1.7-1.9c-0.5-0.8-0.9-1.5-1-2l-0.3-0.6l-1.8,1.2c-0.5,0.5-0.9,0.9-1.5,1.3c-0.5,0.4-0.9,0.7-1,0.9
		c-0.1,0.2-0.3,0.3-0.4,0.4c-0.1,0.1-0.3,0.2-0.5,0.2c-0.2,0-0.4,0-0.6,0c0,0.2-0.2,0.4-0.6,0.6c-0.4,0.2-0.8,0.5-1.4,0.6
		C187.6,55.9,187.1,56,186.7,56z M187.4,52.1c0.6-0.4,1.4-0.9,2.2-1.4c0.8-0.5,1.5-1.1,2.2-1.6c0.6-0.5,1.1-0.9,1.3-1.2
		c0.2-0.2,0.4-0.4,0.8-0.8c0.4-0.4,0.7-0.7,1-1c0.9-1.1,1.6-2.3,2-3.6c0.4-1.3,0.3-2.3-0.1-3.1c-0.2-0.5-0.4-0.7-0.6-0.7
		s-0.8,0.1-1.5,0.4c-0.5,0.3-1.1,0.8-1.8,1.6c-0.7,0.8-1.5,1.7-2.3,2.8c-0.8,1.1-1.6,2.1-2.3,3.2c-0.7,1.1-1.3,2.1-1.7,3.1
		c-0.5,0.9-0.7,1.7-0.7,2.2c0,0.2,0.1,0.4,0.3,0.6C186.4,52.7,186.8,52.5,187.4,52.1z"/>
	<path id="XMLID_2552_" class="st0" d="M223.9,61c-0.5,0-0.9-0.3-1.2-0.8c-0.2-0.2-0.4-0.6-0.5-1c-0.1-0.4,0.1-1.2,0.4-2.4
		c0.3-1.1,0.9-2.9,1.7-5.2c0.4-1.6,0.7-2.7,1-3.4s0.4-1.2,0.4-1.6c0-0.5,0.1-0.8,0.2-1.1c0.1-0.3,0.2-0.6,0.2-0.9
		c0.2,0,0.5-0.2,0.7-0.7s0.5-1.1,0.6-1.9c0.2-0.7,0.3-1.3,0.5-1.7c0.1-0.4,0.2-0.7,0.2-0.9c0.2-0.3,0.4-0.8,0.6-1.5
		c0.2-0.7,0.6-1.5,1.1-2.5c0.3-1.2,0.7-2.5,1.1-3.9c0.4-1.3,0.8-2.6,1.3-3.8c0.4-1.2,0.8-2.1,1.1-2.8c0.5-1.3,0.8-2.2,1.1-2.7
		c0.2-0.5,0.2-0.9,0-1c-0.3-0.2-0.4-0.6-0.2-1.1c0.2-0.5,0.6-1.1,1.4-1.7c0.5-0.5,0.8-0.9,1.2-1.1c0.3-0.2,0.8-0.3,1.3-0.3
		c0.5,0,1.3,0,2.3,0.1c0.7,0,1.5,0.1,2.4,0.1c0.8,0,1.4,0,1.6,0c0.4,0.2,0.8,0.3,1.4,0.5c0.5,0.2,1,0.4,1.5,0.5
		c0.4,0.2,0.6,0.3,0.6,0.4c0,0.2,0.1,0.4,0.3,0.5c0.2,0.1,0.4,0.1,0.6,0.2c0.3,0,0.7,0.2,1.2,0.6s1,1,1.5,1.6c0.5,0.6,0.9,1.3,1.2,2
		c0.3,0.7,0.6,1.4,0.8,2c0.2,0.6,0.2,1.5,0,2.7c0,0.6-0.1,1.2-0.3,1.9c-0.1,0.6-0.3,1-0.5,1.2c-0.2,0.2-0.5,0.4-0.7,0.6
		c-0.2,0.2-0.3,0.5-0.3,0.7c0,0.2-0.1,0.5-0.4,1c-0.3,0.5-0.7,1-1.1,1.6c-0.5,0.6-0.9,1.2-1.5,1.9c-0.5,0.6-1.1,1.2-1.5,1.6
		c-0.5,0.7-1.2,1.3-1.9,1.9c-0.7,0.6-1.4,1.1-1.9,1.4c-1.1,0.5-2.3,1-3.6,1.5s-2.5,0.9-3.7,1.2s-2.2,0.5-2.9,0.4
		c-1.2,0.2-2,0.3-2.3,0.5c-0.4,0.1-0.6,0.5-0.8,1.1c-0.2,0.5-0.4,1.1-0.6,1.6c-0.2,0.6-0.3,0.9-0.3,1.1c-0.1,0.2-0.3,0.7-0.6,1.5
		c-0.3,0.8-0.6,1.8-1,2.9c-0.4,1.1-0.7,2.2-1,3.3c-0.3,1.1-0.6,2-0.7,2.7c-0.2,0.6-0.4,0.9-0.6,1C224.5,61,224.2,61,223.9,61z
		 M231.5,41.8c0.2,0.2,0.8,0.2,1.9,0.1c1.1-0.1,2.3-0.4,3.6-0.9c0.8-0.3,1.7-0.6,2.5-1.1c0.8-0.4,1.7-0.9,2.4-1.4
		c0.4-0.3,1-0.8,1.9-1.5c0.8-0.7,1.6-1.6,2.5-2.7c0.1-0.2,0.3-0.6,0.6-1.2c0.3-0.6,0.6-1.2,0.8-1.7c0.4-0.6,0.7-1.4,1.1-2.6
		c0.4-1.1,0.5-2.1,0.2-2.8c-0.2-1.1-0.7-2.1-1.6-3c-0.9-0.9-1.9-1.6-3.1-1.9c-0.9-0.2-1.7-0.2-2.3-0.2c-0.6,0-1.2,0.1-1.9,0.2
		c-0.7,0.2-1.1,0.5-1.5,0.9c-0.3,0.4-0.7,1.2-1.2,2.4c-0.3,0.6-0.7,1.5-1.2,2.6c-0.5,1.2-1,2.3-1.4,3.3c-0.7,2.7-1.5,5-2.2,6.7
		c-0.7,1.8-1.2,2.9-1.3,3.3c0,0.5,0,0.8-0.1,1C231.3,41.4,231.4,41.6,231.5,41.8z"/>
	<path id="XMLID_2555_" class="st0" d="M254.4,57.1c-0.5,0-1-0.1-1.3-0.3c-0.3-0.2-0.7-0.5-1.1-0.9c-0.8-0.8-1.3-1.6-1.7-2.4
		c-0.3-0.8-0.4-1.5-0.3-2.2c0.1-0.3,0.2-0.8,0.1-1.4c-0.2-0.2-0.3-0.3-0.2-0.4c0.1-0.1,0.2-0.2,0.2-0.3c0.2,0,0.3-0.2,0.2-0.7
		c-0.1-0.3,0.1-1.1,0.5-2.2c0.4-1.1,0.9-2.2,1.5-3.2c0.2-0.4,0.6-1,1.1-1.6s1-1.4,1.6-2c0.6-0.7,1.1-1.2,1.6-1.6
		c1-0.9,1.9-1.5,2.7-1.9c0.8-0.4,1.6-0.7,2.5-0.9c0.9-0.2,1.5-0.3,1.9-0.3c0.4,0,0.8,0.3,1.5,1c0.9,0.4,1.6,0.9,2.1,1.5
		c0.4,0.6,0.7,1.4,0.8,2.5c0.1,1.2,0,2.7-0.3,4.2c-0.3,1.6-1.3,3.6-2.9,5.9c-1,1.5-2,2.6-2.8,3.3c-0.9,0.7-1.9,1.4-3.1,2.1
		c-0.9,0.6-1.7,1-2.4,1.3C256.1,56.9,255.3,57,254.4,57.1z M260.3,50.6c1-1.1,1.8-2.2,2.4-3.2c0.6-1,1.2-2.2,1.7-3.8
		c0.2-0.5,0.3-1,0.3-1.7c0-0.7,0-1.3,0-1.9c-0.1-0.6-0.2-0.9-0.5-1c-0.5-0.3-1.1-0.4-1.8-0.3c-0.7,0.1-1.5,0.5-2.3,1.2
		c-1.3,1.1-2.4,2.4-3.3,4c-0.9,1.6-1.9,3.4-2.8,5.4c-0.6,1.5-0.8,2.7-0.4,3.6c0.4,0.9,1.1,1.2,2.3,0.9
		C257.1,53.5,258.5,52.5,260.3,50.6z"/>
	<path id="XMLID_2558_" class="st0" d="M277.8,57.5c-1,0.1-2,0-2.9-0.2c-0.9-0.2-1.7-0.6-2.4-1.1c-0.6-0.5-1.1-1.1-1.3-1.9
		c-0.3-0.6-0.4-1-0.4-1.2s0.1-0.4,0.4-0.6c0.3,0,0.6,0.1,0.9,0.3c0.3,0.2,0.6,0.4,1.1,0.6c0.6,0.5,1.4,0.8,2.3,0.9
		c0.9,0,1.7-0.1,2.4-0.4c0.7-0.3,1.2-0.7,1.2-1.2c0-0.2-0.1-0.5-0.2-0.9c-0.1-0.4-0.3-0.8-0.4-1.3c-1.1-1.6-1.9-3.1-2.4-4.7
		c-0.5-1.5-0.8-2.8-0.8-3.8c0-0.7,0.2-1.5,0.7-2.4c0.5-0.8,1.1-1.6,1.9-2.1c0.7-0.8,1.6-1.5,2.5-2.1c0.9-0.6,1.8-1.2,2.8-1.6
		c0.9-0.5,1.8-0.8,2.5-1c0.5,0,1.1,0.1,1.8,0.2c0.7,0.1,1.3,0.3,1.5,0.4c0.5,0.2,0.9,0.6,1.3,1.3c0.4,0.7,0.6,1.4,0.6,2.1
		c0,0.3-0.1,0.7-0.2,1.1c-0.2,0.5-0.4,1-0.8,1.6c-0.2,0.5-0.4,0.9-0.6,1.3c-0.2,0.4-0.3,0.7-0.3,0.8c-0.2,0.5-0.5,0.7-0.8,0.7
		c-0.4,0-0.7-0.2-1.1-0.6c-0.4-0.3-0.6-0.8-0.8-1.3c-0.2-0.6-0.2-1.1-0.2-1.5c0-0.4,0.2-0.8,0.5-1.3c0.5-0.5,0.7-0.8,0.7-0.9
		s-0.2-0.2-0.7-0.2c-0.3,0-0.8,0.2-1.6,0.5c-0.8,0.4-1.6,0.8-2.4,1.4c-0.8,0.6-1.6,1.1-2.2,1.8c-0.8,0.7-1.2,1.3-1.4,1.6
		c-0.1,0.3-0.2,0.8-0.2,1.5c0,0.6,0.1,1.3,0.4,2.2c0.3,0.9,0.5,1.4,0.8,1.7c0.6,1.1,1.1,2,1.5,2.6c1.2,2.6,1.5,4.5,0.9,5.7
		C281.8,56.7,280.3,57.3,277.8,57.5z"/>
	<path id="XMLID_2561_" class="st0" d="M314.6,56.7c-0.8,0.2-1.4,0.3-1.7,0.2c-0.4-0.1-0.9-0.4-1.5-1c-0.4-0.6-0.7-1.1-1-1.5
		c-0.3-0.5-0.5-1.3-0.6-2.4c0-0.8,0-1.6,0.2-2.6c0.1-0.9,0.2-1.6,0.2-2c0.3-1.5,0.5-2.8,0.4-3.7c-0.1-0.9-0.2-1.4-0.4-1.4
		c-0.5-0.1-1.3,0.4-2.4,1.3s-2.5,2.2-4,3.8c-1.5,1.5-3,3.2-4.5,4.9c-0.8,1.1-1.3,1.9-1.7,2.4c-0.3,0.5-0.6,0.8-0.7,0.8
		c-0.3,0-0.7-0.1-1.2-0.3c-0.5-0.2-0.9-0.5-1.3-0.8c-0.4-0.3-0.6-0.6-0.6-0.8c0-0.2,0.1-0.6,0.3-1.3c0.2-0.7,0.5-1.6,0.8-2.5
		s0.6-1.8,0.8-2.7s0.4-1.4,0.6-1.7c0.4-1.1,0.8-2.4,1.3-3.9c0.5-1.5,1-2.9,1.4-4.1c0.2-0.5,0.5-1.3,0.9-2.3c0.4-1,0.8-2,1.2-3.1
		c0.4-1,0.7-1.8,0.9-2.3c0.1-0.3,0.4-0.9,0.7-1.8c0.3-0.8,0.7-1.8,1.1-2.8c0.4-1,0.8-2,1.1-2.9c0.4-0.9,0.6-1.5,0.7-2
		c0-0.4,0-0.7,0.1-1c0.1-0.3,0.2-0.5,0.3-0.7c0.2,0,0.5,0,0.9-0.1c0-0.1,0.2,0,0.5,0.2c0.3,0.2,0.6,0.5,1,0.9
		c0.3,0.4,0.5,0.6,0.5,0.9c0.2,0.5,0.2,1.2,0.1,2.1c-0.2,0.8-0.6,2.1-1.3,3.8c-0.5,0.7-0.9,1.7-1.3,3c-0.4,1.3-0.9,2.4-1.3,3.3
		c-0.2,0.3-0.5,0.9-0.9,1.9c-0.4,1-0.9,2.1-1.5,3.3c-0.6,1.3-1.1,2.6-1.6,3.9s-0.9,2.5-1.2,3.5c-0.4,1-0.6,1.7-0.4,2
		c0.1,0.3,0.6,0,1.5-1.1c1.2-1.2,2.4-2.5,3.7-3.8c1.3-1.3,2.5-2.4,3.6-3.3c1.1-0.9,2.1-1.3,2.8-1.2c0.4,0.1,0.8,0.3,1.2,0.7
		c0.4,0.4,0.9,0.9,1.3,1.4c0.4,0.5,0.7,1.1,0.9,1.5c0.2,0.6,0.3,1.2,0.3,1.6c0.1,0.5,0.1,1.1,0,2c0,0.9-0.1,2.3-0.3,4.2
		c-0.2,1.4-0.4,2.4-0.5,3c-0.1,0.6-0.1,1,0.1,1.3c0.1,0.2,0.4,0.5,0.7,0.8c0.6,0.5,0.9,0.9,1,1.3C315.4,56,315.2,56.4,314.6,56.7z"
		/>
	<path id="XMLID_2563_" class="st0" d="M326.4,56.3c-0.3,0.1-0.8,0.1-1.3,0.1c-0.5,0-1-0.1-1.4-0.2c-0.4-0.1-0.6-0.2-0.6-0.3
		c0-0.2-0.1-0.3-0.3-0.3c-0.4-0.3-0.7-0.6-1.1-0.7c-0.4-0.6-0.6-1.2-0.6-1.9s0.2-1.8,0.6-3.2c0.1-1,0.5-2.2,1.2-3.6
		c0.7-1.4,1.5-2.8,2.5-4.2c1-1.4,2-2.7,3.1-3.9c1.1-1.2,2.1-2,3-2.5c0.6-0.6,1.3-0.9,2.1-0.9c0.8,0,1.6,0.1,2.4,0.6
		c0.4,0.2,0.8,0.5,1.2,1c0.4,0.5,0.8,0.9,1.2,1.5c0.4,0.5,0.7,1.1,0.9,1.6c0.1,0.5,0.2,0.9,0.2,1.2c0,0.4,0,0.8,0,1.3
		c0,0.5-0.1,1.2-0.2,2.2c-0.2,0.7-0.4,1.7-0.5,2.7c-0.1,1.1-0.2,2-0.2,2.8c-0.1,0.8,0,1.3,0.3,1.7c0.3,0.3,0.7,0.4,1.2,0.1
		c0.5-0.2,1-0.4,1.4-0.3c0.5,0,0.8,0.2,1.1,0.4c0.3,0.2,0.4,0.6,0.4,1.1s-0.2,1-0.7,1.5c-0.5,0.5-1.1,0.9-1.7,1.3s-1.3,0.5-1.9,0.5
		c-0.5,0-0.9-0.3-1.3-0.8c-0.4-0.6-0.8-1.2-1.1-2c-0.3-0.8-0.6-1.6-0.8-2.3l-0.4-1.4l-2.7,2.5c-0.5,0.6-1.1,1.1-1.6,1.6
		c-0.5,0.5-0.8,0.8-1,1c-0.2,0.4-0.6,0.7-1.1,1.1C328.1,55.5,327.4,55.9,326.4,56.3z M326.6,52.6c0.7-0.4,1.5-1,2.4-1.8
		c0.9-0.8,1.8-1.7,2.7-2.7c0.9-1,1.6-1.9,2.2-2.7c0.7-0.9,1.2-1.8,1.6-2.7c0.4-0.8,0.6-1.6,0.8-2.4c-0.2-0.5-0.4-0.9-0.8-1.5
		c-0.4-0.5-0.7-0.8-1-0.8c-0.9,0-1.9,0.6-2.9,1.7c-1,1.1-2,2.4-2.9,3.7c-0.2,0.2-0.4,0.5-0.7,1c-0.3,0.5-0.6,0.9-0.8,1.3
		c-0.3,0.4-0.4,0.6-0.5,0.8c-0.1,0.2-0.4,0.6-0.7,1.4c-0.4,0.8-0.7,1.5-1,2.3c-0.3,0.8-0.5,1.3-0.5,1.5c0,0.2,0,0.5,0.1,0.8
		c0.1,0.3,0.3,0.5,0.6,0.6C325.4,53.2,325.9,53,326.6,52.6z"/>
	<path id="XMLID_2566_" class="st0" d="M346.7,57.7c-0.3-0.1-0.7-0.4-1.1-0.8c-0.4-0.4-0.7-0.9-0.9-1.4c-0.2-0.5-0.4-1-0.4-1.5
		c0.2-0.5,0.5-1.2,0.8-2.4c0.3-1.1,0.7-2.4,1.2-3.9c0.3-0.5,0.6-1,0.8-1.6s0.4-1.2,0.5-1.7c0.3-0.7,0.7-1.5,1.2-2.6
		c0.5-1.1,0.9-2.1,1.3-3.2c0.4-1.1,0.8-2,1.1-2.8c0.5-1.1,1-2.1,1.4-3.1c0.4-0.9,0.8-1.9,1.2-2.8c0.4-0.9,0.8-2,1.3-3.1
		c0.5-1.2,1-2.3,1.5-3.5c0.5-1.2,1-2.3,1.4-3.2c0.4-1,0.6-1.7,0.7-2.1c0-0.3,0.1-0.6,0.2-0.7c0.1-0.2,0.3-0.2,0.5-0.2
		c0.2-0.2,0.3-0.3,0.5-0.3c0.2,0,0.3,0,0.5,0c0.2,0,0.5,0.3,1,0.9c0.5,0.6,0.7,1.2,0.7,1.7c0,0.7-0.3,1.9-1,3.7
		c-0.6,1.8-1.5,3.9-2.7,6.2c-1.4,3.1-2.5,5.6-3.4,7.5c-0.9,2-1.5,3.4-1.8,4.4c-0.3,1-0.5,1.5-0.4,1.6c1.2-0.5,2.1-1.1,2.7-1.5
		c0.5-0.2,0.9-0.6,1.5-0.9c0.5-0.4,1.1-0.7,1.5-1.1s0.9-0.6,1.2-0.7c0.5-0.3,1-0.6,1.5-1c0.5-0.3,0.9-0.5,1.1-0.7
		c0.7-0.3,1.2-0.4,1.6-0.3c0.4,0.1,0.7,0.4,1.1,0.9c0.5,0.5,0.5,1,0.2,1.4c-0.3,0.4-1,0.9-2,1.6c-0.9,0.5-1.9,1.2-3.1,1.9
		c-1.2,0.7-2.3,1.4-3.2,2c-0.9,0.6-1.5,0.9-1.6,1.1c0.7,1.2,1.2,2.1,1.5,2.6c0.3,0.7,0.7,1.3,1.1,1.8c0.4,0.6,0.6,0.9,0.6,1.1
		c0.5,1.3,1.1,2.2,2,2.8c0.9,0.6,1.9,0.6,2.8,0.2c0.8-0.3,1.4-0.4,1.8-0.3c0.4,0.1,0.7,0.4,0.8,0.9c0.2,0.3,0.2,0.6,0.2,0.7
		c-0.1,0.1-0.3,0.5-0.8,1c-0.8,0.8-1.6,1.3-2.4,1.5s-1.5,0.1-2.2-0.2c-0.6,0-1.4-0.4-2.3-1.2c-0.9-0.8-2.2-2.4-3.9-4.5
		c0-0.2-0.1-0.4-0.2-0.7c-0.1-0.3-0.3-0.6-0.5-0.9c-0.2-0.3-0.5-0.9-1-1.7c0-0.2-0.1-0.4-0.2-0.6c-0.1-0.2-0.3-0.5-0.5-0.7
		c-0.7-0.2-1.1-0.1-1.4,0.4c-0.3,0.5-0.6,0.9-0.9,1.4c-0.2,0.5-0.5,1.3-0.8,2.3c-0.3,1-0.6,1.9-0.7,2.8c-0.2,0.9-0.2,1.5-0.2,1.9
		c0,0.7-0.1,1.1-0.3,1.3C347.8,57.6,347.4,57.7,346.7,57.7z"/>
</g>
<g id="XMLID_40_">
	<path id="XMLID_74_" class="st0" d="M18.1,61c-0.5,0-0.9-0.3-1.2-0.8c-0.2-0.2-0.4-0.6-0.5-1c-0.1-0.4,0.1-1.2,0.4-2.4
		c0.3-1.1,0.9-2.9,1.7-5.2c0.4-1.6,0.7-2.7,1-3.4s0.4-1.2,0.4-1.6c0-0.5,0.1-0.8,0.2-1.1c0.1-0.3,0.2-0.6,0.2-0.9
		c0.2,0,0.5-0.2,0.7-0.7s0.5-1.1,0.6-1.9c0.2-0.7,0.3-1.3,0.5-1.7c0.1-0.4,0.2-0.7,0.2-0.9c0.2-0.3,0.4-0.8,0.6-1.5
		c0.2-0.7,0.6-1.5,1.1-2.5c0.3-1.2,0.7-2.5,1.1-3.9c0.4-1.3,0.8-2.6,1.3-3.8c0.4-1.2,0.8-2.1,1.1-2.8c0.5-1.3,0.8-2.2,1.1-2.7
		c0.2-0.5,0.2-0.9,0-1c-0.3-0.2-0.4-0.6-0.2-1.1c0.2-0.5,0.6-1.1,1.4-1.7c0.5-0.5,0.8-0.9,1.2-1.1c0.3-0.2,0.8-0.3,1.3-0.3
		c0.5,0,1.3,0,2.3,0.1c0.7,0,1.5,0.1,2.4,0.1c0.8,0,1.4,0,1.6,0c0.4,0.2,0.8,0.3,1.4,0.5c0.5,0.2,1,0.4,1.5,0.5
		c0.4,0.2,0.6,0.3,0.6,0.4c0,0.2,0.1,0.4,0.3,0.5c0.2,0.1,0.4,0.1,0.6,0.2c0.3,0,0.7,0.2,1.2,0.6s1,1,1.5,1.6c0.5,0.6,0.9,1.3,1.2,2
		c0.3,0.7,0.6,1.4,0.8,2c0.2,0.6,0.2,1.5,0,2.7c0,0.6-0.1,1.2-0.3,1.9c-0.1,0.6-0.3,1-0.5,1.2c-0.2,0.2-0.5,0.4-0.7,0.6
		c-0.2,0.2-0.3,0.5-0.3,0.7c0,0.2-0.1,0.5-0.4,1c-0.3,0.5-0.7,1-1.1,1.6c-0.5,0.6-0.9,1.2-1.5,1.9c-0.5,0.6-1.1,1.2-1.5,1.6
		c-0.5,0.7-1.2,1.3-1.9,1.9c-0.7,0.6-1.4,1.1-1.9,1.4c-1.1,0.5-2.3,1-3.6,1.5s-2.5,0.9-3.7,1.2s-2.2,0.5-2.9,0.4
		c-1.2,0.2-2,0.3-2.3,0.5c-0.4,0.1-0.6,0.5-0.8,1.1c-0.2,0.5-0.4,1.1-0.6,1.6c-0.2,0.6-0.3,0.9-0.3,1.1c-0.1,0.2-0.3,0.7-0.6,1.5
		c-0.3,0.8-0.6,1.8-1,2.9c-0.4,1.1-0.7,2.2-1,3.3c-0.3,1.1-0.6,2-0.7,2.7c-0.2,0.6-0.4,0.9-0.6,1C18.8,61,18.4,61,18.1,61z
		 M25.8,41.8c0.2,0.2,0.8,0.2,1.9,0.1c1.1-0.1,2.3-0.4,3.6-0.9c0.8-0.3,1.7-0.6,2.5-1.1c0.8-0.4,1.7-0.9,2.4-1.4
		c0.4-0.3,1-0.8,1.9-1.5c0.8-0.7,1.6-1.6,2.5-2.7c0.1-0.2,0.3-0.6,0.6-1.2c0.3-0.6,0.6-1.2,0.8-1.7c0.4-0.6,0.7-1.4,1.1-2.6
		c0.4-1.1,0.5-2.1,0.2-2.8c-0.2-1.1-0.7-2.1-1.6-3c-0.9-0.9-1.9-1.6-3.1-1.9c-0.9-0.2-1.7-0.2-2.3-0.2c-0.6,0-1.2,0.1-1.9,0.2
		c-0.7,0.2-1.1,0.5-1.5,0.9c-0.3,0.4-0.7,1.2-1.2,2.4c-0.3,0.6-0.7,1.5-1.2,2.6c-0.5,1.2-1,2.3-1.4,3.3c-0.7,2.7-1.5,5-2.2,6.7
		c-0.7,1.8-1.2,2.9-1.3,3.3c0,0.5,0,0.8-0.1,1C25.5,41.4,25.6,41.6,25.8,41.8z"/>
	<path id="XMLID_72_" class="st0" d="M47.4,55.9c-0.4-0.3-0.6-0.6-0.8-0.9c-0.1-0.3-0.2-0.8,0-1.7c0.1-1.2,0.3-2.2,0.5-3.1
		c0.2-0.9,0.5-1.9,0.7-3.1c0.1-0.5,0.3-1.3,0.7-2.5c0.4-1.2,0.9-2.5,1.5-3.9c0.6-1.4,1.2-2.7,1.7-4c0.6-1.3,1.1-2.2,1.5-2.8
		c0.3-0.2,0.7-0.4,1.2-0.3c0.5,0,0.9,0.2,1.2,0.6c0.5,0.4,0.5,1,0.2,2c-0.3,0.9-0.9,2.4-1.9,4.4c-0.5,1.1-0.9,1.9-1.1,2.5
		c-0.2,0.6-0.4,0.9-0.3,1c0,0.1,0.2,0.1,0.6-0.2c0.2-0.5,0.7-1,1.4-1.6c0.7-0.6,1.4-1.2,2.1-1.8s1.4-1.1,2.1-1.5
		c0.7-0.5,1.1-0.7,1.4-0.9c0.3-0.2,0.7-0.4,1.1-0.5c0.4-0.1,0.7-0.3,0.9-0.3c0.9-0.5,1.9-0.6,2.9-0.5c1,0.1,1.6,0.5,1.9,1.1
		c0,0.3,0.3,0.7,0.7,1c0.2,0,0.3,0.1,0.3,0.4c0,0.3-0.2,0.5-0.6,0.5c-0.4,0.1-1,0.1-1.6,0.2c-0.5,0-1,0.1-1.4,0.3
		c-0.4,0.2-0.9,0.4-1.5,0.6c-1.6,0.9-3.1,1.8-4.5,2.7c-1.4,0.9-2.8,2-4.1,3.5c-0.3,0.3-0.6,0.7-0.9,1.2c-0.3,0.5-0.6,0.9-0.9,1.5
		c-0.2,0.2-0.4,0.7-0.6,1.4c-0.2,0.7-0.4,1.4-0.5,2c-0.1,0.6-0.2,1-0.2,1.1c-0.2,0.8-0.5,1.4-0.8,1.7c-0.5,0.7-0.9,1-1.2,1
		C48.5,56.9,48,56.5,47.4,55.9z"/>
	<path id="XMLID_69_" class="st0" d="M68.6,55.8c-0.2-0.3-0.4-0.6-0.6-0.8s-0.4-0.4-0.4-0.5s0-0.3,0-0.5c0-0.2-0.1-0.4-0.3-0.5
		c-0.2-0.2-0.2-0.8,0.1-1.7c0.2-0.9,0.7-2,1.2-3.3c0.6-1.3,1.3-2.7,2-4.1c0.3-0.3,0.7-0.8,1-1.3c0.3-0.5,0.6-0.9,0.7-1.1
		c0-0.2,0.1-0.3,0.2-0.5c0.1-0.1,0.3-0.2,0.4-0.2V41c0-0.2,0.2-0.6,0.6-1.1c0.4-0.5,0.9-1,1.5-1.6c0.6-0.6,1.2-1.2,1.8-1.7
		c0.6-0.6,1.1-1,1.5-1.2c0.9-0.6,1.8-0.9,2.7-1.1c0.9-0.1,1.7,0.1,2.4,0.6c0.1,0.1,0.3,0.3,0.6,0.6c0.3,0.3,0.6,0.6,1,1
		c0.4,0.4,0.8,0.7,1.2,1.1l2.3,2l-1.1,3.1c-0.5,1.7-0.7,3.1-0.4,4.3c0.3,1.2,0.7,2.3,1.2,3.2c0.2,0.5,0.6,0.9,1.3,1.3
		c0.6,0.4,1.2,0.7,1.8,0.7c0.3,0,0.6,0.2,0.9,0.4c0.3,0.2,0.4,0.5,0.4,1c0,0.4-0.1,0.7-0.2,1c-0.2,0.2-0.5,0.4-0.9,0.5
		c-1.4,0.2-2.6-0.2-3.8-1c-1.2-0.8-2.3-2.2-3.2-4.1c-0.2-0.2-0.4-0.7-0.6-1.4c-0.3-0.7-0.4-1.1-0.5-1.3c-0.2,0.2-0.5,0.6-0.9,1.1
		c-0.5,0.6-0.8,1-1.1,1.2c-2.9,3-5.5,5-7.6,6C71.7,56.7,70,56.7,68.6,55.8z M72.1,52.3C73,52,74,51.4,75,50.6c1.4-1.2,2.8-2.5,4.2-4
		c1.4-1.4,2.6-2.8,3.4-4l1.4-2.2c-0.4-0.9-0.9-1.6-1.3-2c-0.5-0.3-0.9-0.5-1.2-0.5c-0.5,0-1.3,0.5-2.4,1.5c-1.1,1-2.2,2.3-3.4,4
		c-1.2,1.7-2.3,3.5-3.4,5.4c-0.4,0.8-0.9,2-1.5,3.5C70.8,52.6,71.3,52.6,72.1,52.3z"/>
	<path id="XMLID_67_" class="st0" d="M102.9,57.9c-0.6-0.2-1.1-0.4-1.4-0.6c-0.4-0.2-0.9-0.6-1.5-1.1c-0.5-0.7-0.9-1.3-1.1-1.9
		c-0.3-0.6-0.4-1.2-0.5-2c-0.1-0.8-0.1-1.7-0.1-2.9c0-0.5,0.1-1.2,0.3-2.2c0.2-1,0.4-2,0.7-3.1c0.3-1.1,0.5-2.1,0.7-2.9
		c0.2-0.9,0.4-1.4,0.4-1.7c0.1-0.5-0.1-0.8-0.6-0.9c-0.5-0.1-1.1-0.1-1.8-0.1c-0.6,0-1.1,0-1.3-0.2c-0.2,0-0.2-0.2-0.2-0.4
		c0-0.2,0-0.3,0-0.3c0-0.1-0.1-0.2-0.2-0.4c-0.1-0.2,0-0.4,0.2-0.7s0.5-0.5,1-0.6c0.4-0.1,0.9-0.2,1.5-0.2c0.6-0.1,1.3-0.2,1.9-0.4
		c0.7-0.2,1.2-0.6,1.6-1.1c0.4-0.9,0.8-1.9,1.3-3s1-2.1,1.5-3c0.5-0.9,0.8-1.4,1-1.6c0.7-0.4,1.2-0.5,1.5-0.5
		c0.3,0.1,0.7,0.4,1.1,1.1c0.2,0.3,0.4,0.5,0.5,0.7c0.1,0.2,0.1,0.4,0,0.7c-0.1,0.3-0.3,0.8-0.6,1.5c-0.4,0.7-0.9,1.7-1.6,3
		c-0.2,0.4-0.5,0.9-0.8,1.5c0.2,0,0.4,0.1,0.7,0.1c0.3,0,0.7,0,1.2-0.1c0.5-0.1,1-0.2,1.7-0.2c0.7-0.1,1.3-0.1,1.7,0
		c0.9,0,1.6,0.2,2.1,0.5c0.5,0.4,0.7,0.9,0.7,1.8c0.1,0.5,0,0.7-0.3,0.8c-0.3,0.1-1,0.1-2.1,0.1c-0.4,0-0.9,0-1.7,0.1
		c-0.8,0-1.6,0.1-2.4,0.1c-0.8,0-1.6,0.1-2.2,0.2c-0.6,0.1-0.9,0.1-0.9,0.2c-0.1,0.1-0.3,0.5-0.6,1.2c-0.3,0.7-0.5,1.5-0.8,2.4
		c-0.3,0.9-0.5,1.7-0.7,2.4c-0.3,1.4-0.5,2.8-0.6,4.2c-0.1,1.4-0.2,2.6-0.1,3.7c0.1,1,0.3,1.8,0.7,2.2c0.4,0.4,1.1,0.4,2.2,0.2
		c1.1-0.2,1.9-0.6,2.6-1.1c0.7-0.6,1.4-0.9,1.8-0.9c0.5,0,0.7,0.2,0.8,0.6c0.1,0.4-0.2,1-0.7,1.8c-0.5,0.7-1.1,1.4-1.9,1.9
		c-0.7,0.6-1.5,1-2.3,1.2C104.4,58.1,103.6,58.1,102.9,57.9z"/>
	<path id="XMLID_64_" class="st0" d="M118.8,56.1c-0.6-0.1-1.1-0.5-1.6-1.3c-0.4-0.8-0.7-1.5-0.8-2.2c0-0.3,0.1-0.8,0.2-1.4
		s0.1-1.3,0.2-1.9c0.2-0.8,0.4-1.7,0.7-2.9c0.3-1.1,0.6-2.3,0.9-3.4c0.3-1.2,0.6-2.1,0.8-3c0.2-0.8,0.4-1.3,0.5-1.5
		c0.2-0.3,0.5-0.4,1-0.2c0.5,0.2,0.8,0.4,1.1,0.7c0.2,0.3,0.4,0.7,0.5,1.2c0.1,0.5,0,1.1-0.2,2c-0.2,0.9-0.5,2.1-1,3.8
		c-0.5,1.7-0.8,3-1,4c-0.2,1-0.3,2.1-0.3,3.2c-0.2,1.4-0.3,2.3-0.4,2.6C119.3,56,119.1,56.2,118.8,56.1z M125.9,31.4
		c-0.2,0.1-0.3,0.2-0.5,0.2c-0.1,0-0.4-0.1-0.7-0.3c-0.3,0-0.6-0.2-1.1-0.6c-0.4-0.3-0.8-0.7-1.1-1.1c-0.3-0.4-0.5-0.6-0.5-0.7
		c0-0.4,0-0.9,0.1-1.6c0.1-0.6,0.3-1.2,0.6-1.7c0.3-0.5,0.8-0.8,1.4-0.8c0.2,0,0.3,0,0.4,0.1c0.1,0,0.5,0.2,1.1,0.4
		c0.3,0.6,0.7,1.3,1,2.1c0.3,0.8,0.5,1.5,0.4,2.2C127.1,30.2,126.7,30.9,125.9,31.4z"/>
	<path id="XMLID_61_" class="st0" d="M130.3,54.9c0-0.3,0-0.6-0.1-0.9c-0.1-0.3,0-0.5,0.1-0.7l0.5,0.1c-0.2,0-0.4,0.1-0.7,0
		c-0.3,0-0.6-0.1-0.9-0.2c-0.3-0.1-0.4-0.2-0.5-0.3c0-0.7,0.1-1.2,0.2-1.6c0.1-0.4,0.2-0.7,0.3-0.9c0-0.4,0.1-0.8,0.4-1.4
		c0.2-0.6,0.5-1.2,0.6-1.8c0.2-0.7,0.4-1.8,0.6-3.2c0.3-1.4,0.7-2.7,1.2-4c0.3-1.1,0.7-2.4,1.2-4.1c0.5-1.6,1-3,1.4-4.1
		c0.5-1.9,1-3.4,1.4-4.6c0.4-1.2,0.9-2.2,1.4-3.2c0.5-1,1-2.1,1.6-3.3c0.2-0.3,0.3-0.8,0.5-1.3c0.2-0.5,0.3-1,0.4-1.3
		c0.1-0.3,0.4-0.6,1-0.7c0.6-0.1,1.1,0,1.6,0.5c0.5,0.5,0.7,0.8,0.7,1.2c0,0.3-0.1,0.9-0.4,1.6c-0.3,0.8-0.8,2-1.5,3.7
		c-0.3,0.4-0.6,1.1-1,2.1c-0.4,1-0.7,1.8-1,2.6c-0.6,1.4-1.1,2.7-1.5,3.7c-0.4,1-0.7,2.1-1.1,3.2c-0.3,1.2-0.6,2.5-1,3.9
		c-0.4,1.4-0.8,2.8-1.2,4.1l-1,0.3c0.3-0.4,0.6-0.8,1.1-1.3s0.8-0.9,1.2-1.4c0.4-0.4,0.6-0.7,0.8-0.8c1.1-0.9,2.4-1.8,3.7-2.6
		c1.4-0.8,2.7-1.4,3.9-1.8c1.2-0.4,2.1-0.5,2.8-0.2c0.5,0.2,1.1,0.6,1.9,1.3c0.7,0.7,1.2,1.4,1.3,2c0.3,0.7,0.4,1.4,0.2,2.3
		c-0.2,0.9-0.7,2.1-1.5,3.5c-0.7,1.3-1.5,2.5-2.4,3.7c-0.9,1.2-1.8,2.2-2.6,2.9c-0.3,0.2-0.6,0.4-1.1,0.8c-0.4,0.4-0.8,0.8-1.1,1.1
		c-0.9,0.8-1.9,1.4-3.1,1.9c-1.2,0.5-2.3,0.7-3.5,0.8c-1.2,0.1-2.2,0-3-0.3C131.2,56,130.6,55.6,130.3,54.9z M131.3,53.2
		c0.2,0,0.4,0.1,0.6,0.1c0.2,0,0.4,0,0.7,0c0.9-0.1,1.7-0.3,2.3-0.4c0.6-0.1,1.3-0.3,1.9-0.6c0.6-0.3,1.3-0.6,2-1.1
		c1.1-0.8,2.1-1.6,2.9-2.4c0.9-0.8,1.7-1.7,2.5-2.7c0.7-0.9,1.3-2,1.9-3.2c0.6-1.2,0.8-2.2,0.8-2.9c0-0.4-0.1-0.6-0.3-0.6
		c-0.1,0-0.5,0.1-1.1,0.3c-0.7,0.2-1.3,0.5-2,0.8c-0.7,0.3-1.1,0.6-1.3,0.8c0,0.2-0.2,0.4-0.7,0.6c-1.3,0.9-2.3,1.8-3,2.4
		s-1.4,1.3-1.9,2c-0.3,0.4-0.5,0.8-0.7,1c-0.2,0.3-0.4,0.5-0.6,0.8c-0.2,0.3-0.4,0.7-0.7,1.1c-0.3,0.5-0.7,1.1-1.2,1.9
		c-0.3,0.5-0.6,1.1-1.1,1.5c-0.4,0.5-0.8,0.8-1,0.9V53.2z"/>
	<path id="XMLID_59_" class="st0" d="M156.4,54.7c-0.3,0-0.6,0-0.9,0c-0.3-0.1-0.6-0.2-0.9-0.4c-0.3-0.3-0.6-0.6-0.7-0.8
		c-0.1-0.2-0.2-0.5-0.1-0.9c0.1-0.4,0.2-1.1,0.4-1.9c0.2-0.7,0.5-1.6,0.7-2.8c0.3-1.2,0.6-2.3,0.9-3.5c0.1-0.7,0.3-1.3,0.5-2
		c0.2-0.7,0.5-1.4,0.7-1.9s0.4-1.1,0.6-1.4c0.3-1.2,0.6-2.2,1-3c0.3-0.9,0.7-1.9,1.1-3c0.5-1.1,1-2.7,1.7-4.5
		c0.9-2.5,1.6-4.4,2.1-5.7c0.5-1.3,0.8-2.2,1.1-2.8c0.2-0.6,0.4-1.1,0.5-1.4c0-0.3,0.1-0.6,0.3-0.7s0.4-0.2,0.7-0.2
		c0.6,0,1,0.3,1.4,0.8c0.3,0.6,0.6,1.2,0.6,2c0.1,0.8,0,1.5-0.4,2.1c-0.7,1.5-1.4,3.2-2.1,5.3c-0.7,2-1.5,4-2.2,6
		c-0.7,2-1.4,3.6-2,5c0,0.2-0.1,0.5-0.2,0.9c-0.1,0.4-0.3,0.8-0.4,1.1c-0.2,0.3-0.4,0.8-0.7,1.4c0,0.2-0.1,0.5-0.2,0.9
		c-0.1,0.5-0.3,1-0.5,1.7c-0.2,0.5-0.4,1.1-0.6,1.9c-0.2,0.8-0.4,1.4-0.5,2c0.2-0.4,0.6-0.9,1.3-1.7c0.7-0.7,1.3-1.4,1.9-1.9
		c0.7-0.6,1.4-1.2,2.2-1.9c0.8-0.7,1.5-1.2,2-1.5c0.5-0.3,1.1-0.8,1.9-1.3c0-0.2,0.1-0.3,0.2-0.3c0.1,0,0.3,0,0.5,0
		c0.2,0,0.3,0,0.3-0.1c0,0,0-0.1,0-0.3c0-0.2,0.2-0.4,0.7-0.6c0.5-0.2,1-0.3,1.7-0.4c0.6-0.1,1.2-0.2,1.6-0.2c0.5,0,0.9,0.1,1.2,0.3
		c0.3,0.2,0.7,0.7,1.1,1.4c0.5,0.7,0.8,1.5,1,2.4c0.1,0.9,0.1,1.9-0.3,2.9c0,0.3-0.1,0.8-0.2,1.4c-0.1,0.6-0.2,1.2-0.2,1.9l-0.4,2h1
		c0.3,0,0.8,0.1,1.4,0.3c0.2,0.2,0.3,0.3,0.5,0.5c0.2,0.1,0.3,0.2,0.5,0.2c0.5,0,0.7,0.2,0.6,0.6c-0.1,0.4-0.4,0.8-0.9,1.1
		c-1,0.7-1.9,1-2.7,1c-0.8,0-1.5-0.3-2.2-1c-0.7-0.7-1.1-1.5-1.2-2.4c-0.2-0.9-0.1-2,0.2-3.3c0.2-1.8,0.3-3.1,0.3-4
		c0-0.8-0.2-1.3-0.6-1.3c-0.4,0-1.1,0.3-2.2,0.8c-1,0.6-2.2,1.3-3.5,2.3c-1.3,0.9-2.5,2-3.8,3.2c-1.2,1.2-2.3,2.4-3.1,3.6
		c-0.5,0.6-1,1.2-1.4,1.6C157.3,54.4,156.9,54.7,156.4,54.7z"/>
	<path id="XMLID_56_" class="st0" d="M186.7,56c-0.5,0.1-1,0-1.6-0.2c-0.6-0.2-1.1-0.6-1.5-1.1s-0.7-0.9-0.8-1.4
		c-0.2-0.9-0.1-1.9,0.3-3.2c0.4-1.3,1-2.7,1.7-4.1c0.8-1.5,1.6-2.9,2.6-4.2c1-1.4,2-2.5,3-3.6c1.1-1,2-1.7,2.9-2.1
		c0.5-0.3,0.8-0.5,1.1-0.6c0.3-0.1,0.6-0.1,0.9,0c0.3,0.1,0.8,0.3,1.4,0.6c0.6,0.2,1,0.4,1.3,0.6c0.3,0.2,0.7,0.6,1.1,1.2
		c0.3,0.6,0.6,1.2,0.7,1.9c0.2,0.6,0.3,1.3,0.4,2.1c0.3,1,0.5,1.7,0.4,2c-0.1,0.3-0.2,0.5-0.4,0.7c-0.3,0.4-0.4,0.6-0.2,0.6
		c0,0.3-0.1,0.6-0.3,0.9c-0.3,0.9-0.5,1.8-0.6,2.8c-0.1,1-0.1,1.8,0,2.4c0.3,0.9,0.9,1.4,1.8,1.6c0.9,0.2,1.8-0.2,2.7-1.1
		c0.5-0.3,0.9-0.6,1.3-0.9c0.4-0.3,0.6-0.2,0.6,0.1c0.2,0.2,0.5,0.3,0.6,0.3c0.2,0,0.3,0.1,0.4,0.2s0.1,0.4,0,0.6
		c-0.1,0.3-0.2,0.6-0.4,0.9c-0.6,0.6-0.9,1-0.9,1.2c-0.3,0.3-0.6,0.6-0.9,0.9c-0.7,0.5-1.7,0.7-2.8,0.7c-1.1,0-2-0.2-2.6-0.7
		c-0.6-0.5-1.2-1.1-1.7-1.9c-0.5-0.8-0.9-1.5-1-2l-0.3-0.6l-1.8,1.2c-0.5,0.5-0.9,0.9-1.5,1.3c-0.5,0.4-0.9,0.7-1,0.9
		c-0.1,0.2-0.3,0.3-0.4,0.4c-0.1,0.1-0.3,0.2-0.5,0.2c-0.2,0-0.4,0-0.6,0c0,0.2-0.2,0.4-0.6,0.6c-0.4,0.2-0.8,0.5-1.4,0.6
		C187.6,55.9,187.1,56,186.7,56z M187.4,52.1c0.6-0.4,1.4-0.9,2.2-1.4c0.8-0.5,1.5-1.1,2.2-1.6c0.6-0.5,1.1-0.9,1.3-1.2
		c0.2-0.2,0.4-0.4,0.8-0.8c0.4-0.4,0.7-0.7,1-1c0.9-1.1,1.6-2.3,2-3.6c0.4-1.3,0.3-2.3-0.1-3.1c-0.2-0.5-0.4-0.7-0.6-0.7
		s-0.8,0.1-1.5,0.4c-0.5,0.3-1.1,0.8-1.8,1.6c-0.7,0.8-1.5,1.7-2.3,2.8c-0.8,1.1-1.6,2.1-2.3,3.2c-0.7,1.1-1.3,2.1-1.7,3.1
		c-0.5,0.9-0.7,1.7-0.7,2.2c0,0.2,0.1,0.4,0.3,0.6C186.4,52.7,186.8,52.5,187.4,52.1z"/>
	<path id="XMLID_53_" class="st0" d="M223.9,61c-0.5,0-0.9-0.3-1.2-0.8c-0.2-0.2-0.4-0.6-0.5-1c-0.1-0.4,0.1-1.2,0.4-2.4
		c0.3-1.1,0.9-2.9,1.7-5.2c0.4-1.6,0.7-2.7,1-3.4s0.4-1.2,0.4-1.6c0-0.5,0.1-0.8,0.2-1.1c0.1-0.3,0.2-0.6,0.2-0.9
		c0.2,0,0.5-0.2,0.7-0.7s0.5-1.1,0.6-1.9c0.2-0.7,0.3-1.3,0.5-1.7c0.1-0.4,0.2-0.7,0.2-0.9c0.2-0.3,0.4-0.8,0.6-1.5
		c0.2-0.7,0.6-1.5,1.1-2.5c0.3-1.2,0.7-2.5,1.1-3.9c0.4-1.3,0.8-2.6,1.3-3.8c0.4-1.2,0.8-2.1,1.1-2.8c0.5-1.3,0.8-2.2,1.1-2.7
		c0.2-0.5,0.2-0.9,0-1c-0.3-0.2-0.4-0.6-0.2-1.1c0.2-0.5,0.6-1.1,1.4-1.7c0.5-0.5,0.8-0.9,1.2-1.1c0.3-0.2,0.8-0.3,1.3-0.3
		c0.5,0,1.3,0,2.3,0.1c0.7,0,1.5,0.1,2.4,0.1c0.8,0,1.4,0,1.6,0c0.4,0.2,0.8,0.3,1.4,0.5c0.5,0.2,1,0.4,1.5,0.5
		c0.4,0.2,0.6,0.3,0.6,0.4c0,0.2,0.1,0.4,0.3,0.5c0.2,0.1,0.4,0.1,0.6,0.2c0.3,0,0.7,0.2,1.2,0.6s1,1,1.5,1.6c0.5,0.6,0.9,1.3,1.2,2
		c0.3,0.7,0.6,1.4,0.8,2c0.2,0.6,0.2,1.5,0,2.7c0,0.6-0.1,1.2-0.3,1.9c-0.1,0.6-0.3,1-0.5,1.2c-0.2,0.2-0.5,0.4-0.7,0.6
		c-0.2,0.2-0.3,0.5-0.3,0.7c0,0.2-0.1,0.5-0.4,1c-0.3,0.5-0.7,1-1.1,1.6c-0.5,0.6-0.9,1.2-1.5,1.9c-0.5,0.6-1.1,1.2-1.5,1.6
		c-0.5,0.7-1.2,1.3-1.9,1.9c-0.7,0.6-1.4,1.1-1.9,1.4c-1.1,0.5-2.3,1-3.6,1.5s-2.5,0.9-3.7,1.2s-2.2,0.5-2.9,0.4
		c-1.2,0.2-2,0.3-2.3,0.5c-0.4,0.1-0.6,0.5-0.8,1.1c-0.2,0.5-0.4,1.1-0.6,1.6c-0.2,0.6-0.3,0.9-0.3,1.1c-0.1,0.2-0.3,0.7-0.6,1.5
		c-0.3,0.8-0.6,1.8-1,2.9c-0.4,1.1-0.7,2.2-1,3.3c-0.3,1.1-0.6,2-0.7,2.7c-0.2,0.6-0.4,0.9-0.6,1C224.5,61,224.2,61,223.9,61z
		 M231.5,41.8c0.2,0.2,0.8,0.2,1.9,0.1c1.1-0.1,2.3-0.4,3.6-0.9c0.8-0.3,1.7-0.6,2.5-1.1c0.8-0.4,1.7-0.9,2.4-1.4
		c0.4-0.3,1-0.8,1.9-1.5c0.8-0.7,1.6-1.6,2.5-2.7c0.1-0.2,0.3-0.6,0.6-1.2c0.3-0.6,0.6-1.2,0.8-1.7c0.4-0.6,0.7-1.4,1.1-2.6
		c0.4-1.1,0.5-2.1,0.2-2.8c-0.2-1.1-0.7-2.1-1.6-3c-0.9-0.9-1.9-1.6-3.1-1.9c-0.9-0.2-1.7-0.2-2.3-0.2c-0.6,0-1.2,0.1-1.9,0.2
		c-0.7,0.2-1.1,0.5-1.5,0.9c-0.3,0.4-0.7,1.2-1.2,2.4c-0.3,0.6-0.7,1.5-1.2,2.6c-0.5,1.2-1,2.3-1.4,3.3c-0.7,2.7-1.5,5-2.2,6.7
		c-0.7,1.8-1.2,2.9-1.3,3.3c0,0.5,0,0.8-0.1,1C231.3,41.4,231.4,41.6,231.5,41.8z"/>
	<path id="XMLID_50_" class="st0" d="M254.4,57.1c-0.5,0-1-0.1-1.3-0.3c-0.3-0.2-0.7-0.5-1.1-0.9c-0.8-0.8-1.3-1.6-1.7-2.4
		c-0.3-0.8-0.4-1.5-0.3-2.2c0.1-0.3,0.2-0.8,0.1-1.4c-0.2-0.2-0.3-0.3-0.2-0.4c0.1-0.1,0.2-0.2,0.2-0.3c0.2,0,0.3-0.2,0.2-0.7
		c-0.1-0.3,0.1-1.1,0.5-2.2c0.4-1.1,0.9-2.2,1.5-3.2c0.2-0.4,0.6-1,1.1-1.6s1-1.4,1.6-2c0.6-0.7,1.1-1.2,1.6-1.6
		c1-0.9,1.9-1.5,2.7-1.9c0.8-0.4,1.6-0.7,2.5-0.9c0.9-0.2,1.5-0.3,1.9-0.3c0.4,0,0.8,0.3,1.5,1c0.9,0.4,1.6,0.9,2.1,1.5
		c0.4,0.6,0.7,1.4,0.8,2.5c0.1,1.2,0,2.7-0.3,4.2c-0.3,1.6-1.3,3.6-2.9,5.9c-1,1.5-2,2.6-2.8,3.3c-0.9,0.7-1.9,1.4-3.1,2.1
		c-0.9,0.6-1.7,1-2.4,1.3C256.1,56.9,255.3,57,254.4,57.1z M260.3,50.6c1-1.1,1.8-2.2,2.4-3.2c0.6-1,1.2-2.2,1.7-3.8
		c0.2-0.5,0.3-1,0.3-1.7c0-0.7,0-1.3,0-1.9c-0.1-0.6-0.2-0.9-0.5-1c-0.5-0.3-1.1-0.4-1.8-0.3c-0.7,0.1-1.5,0.5-2.3,1.2
		c-1.3,1.1-2.4,2.4-3.3,4c-0.9,1.6-1.9,3.4-2.8,5.4c-0.6,1.5-0.8,2.7-0.4,3.6c0.4,0.9,1.1,1.2,2.3,0.9
		C257.1,53.5,258.5,52.5,260.3,50.6z"/>
	<path id="XMLID_48_" class="st0" d="M277.8,57.5c-1,0.1-2,0-2.9-0.2c-0.9-0.2-1.7-0.6-2.4-1.1c-0.6-0.5-1.1-1.1-1.3-1.9
		c-0.3-0.6-0.4-1-0.4-1.2s0.1-0.4,0.4-0.6c0.3,0,0.6,0.1,0.9,0.3c0.3,0.2,0.6,0.4,1.1,0.6c0.6,0.5,1.4,0.8,2.3,0.9
		c0.9,0,1.7-0.1,2.4-0.4c0.7-0.3,1.2-0.7,1.2-1.2c0-0.2-0.1-0.5-0.2-0.9c-0.1-0.4-0.3-0.8-0.4-1.3c-1.1-1.6-1.9-3.1-2.4-4.7
		c-0.5-1.5-0.8-2.8-0.8-3.8c0-0.7,0.2-1.5,0.7-2.4c0.5-0.8,1.1-1.6,1.9-2.1c0.7-0.8,1.6-1.5,2.5-2.1c0.9-0.6,1.8-1.2,2.8-1.6
		c0.9-0.5,1.8-0.8,2.5-1c0.5,0,1.1,0.1,1.8,0.2c0.7,0.1,1.3,0.3,1.5,0.4c0.5,0.2,0.9,0.6,1.3,1.3c0.4,0.7,0.6,1.4,0.6,2.1
		c0,0.3-0.1,0.7-0.2,1.1c-0.2,0.5-0.4,1-0.8,1.6c-0.2,0.5-0.4,0.9-0.6,1.3c-0.2,0.4-0.3,0.7-0.3,0.8c-0.2,0.5-0.5,0.7-0.8,0.7
		c-0.4,0-0.7-0.2-1.1-0.6c-0.4-0.3-0.6-0.8-0.8-1.3c-0.2-0.6-0.2-1.1-0.2-1.5c0-0.4,0.2-0.8,0.5-1.3c0.5-0.5,0.7-0.8,0.7-0.9
		s-0.2-0.2-0.7-0.2c-0.3,0-0.8,0.2-1.6,0.5c-0.8,0.4-1.6,0.8-2.4,1.4c-0.8,0.6-1.6,1.1-2.2,1.8c-0.8,0.7-1.2,1.3-1.4,1.6
		c-0.1,0.3-0.2,0.8-0.2,1.5c0,0.6,0.1,1.3,0.4,2.2c0.3,0.9,0.5,1.4,0.8,1.7c0.6,1.1,1.1,2,1.5,2.6c1.2,2.6,1.5,4.5,0.9,5.7
		C281.8,56.7,280.3,57.3,277.8,57.5z"/>
	<path id="XMLID_46_" class="st0" d="M314.6,56.7c-0.8,0.2-1.4,0.3-1.7,0.2c-0.4-0.1-0.9-0.4-1.5-1c-0.4-0.6-0.7-1.1-1-1.5
		c-0.3-0.5-0.5-1.3-0.6-2.4c0-0.8,0-1.6,0.2-2.6c0.1-0.9,0.2-1.6,0.2-2c0.3-1.5,0.5-2.8,0.4-3.7c-0.1-0.9-0.2-1.4-0.4-1.4
		c-0.5-0.1-1.3,0.4-2.4,1.3s-2.5,2.2-4,3.8c-1.5,1.5-3,3.2-4.5,4.9c-0.8,1.1-1.3,1.9-1.7,2.4c-0.3,0.5-0.6,0.8-0.7,0.8
		c-0.3,0-0.7-0.1-1.2-0.3c-0.5-0.2-0.9-0.5-1.3-0.8c-0.4-0.3-0.6-0.6-0.6-0.8c0-0.2,0.1-0.6,0.3-1.3c0.2-0.7,0.5-1.6,0.8-2.5
		s0.6-1.8,0.8-2.7s0.4-1.4,0.6-1.7c0.4-1.1,0.8-2.4,1.3-3.9c0.5-1.5,1-2.9,1.4-4.1c0.2-0.5,0.5-1.3,0.9-2.3c0.4-1,0.8-2,1.2-3.1
		c0.4-1,0.7-1.8,0.9-2.3c0.1-0.3,0.4-0.9,0.7-1.8c0.3-0.8,0.7-1.8,1.1-2.8c0.4-1,0.8-2,1.1-2.9c0.4-0.9,0.6-1.5,0.7-2
		c0-0.4,0-0.7,0.1-1c0.1-0.3,0.2-0.5,0.3-0.7c0.2,0,0.5,0,0.9-0.1c0-0.1,0.2,0,0.5,0.2c0.3,0.2,0.6,0.5,1,0.9
		c0.3,0.4,0.5,0.6,0.5,0.9c0.2,0.5,0.2,1.2,0.1,2.1c-0.2,0.8-0.6,2.1-1.3,3.8c-0.5,0.7-0.9,1.7-1.3,3c-0.4,1.3-0.9,2.4-1.3,3.3
		c-0.2,0.3-0.5,0.9-0.9,1.9c-0.4,1-0.9,2.1-1.5,3.3c-0.6,1.3-1.1,2.6-1.6,3.9s-0.9,2.5-1.2,3.5c-0.4,1-0.6,1.7-0.4,2
		c0.1,0.3,0.6,0,1.5-1.1c1.2-1.2,2.4-2.5,3.7-3.8c1.3-1.3,2.5-2.4,3.6-3.3c1.1-0.9,2.1-1.3,2.8-1.2c0.4,0.1,0.8,0.3,1.2,0.7
		c0.4,0.4,0.9,0.9,1.3,1.4c0.4,0.5,0.7,1.1,0.9,1.5c0.2,0.6,0.3,1.2,0.3,1.6c0.1,0.5,0.1,1.1,0,2c0,0.9-0.1,2.3-0.3,4.2
		c-0.2,1.4-0.4,2.4-0.5,3c-0.1,0.6-0.1,1,0.1,1.3c0.1,0.2,0.4,0.5,0.7,0.8c0.6,0.5,0.9,0.9,1,1.3C315.4,56,315.2,56.4,314.6,56.7z"
		/>
	<path id="XMLID_43_" class="st0" d="M326.4,56.3c-0.3,0.1-0.8,0.1-1.3,0.1c-0.5,0-1-0.1-1.4-0.2c-0.4-0.1-0.6-0.2-0.6-0.3
		c0-0.2-0.1-0.3-0.3-0.3c-0.4-0.3-0.7-0.6-1.1-0.7c-0.4-0.6-0.6-1.2-0.6-1.9s0.2-1.8,0.6-3.2c0.1-1,0.5-2.2,1.2-3.6
		c0.7-1.4,1.5-2.8,2.5-4.2c1-1.4,2-2.7,3.1-3.9c1.1-1.2,2.1-2,3-2.5c0.6-0.6,1.3-0.9,2.1-0.9c0.8,0,1.6,0.1,2.4,0.6
		c0.4,0.2,0.8,0.5,1.2,1c0.4,0.5,0.8,0.9,1.2,1.5c0.4,0.5,0.7,1.1,0.9,1.6c0.1,0.5,0.2,0.9,0.2,1.2c0,0.4,0,0.8,0,1.3
		c0,0.5-0.1,1.2-0.2,2.2c-0.2,0.7-0.4,1.7-0.5,2.7c-0.1,1.1-0.2,2-0.2,2.8c-0.1,0.8,0,1.3,0.3,1.7c0.3,0.3,0.7,0.4,1.2,0.1
		c0.5-0.2,1-0.4,1.4-0.3c0.5,0,0.8,0.2,1.1,0.4c0.3,0.2,0.4,0.6,0.4,1.1s-0.2,1-0.7,1.5c-0.5,0.5-1.1,0.9-1.7,1.3s-1.3,0.5-1.9,0.5
		c-0.5,0-0.9-0.3-1.3-0.8c-0.4-0.6-0.8-1.2-1.1-2c-0.3-0.8-0.6-1.6-0.8-2.3l-0.4-1.4l-2.7,2.5c-0.5,0.6-1.1,1.1-1.6,1.6
		c-0.5,0.5-0.8,0.8-1,1c-0.2,0.4-0.6,0.7-1.1,1.1C328.1,55.5,327.4,55.9,326.4,56.3z M326.6,52.6c0.7-0.4,1.5-1,2.4-1.8
		c0.9-0.8,1.8-1.7,2.7-2.7c0.9-1,1.6-1.9,2.2-2.7c0.7-0.9,1.2-1.8,1.6-2.7c0.4-0.8,0.6-1.6,0.8-2.4c-0.2-0.5-0.4-0.9-0.8-1.5
		c-0.4-0.5-0.7-0.8-1-0.8c-0.9,0-1.9,0.6-2.9,1.7c-1,1.1-2,2.4-2.9,3.7c-0.2,0.2-0.4,0.5-0.7,1c-0.3,0.5-0.6,0.9-0.8,1.3
		c-0.3,0.4-0.4,0.6-0.5,0.8c-0.1,0.2-0.4,0.6-0.7,1.4c-0.4,0.8-0.7,1.5-1,2.3c-0.3,0.8-0.5,1.3-0.5,1.5c0,0.2,0,0.5,0.1,0.8
		c0.1,0.3,0.3,0.5,0.6,0.6C325.4,53.2,325.9,53,326.6,52.6z"/>
	<path id="XMLID_41_" class="st0" d="M346.7,57.7c-0.3-0.1-0.7-0.4-1.1-0.8c-0.4-0.4-0.7-0.9-0.9-1.4c-0.2-0.5-0.4-1-0.4-1.5
		c0.2-0.5,0.5-1.2,0.8-2.4c0.3-1.1,0.7-2.4,1.2-3.9c0.3-0.5,0.6-1,0.8-1.6s0.4-1.2,0.5-1.7c0.3-0.7,0.7-1.5,1.2-2.6
		c0.5-1.1,0.9-2.1,1.3-3.2c0.4-1.1,0.8-2,1.1-2.8c0.5-1.1,1-2.1,1.4-3.1c0.4-0.9,0.8-1.9,1.2-2.8c0.4-0.9,0.8-2,1.3-3.1
		c0.5-1.2,1-2.3,1.5-3.5c0.5-1.2,1-2.3,1.4-3.2c0.4-1,0.6-1.7,0.7-2.1c0-0.3,0.1-0.6,0.2-0.7c0.1-0.2,0.3-0.2,0.5-0.2
		c0.2-0.2,0.3-0.3,0.5-0.3c0.2,0,0.3,0,0.5,0c0.2,0,0.5,0.3,1,0.9c0.5,0.6,0.7,1.2,0.7,1.7c0,0.7-0.3,1.9-1,3.7
		c-0.6,1.8-1.5,3.9-2.7,6.2c-1.4,3.1-2.5,5.6-3.4,7.5c-0.9,2-1.5,3.4-1.8,4.4c-0.3,1-0.5,1.5-0.4,1.6c1.2-0.5,2.1-1.1,2.7-1.5
		c0.5-0.2,0.9-0.6,1.5-0.9c0.5-0.4,1.1-0.7,1.5-1.1s0.9-0.6,1.2-0.7c0.5-0.3,1-0.6,1.5-1c0.5-0.3,0.9-0.5,1.1-0.7
		c0.7-0.3,1.2-0.4,1.6-0.3c0.4,0.1,0.7,0.4,1.1,0.9c0.5,0.5,0.5,1,0.2,1.4c-0.3,0.4-1,0.9-2,1.6c-0.9,0.5-1.9,1.2-3.1,1.9
		c-1.2,0.7-2.3,1.4-3.2,2c-0.9,0.6-1.5,0.9-1.6,1.1c0.7,1.2,1.2,2.1,1.5,2.6c0.3,0.7,0.7,1.3,1.1,1.8c0.4,0.6,0.6,0.9,0.6,1.1
		c0.5,1.3,1.1,2.2,2,2.8c0.9,0.6,1.9,0.6,2.8,0.2c0.8-0.3,1.4-0.4,1.8-0.3c0.4,0.1,0.7,0.4,0.8,0.9c0.2,0.3,0.2,0.6,0.2,0.7
		c-0.1,0.1-0.3,0.5-0.8,1c-0.8,0.8-1.6,1.3-2.4,1.5s-1.5,0.1-2.2-0.2c-0.6,0-1.4-0.4-2.3-1.2c-0.9-0.8-2.2-2.4-3.9-4.5
		c0-0.2-0.1-0.4-0.2-0.7c-0.1-0.3-0.3-0.6-0.5-0.9c-0.2-0.3-0.5-0.9-1-1.7c0-0.2-0.1-0.4-0.2-0.6c-0.1-0.2-0.3-0.5-0.5-0.7
		c-0.7-0.2-1.1-0.1-1.4,0.4c-0.3,0.5-0.6,0.9-0.9,1.4c-0.2,0.5-0.5,1.3-0.8,2.3c-0.3,1-0.6,1.9-0.7,2.8c-0.2,0.9-0.2,1.5-0.2,1.9
		c0,0.7-0.1,1.1-0.3,1.3C347.8,57.6,347.4,57.7,346.7,57.7z"/>
</g>
</svg>
