<?xml version="1.0" encoding="utf-8"?>
<!-- Generator: Adobe Illustrator 19.0.0, SVG Export Plug-In . SVG Version: 6.00 Build 0)  -->
<svg version="1.1" id="Layer_1" xmlns="http://www.w3.org/2000/svg" xmlns:xlink="http://www.w3.org/1999/xlink" x="0px" y="0px"
	 viewBox="0 0 184.1 200" style="enable-background:new 0 0 184.1 200;" xml:space="preserve">
<style type="text/css">
	.st0{fill:#0D0359;}
	.st1{fill:#0FE4BD;}
</style>
<g id="XMLID_1761_">
	<g id="XMLID_181_">
		<path id="XMLID_196_" class="st0" d="M32.4,126.2c-2.5,0-4.5-2-4.5-4.5V89.9c0-2.5,2-4.5,4.5-4.5c2.5,0,4.5,2,4.5,4.5v31.9
			C36.8,124.2,34.8,126.2,32.4,126.2"/>
		<path id="XMLID_193_" class="st0" d="M52.5,55.1c-11.9,0-21.6-9.7-21.6-21.6c0-11.9,9.7-21.6,21.6-21.6c11.9,0,21.6,9.7,21.6,21.6
			C74.1,45.4,64.4,55,52.5,55.1 M52.5,20.8c-7,0-12.7,5.7-12.7,12.7c0,7,5.7,12.7,12.7,12.7c7,0,12.7-5.7,12.7-12.7v0
			C65.2,26.5,59.5,20.8,52.5,20.8"/>
		<path id="XMLID_192_" class="st0" d="M123,88.5c-2.5,0-4.5-2-4.5-4.5c0-1.1,0.4-2.2,1.1-3l24.3-27.2c1.6-1.8,4.5-2,6.3-0.4
			c1.8,1.6,2,4.5,0.4,6.3L126.3,87C125.4,87.9,124.2,88.5,123,88.5"/>
		<g id="XMLID_190_">
			<path id="XMLID_191_" class="st1" d="M-309.3-131.2h-80.2c-2.5,0-4.5-2-4.5-4.5s2-4.5,4.5-4.5h80.2c2.5,0,4.5-2,4.5-4.5v-90.1
				c0-2.5-2-4.5-4.5-4.5H-397c-2.5,0-4.5-2-4.5-4.5c0-2.5,2-4.5,4.5-4.5h87.7c7.4,0,13.4,6,13.4,13.4v90.1
				C-295.9-137.2-301.9-131.2-309.3-131.2"/>
		</g>
		<path id="XMLID_189_" class="st0" d="M52.5,188.2H32.4c-2.5,0-4.5-2-4.5-4.5v-61.9c0-2.5,2-4.5,4.5-4.5c2.5,0,4.5,2,4.5,4.5v57.5
			h15.7c2.5,0,4.5,2,4.5,4.5S55,188.2,52.5,188.2"/>
		<path id="XMLID_188_" class="st0" d="M72.6,188.2H52.5c-2.5,0-4.5-2-4.5-4.5v-59.3c0-2.5,2-4.5,4.5-4.5c2.5,0,4.5,2,4.5,4.5v54.9
			h11.2V94.7c0-5.2,4.2-9.4,9.4-9.4c2.5,0,4.9,1,6.6,2.7l7,7c1,1.1,2.5,1.6,4,1.6h20.8c3.1,0,5.6-2.5,5.6-5.6c0,0,0-0.1,0-0.1
			c-0.1-3-2.7-5.5-5.8-5.5H99.3c-1.2,0-2.3-0.5-3.2-1.3l-9.6-9.6c-3.5-3.5-8.3-5.5-13.3-5.5h-3.5L63,74.7c-6.1,5-14.9,5-20.9,0
			l-6.8-5.6h-2.9c-8.6,0-15.7,7-15.7,15.7c0,2.5-2,4.5-4.5,4.5c-2.5,0-4.5-2-4.5-4.5c0-13.6,11-24.6,24.6-24.6h4.5
			c1,0,2.1,0.4,2.9,1l8,6.6c2.8,2.3,6.8,2.3,9.5,0l8-6.6c0.8-0.7,1.8-1,2.9-1h5.1c7.4,0,14.4,2.9,19.6,8.1l8.3,8.3h14.6
			c8,0,14.6,6.4,14.7,14.2c0.2,8-6.2,14.7-14.2,14.8c-0.1,0-0.2,0-0.3,0H95.1c-3.9,0-7.6-1.5-10.3-4.3l-7-7
			c-0.1-0.1-0.3-0.2-0.4-0.1c-0.2,0.1-0.3,0.2-0.3,0.4v88.9C77.1,186.2,75.1,188.2,72.6,188.2L72.6,188.2z"/>
		<path id="XMLID_187_" class="st0" d="M22.3,136.3c-8,0-14.5-6.5-14.5-14.5v-37c0-2.5,2-4.5,4.5-4.5c2.5,0,4.5,2,4.5,4.5v37
			c0,3.1,2.5,5.6,5.6,5.6c3.1,0,5.6-2.5,5.6-5.6c0-2.5,2-4.5,4.5-4.5c2.5,0,4.5,2,4.5,4.5C36.8,129.8,30.3,136.3,22.3,136.3"/>
		<path id="XMLID_186_" class="st0" d="M148.4,188.2H12.2c-2.5,0-4.5-2-4.5-4.5s2-4.5,4.5-4.5h136.1c2.5,0,4.5,2,4.5,4.5
			S150.8,188.2,148.4,188.2"/>
		<g id="XMLID_184_">
			<path id="XMLID_185_" class="st1" d="M-355.9-198.7h-23.2c-2.5,0-4.5-2-4.5-4.5c0-2.5,2-4.5,4.5-4.5h23.2c2.5,0,4.5,2,4.5,4.5
				C-351.5-200.7-353.5-198.7-355.9-198.7"/>
		</g>
		<g id="XMLID_182_">
			<path id="XMLID_183_" class="st1" d="M-332.8-218.9h-46.3c-2.5,0-4.5-2-4.5-4.5s2-4.5,4.5-4.5h46.3c2.5,0,4.5,2,4.5,4.5
				S-330.3-218.9-332.8-218.9"/>
		</g>
	</g>
</g>
</svg>
