<?xml version="1.0" encoding="utf-8"?>
<!-- Generator: Adobe Illustrator 19.0.0, SVG Export Plug-In . SVG Version: 6.00 Build 0)  -->
<svg version="1.1" id="Layer_1" xmlns="http://www.w3.org/2000/svg" xmlns:xlink="http://www.w3.org/1999/xlink" x="0px" y="0px"
	 viewBox="0 0 184.1 200" style="enable-background:new 0 0 184.1 200;" xml:space="preserve">
<style type="text/css">
	.st0{fill:#0D0359;}
	.st1{fill:#0FE4BD;}
	.st2{fill:#00A081;}
</style>
<g id="XMLID_3015_">
	<g id="XMLID_198_">
		<path id="XMLID_222_" class="st0" d="M171.3,64.4c-2-1.9-4.7-3-7.5-2.8c-5.2,0.3-9.3,4.4-9.7,9.6L153,83.8c-0.1,1.5,1,2.9,2.6,3.1
			c1.6,0.1,2.9-1,3.1-2.6l1.1-12.7c0.2-2.3,2-4.2,4.3-4.5c1.3,0,2.5,0.4,3.4,1.3c0.9,0.8,1.4,2,1.4,3.2v37c0,7.5-2.5,14.7-7,20.6
			l-25.2,32.8c-4.8,6.2-6,14.4-3.2,21.7c0.4,1.1,1.5,1.8,2.6,1.8c0.3,0,0.7-0.1,1-0.2c1.5-0.5,2.2-2.2,1.6-3.6
			c-2.1-5.5-1.2-11.6,2.4-16.2l25.2-32.8c5.3-6.9,8.2-15.4,8.2-24.1v-37C174.5,68.9,173.3,66.3,171.3,64.4"/>
		<path id="XMLID_221_" class="st0" d="M155.7,109.2c0.5-0.5,0.8-1.1,0.8-1.7l1.1-11.8c0.1-1.6-1-2.9-2.6-3.1
			c-1.6-0.1-2.9,1-3.1,2.6l-1,10.8l-13.9,13.9c-0.6-1.7-1.7-3.2-3.1-4.3c-4.1-3.2-9.9-2.7-13.5,1l-13.4,13.4
			c-6.1,5.8-10.7,13.1-13.2,21.1l-2,6.4c-0.2,0.8-0.4,1.6-0.6,2.4c-0.2-0.8-0.4-1.6-0.6-2.4l-2-6.4c-2.5-8-7.1-15.3-13.2-21.1
			l-13.4-13.4c-3.6-3.7-9.4-4.1-13.5-1c-1.4,1.1-2.5,2.6-3.1,4.3l-13.9-13.9l-3.1-34.8c-0.4-5.2-4.5-9.2-9.7-9.6
			c-5.6-0.2-10.4,4.1-10.6,9.7c0,0.1,0,0.3,0,0.4v37c0,8.7,2.9,17.2,8.2,24.1l5.9,7.7c0.9,1.3,2.6,1.6,3.9,0.7
			c1.3-0.9,1.6-2.6,0.7-3.9c-0.1-0.1-0.1-0.2-0.2-0.2l-5.9-7.7c-4.5-5.9-7-13.2-7-20.6v-37c0-1.2,0.5-2.4,1.4-3.2
			c0.9-0.9,2.1-1.3,3.4-1.3c2.3,0.2,4.2,2.1,4.3,4.5l3.2,35.8c0.1,0.7,0.3,1.3,0.8,1.7L64.8,147c1.1,1.1,2.9,1.1,4-0.1
			c1.1-1.1,1.1-2.8,0-3.9l-16.9-16.9c-1.7-1.6-1.7-4.3,0-6c0.1-0.1,0.2-0.2,0.3-0.3c1.8-1.3,4.4-1.1,5.9,0.6l13.4,13.4
			c5.5,5.1,9.5,11.6,11.8,18.7l2,6.4c2.4,7.7,3.8,15.8,4.1,23.9c0.1,1.5,1.3,2.7,2.8,2.7h0.1c1.6-0.1,2.8-1.4,2.7-2.9
			c-0.1-3.1-0.5-6.2-0.9-9.3c0.7-4.9,1.7-9.6,3.2-14.3l2-6.4c2.3-7.2,6.4-13.6,11.8-18.8l13.4-13.4c1.5-1.7,4.1-1.9,5.9-0.6
			c1.8,1.5,2.1,4.1,0.6,5.9c-0.1,0.1-0.2,0.2-0.3,0.3L113.9,143c-1.1,1.1-1.2,2.9-0.1,4c1.1,1.1,2.9,1.2,4,0.1c0,0,0,0,0.1-0.1
			L155.7,109.2z"/>
		<path id="XMLID_220_" class="st0" d="M33.6,146c-0.9-1.2-2.7-1.5-4-0.5c-1.2,0.9-1.5,2.7-0.5,4l12.4,16.1
			c3.6,4.6,4.5,10.8,2.4,16.2c-0.5,1.5,0.2,3.1,1.6,3.6c0.3,0.1,0.7,0.2,1,0.2c1.2,0,2.2-0.7,2.6-1.8c2.8-7.3,1.5-15.5-3.2-21.7
			L33.6,146z"/>
		<path id="XMLID_219_" class="st0" d="M120.9,112.3c1.6,0,2.8-1.3,2.8-2.8V98.2c0-1.6-1.3-2.8-2.8-2.8h-11.3v-2.8
			c0-1.6-1.3-2.8-2.8-2.8c-1.6,0-2.8,1.3-2.8,2.8v16.9c0,1.6,1.3,2.8,2.8,2.8c1.6,0,2.8-1.3,2.8-2.8V101h8.5v8.5
			C118.1,111,119.3,112.3,120.9,112.3"/>
		<g id="XMLID_213_">
			<g id="XMLID_214_">
				<path id="XMLID_215_" class="st1" d="M70.2,52.3v0.8c0,5.3,2.1,10.4,5.9,14.1h-0.3c-10.9,0-19.7,8.8-19.7,19.7v22.6
					c0,1.6,1.3,2.8,2.8,2.8c1.6,0,2.8-1.3,2.8-2.8V101h8.5v8.5c0,1.6,1.3,2.8,2.8,2.8c1.6,0,2.8-1.3,2.8-2.8V92.5
					c0-1.6-1.3-2.8-2.8-2.8c-1.6,0-2.8,1.3-2.8,2.8v2.8h-8.5v-8.5c0-7.8,6.3-14.1,14.1-14.1h2.8c0,0.7,0.3,1.5,0.8,2l8.5,8.5
					c1.1,1.1,2.9,1.1,4,0l8.5-8.5c0.5-0.5,0.8-1.2,0.8-2h2.8c7.8,0,14.1,6.3,14.1,14.1c0,1.6,1.3,2.8,2.8,2.8c1.6,0,2.8-1.3,2.8-2.8
					c0-10.9-8.8-19.7-19.7-19.7h-0.3c3.8-3.7,5.9-8.8,5.9-14.1v-0.8c8.9-6.2,11.1-18.5,4.9-27.4c-3.7-5.3-9.7-8.5-16.2-8.5
					c-1.6,0-2.8,1.3-2.8,2.8c0,1.6,1.3,2.8,2.8,2.8c7.7,0,14.1,6.2,14.1,13.9c0,3.1-1,6.1-2.8,8.5V39c0-1.6-1.3-2.8-2.8-2.8h-3.3
					c-4.4,0-8.5-1.7-11.6-4.8c-1.1-1.1-2.9-1.1-4,0c-3.1,3.1-7.3,4.8-11.6,4.8H73c-1.6,0-2.8,1.3-2.8,2.8v5.5
					c-4.7-6.2-3.4-15,2.8-19.6c2.5-1.8,5.4-2.8,8.5-2.8h5.6c1.6,0,2.8-1.3,2.8-2.8c0-1.6-1.3-2.8-2.8-2.8h-5.6
					c-10.9,0-19.7,8.8-19.7,19.7C61.7,42.5,64.9,48.6,70.2,52.3 M89.9,77.3l-5.2-5.2c3.4,1,7,1,10.4,0L89.9,77.3z M75.8,41.8h0.5
					c4.9,0,9.7-1.6,13.6-4.7c3.9,3.1,8.7,4.7,13.6,4.7h0.5v11.3c0,7.8-6.3,14.1-14.1,14.1c-7.8,0-14.1-6.3-14.1-14.1V41.8z"/>
			</g>
		</g>
		<path id="XMLID_212_" class="st0" d="M84.3,47.4c1.6,0,2.8,1.3,2.8,2.8c0,1.6-1.3,2.8-2.8,2.8c-1.6,0-2.8-1.3-2.8-2.8
			C81.4,48.7,82.7,47.4,84.3,47.4"/>
		<path id="XMLID_211_" class="st0" d="M95.5,47.4c1.6,0,2.8,1.3,2.8,2.8c0,1.6-1.3,2.8-2.8,2.8c-1.6,0-2.8-1.3-2.8-2.8
			C92.7,48.7,94,47.4,95.5,47.4"/>
		<g id="XMLID_209_">
			<path id="XMLID_210_" class="st2" d="M-353.5-204.1c0,1.6,1.3,2.8,2.8,2.8h14.1c1.6,0,2.8-1.3,2.8-2.8c0-1.6-1.3-2.8-2.8-2.8
				h-14.1C-352.2-206.9-353.5-205.7-353.5-204.1"/>
		</g>
		<g id="XMLID_207_">
			<path id="XMLID_208_" class="st2" d="M-356.3-212.6c0.4,0,0.9-0.1,1.3-0.3l11.3-5.6c1.4-0.7,2-2.4,1.3-3.8
				c-0.7-1.4-2.4-2-3.8-1.3l-11.3,5.6c-1.4,0.7-2,2.4-1.3,3.8C-358.3-213.2-357.3-212.6-356.3-212.6"/>
		</g>
		<g id="XMLID_205_">
			<path id="XMLID_206_" class="st2" d="M-357.5-190.3l11.3,5.6c1.4,0.7,3.1,0.1,3.8-1.3c0.7-1.4,0.1-3.1-1.3-3.8l-11.3-5.6
				c-1.4-0.7-3.1-0.1-3.8,1.3C-359.5-192.7-358.9-191-357.5-190.3"/>
		</g>
		<g id="XMLID_203_">
			<path id="XMLID_204_" class="st2" d="M-443.7-201.3h14.1c1.6,0,2.8-1.3,2.8-2.8c0-1.6-1.3-2.8-2.8-2.8h-14.1
				c-1.6,0-2.8,1.3-2.8,2.8C-446.5-202.6-445.2-201.3-443.7-201.3"/>
		</g>
		<g id="XMLID_201_">
			<path id="XMLID_202_" class="st2" d="M-436.5-218.5l11.3,5.6c1.4,0.7,3.1,0.1,3.8-1.3c0.7-1.4,0.1-3.1-1.3-3.8l-11.3-5.6
				c-1.4-0.7-3.1-0.1-3.8,1.3C-438.4-220.9-437.9-219.2-436.5-218.5"/>
		</g>
		<g id="XMLID_199_">
			<path id="XMLID_200_" class="st2" d="M-421.4-194.1c-0.7-1.4-2.4-2-3.8-1.3c0,0,0,0,0,0l-11.3,5.6c-1.4,0.7-2,2.4-1.3,3.8
				c0.7,1.4,2.4,2,3.8,1.3l11.3-5.6C-421.3-191-420.7-192.7-421.4-194.1L-421.4-194.1"/>
		</g>
	</g>
</g>
</svg>
