<?xml version="1.0" encoding="utf-8"?>
<!-- Generator: Adobe Illustrator 27.5.0, SVG Export Plug-In . SVG Version: 6.00 Build 0)  -->
<svg version="1.1" id="Layer_1" xmlns="http://www.w3.org/2000/svg" xmlns:xlink="http://www.w3.org/1999/xlink" x="0px" y="0px"
	 viewBox="0 0 184.1 200" style="enable-background:new 0 0 184.1 200;" xml:space="preserve">
<style type="text/css">
	.st0{fill:#0D0359;}
</style>
<path class="st0" d="M76.9,82.4h1.8c1.1,0,2.1-0.9,2.1-2.1c0-1.1-0.9-2.1-2.1-2.1h-0.6V74c0-1.1-0.9-2.1-2.1-2.1
	C74.9,72,74,72.9,74,74v5.5C74,81.1,75.3,82.4,76.9,82.4z"/>
<path class="st0" d="M86.4,89.4c0.6-1,0.3-2.2-0.6-2.8c-1-0.6-2.2-0.3-2.8,0.6c-1.2,1.8-3.7,3-6.4,3c-2.8,0-5.3-1.2-6.4-3
	c-0.6-1-1.9-1.2-2.8-0.6c-1,0.6-1.2,1.9-0.6,2.8c1.9,3,5.7,4.9,9.9,4.9C80.7,94.3,84.5,92.4,86.4,89.4z"/>
<path class="st0" d="M88.9,74c1.2,0,2.2-1,2.2-2.2v-2.7c0-1.2-1-2.2-2.2-2.2c-1.2,0-2.2,1-2.2,2.2v2.7C86.7,73,87.7,74,88.9,74z"/>
<path class="st0" d="M64,66.9c-1.1,0-2.1,0.9-2.1,2.1v2.5c0,1.1,0.9,2.1,2.1,2.1c1.1,0,2.1-0.9,2.1-2.1V69
	C66,67.8,65.1,66.9,64,66.9z"/>
<path class="st0" d="M155,146.1c-1.1,0-2.1,0.9-2.1,2.1v14.5c0,2.4-1.9,4.3-4.3,4.3h-48.4c-2.4,0-4.3-1.9-4.3-4.3v-14.5
	c0-1.1-0.9-2.1-2.1-2.1s-2.1,0.9-2.1,2.1v14.5c0,1.6,0.4,3,1.2,4.3h-5.6L83,131.7l1.9-5.1l3.2,1.9c0.7,0.4,1.4,0.6,2.2,0.6
	c1.3,0,2.7-0.6,3.5-1.8l8.1-11.3c3.7,1.2,7.4,2.6,10.9,4.2c-0.2,0.5-0.3,1.1-0.3,1.7v4h-12.3c-4.5,0-8.3,3.7-8.4,8.2
	c0,0,0,0.1,0,0.1c0.1,4,1.7,7.8,4.6,10.7c2.9,2.8,6.7,4.4,10.8,4.4h8.5v0.2c0,1.8,1.4,3.2,3.2,3.2h11c1.8,0,3.2-1.4,3.2-3.2v-0.2
	h8.5c4.1,0,7.9-1.6,10.8-4.4c2.9-2.8,4.5-6.6,4.6-10.7c0,0,0-0.1,0-0.1c-0.1-4.5-3.9-8.2-8.4-8.2h-12.3v-4c0-2.8-2.4-5.1-5.5-5.1
	H118c-0.7,0-1.3,0.1-1.9,0.3c-4.5-2.2-9.2-4.1-14-5.5l-7.3-5.4c-1.7-1.3-3.9-1.5-5.7-0.7v-3.4c2-1.4,3.8-3.1,5.4-4.7
	c4.5-4.5,8.6-9.6,8.7-17.3c0,0,0,0,0,0l0-1c4.3,0,7.9-3.5,7.9-7.9v-2.8c0-1.6-0.5-3.1-1.3-4.3v-15c0-2.1-0.7-4.1-2-5.7
	c0.7-1.9,1-3.9,1-6V33c0-1.5-1.2-2.8-2.8-2.8H62.4c-6.2,0-11.3,4.4-12.3,10.3c-3.9,1.1-6.8,4.7-6.8,8.8v15C42.5,65.6,42,67,42,68.6
	v2.8c0,4.3,3.5,7.9,7.9,7.9H50l0,1.2c0,0,0,0,0,0c0.2,7.6,4.4,12.8,8.9,17.2c1.6,1.5,3.3,3.1,5.2,4.5v3.5c-1.9-0.8-4-0.6-5.7,0.7
	l-7.3,5.4c-5.2,1.5-10.2,3.6-15.1,6c-6.1,3.1-9.9,9.3-9.9,16.2v6.6c0,1.1,0.9,2.1,2.1,2.1c1.1,0,2.1-0.9,2.1-2.1V134
	c0-5.3,2.9-10.1,7.7-12.5c4.3-2.2,8.7-4,13.3-5.4l8.1,11.3c0.8,1.2,2.1,1.8,3.5,1.8c0.8,0,1.5-0.2,2.2-0.6l3.2-2l1.9,5.1L65.6,167
	H45.4v-16.4c0-1.1-0.9-2.1-2.1-2.1c-1.1,0-2.1,0.9-2.1,2.1V167h-10c-0.7,0-1.2-0.5-1.2-1.2v-15.6c0-1.1-0.9-2.1-2.1-2.1
	c-1.1,0-2.1,0.9-2.1,2.1v15.6c0,2.9,2.4,5.3,5.3,5.3h117.3c4.6,0,8.4-3.8,8.4-8.4v-14.5C157,147,156.1,146.1,155,146.1z M129,148.6
	h-9.1V146h9.1V148.6z M130.9,121c0.7,0,1.3,0.4,1.3,1v4h-7c-0.9-1.9-2.1-3.5-3.6-5H130.9z M116.6,122.3c1.5,1,2.8,2.3,3.8,3.7h-3.8
	V122.3z M148.6,130.1c2.3,0,4.2,1.9,4.3,4.1c-0.1,6.1-5.2,11-11.2,11h-8.5v-0.2c0-1.8-1.4-3.2-3.2-3.2h-11c-1.8,0-3.2,1.4-3.2,3.2
	v0.2h-8.5c-6.1,0-11.1-4.9-11.2-11c0.1-2.3,2-4.1,4.3-4.1H148.6z M90.2,109.8c0.6-0.5,1.5-0.6,2.1-0.1l5.9,4.4l-7.7,10.8
	c0,0.1-0.1,0.1-0.2,0L80,118.7L90.2,109.8z M76.5,121.4l4.9,2.9l-1.9,5h-6l-1.9-5L76.5,121.4z M76.5,116.2l-8.4-7.3v-4.3
	c2.5,1.2,5.3,1.9,8.5,2h0h0c3.1,0,5.8-0.8,8.2-1.9v4.3L76.5,116.2z M106.9,68.6v2.8c0,2.1-1.7,3.8-3.8,3.8h0l0-10.3h0
	C105.2,64.9,106.9,66.6,106.9,68.6z M105.6,49.3v11.8c-0.8-0.3-1.6-0.4-2.5-0.4h-0.4c-0.7-2.8-2.3-5.2-4.5-6.9
	c2.9-1.3,5.4-3.3,7.2-5.9C105.5,48.4,105.6,48.9,105.6,49.3z M49.9,75.2c-2.1,0-3.8-1.7-3.8-3.8v-2.8c0-2.1,1.7-3.8,3.8-3.8h0
	L49.9,75.2L49.9,75.2z M47.4,61.1V49.3c0-2.6,2.1-4.8,4.7-5c1-0.1,1.9-0.9,1.9-2c0.2-4.5,3.9-8,8.4-8h42.2v3.3
	c0,7.5-6.1,13.6-13.6,13.6H62.5c-2.5,0-4.6,2-4.7,4.5c-0.7,2.9-3.1,5-5.8,5C52,60.8,48.2,60.9,47.4,61.1z M61.7,94.8
	c-3.9-3.8-7.5-8.2-7.6-14.4l0-15.8c3.8-0.9,7-4.2,7.8-8.3c0.2-0.8,0.3-1,0.6-1H91h0.1c4.4,0.3,7.8,4,7.8,8.4L99,80.3
	c-0.1,6.2-3.7,10.6-7.5,14.4c-4,4-8.6,7.7-14.9,7.8C70.3,102.4,65.8,98.7,61.7,94.8z M62.7,124.9c-0.1,0-0.1,0-0.2,0l-7.7-10.8
	l5.9-4.4c0.6-0.5,1.5-0.4,2.1,0.1l10.2,8.9L62.7,124.9z M69.8,167l4.1-33.5h5.2l4.1,33.5H69.8z"/>
</svg>
