<?xml version="1.0" encoding="utf-8"?>
<!-- Generator: Adobe Illustrator 19.0.0, SVG Export Plug-In . SVG Version: 6.00 Build 0)  -->
<svg version="1.1" id="Layer_1" xmlns="http://www.w3.org/2000/svg" xmlns:xlink="http://www.w3.org/1999/xlink" x="0px" y="0px"
	 viewBox="0 0 184.1 200" style="enable-background:new 0 0 184.1 200;" xml:space="preserve">
<style type="text/css">
	.st0{fill:#0D0359;}
	.st1{fill:#0FE4BD;}
</style>
<g id="XMLID_66_">
	<path id="XMLID_612_" class="st0" d="M66.3,159.6c-9.5-10.2-18.8-20.2-28.4-30.6c0.6-0.4,1.1-0.7,1.5-1.1
		c4.9-4.5,9.8-9.1,14.8-13.7c6.2-5.8,13.6-8.4,22.1-8.2c12,0.3,24.1,0.6,36.1,0.8c5.1,0.1,9.1,3.3,10.1,8.2c0.2,1,0.2,2.2-0.1,3.2
		c-1.4,4.6-5.7,7.9-10.5,8.1c-8.5,0.3-17,0.6-25.5,0.9c-0.4,0-1-0.1-1.3,0.1c-0.4,0.3-0.9,0.8-0.9,1.2c0,0.4,0.5,0.9,0.9,1.1
		c0.3,0.2,0.9,0.1,1.3,0.1c8.4-0.3,16.8-0.5,25.2-0.8c5.9-0.2,11.2-4.1,13.2-9.8c0.3-0.9,0.9-1.9,1.6-2.5
		c9.7-9.1,19.5-18.1,29.2-27.1c2.9-2.7,6.2-3.5,9.9-2.2c6.8,2.3,8.6,11,3.2,16.1c-4.1,3.9-8.4,7.8-12.6,11.7
		c-9.7,9-19.6,17.9-29.1,27.1c-5.5,5.3-11.8,7.9-19.2,8.6c-12,1.2-24,2.8-36,4.3c-0.5,0.1-1.1,0.4-1.6,0.8
		C69,157,67.7,158.3,66.3,159.6z"/>
	<path id="XMLID_462_" class="st1" d="M105.1,32.4c4.3-4.6,9.5-7.3,15.8-7.5c8.7-0.3,17.2,4.9,20.7,13.1c3.8,8.7,2.6,17-3.9,24
		c-7,7.5-14.4,14.6-21.7,21.9c-2.4,2.4-4.9,4.9-7.3,7.3c-2.4,2.3-5.3,2.3-7.6,0c-9.4-9.3-18.8-18.7-28.1-28.1
		c-6.2-6.3-8.3-13.9-5.6-22.4c2.7-8.5,8.7-13.6,17.4-15.3c7.2-1.4,13.6,0.8,18.9,5.9c0.4,0.3,0.7,0.7,1,1
		C104.8,32.3,104.9,32.3,105.1,32.4z"/>
	<path id="XMLID_411_" class="st0" d="M68.2,166.5c-0.7,1.2-1,2.4-1.8,3.2c-4.5,4.3-9.1,8.6-13.8,12.8c-2.1,1.9-4.4,1.6-6.5-0.6
		c-9.6-10.4-19.3-20.8-28.9-31.2c-1-1.1-2.1-2.2-3.1-3.4c-1.7-2-1.6-4.3,0.3-6c4.6-4.3,9.1-8.6,13.8-12.8c2-1.9,4.4-1.7,6.4,0.5
		c5.9,6.3,11.8,12.7,17.7,19.1c4.7,5,9.4,10,14,15.1C67,164.1,67.4,165.3,68.2,166.5z M50.5,165.6c-2.9,0-5.3,2.3-5.3,5.2
		c0,2.9,2.3,5.3,5.1,5.4c2.9,0.1,5.4-2.3,5.4-5.2C55.7,168.1,53.3,165.7,50.5,165.6z"/>
	<path id="XMLID_76_" class="st1" d="M50.5,165.6c2.8,0,5.2,2.4,5.2,5.3c0,2.9-2.5,5.3-5.4,5.2c-2.8-0.1-5.1-2.5-5.1-5.4
		C45.2,168,47.6,165.6,50.5,165.6z M47.6,170.8c-0.1,1.5,1.1,2.8,2.6,2.9c1.6,0.1,2.9-1,3-2.6c0.1-1.5-1.1-2.8-2.6-2.9
		C49,168.1,47.7,169.2,47.6,170.8z"/>
	<path id="XMLID_57_" d="M47.6,170.8c0.1-1.6,1.4-2.7,3-2.6c1.5,0.1,2.6,1.4,2.6,2.9c-0.1,1.6-1.4,2.7-3,2.6
		C48.7,173.5,47.5,172.3,47.6,170.8z"/>
</g>
</svg>
