<?xml version="1.0" encoding="utf-8"?>
<!-- Generator: Adobe Illustrator 19.0.0, SVG Export Plug-In . SVG Version: 6.00 Build 0)  -->
<svg version="1.1" id="Layer_1" xmlns="http://www.w3.org/2000/svg" xmlns:xlink="http://www.w3.org/1999/xlink" x="0px" y="0px"
	 viewBox="0 0 315.9 138.1" style="enable-background:new 0 0 315.9 138.1;" xml:space="preserve">
<style type="text/css">
	.st0{fill:#0D0359;}
	.st1{fill-rule:evenodd;clip-rule:evenodd;fill:#0FE4BD;}
	.st2{fill:#0FE4BD;}
	.st3{fill:#666666;}
</style>
<g id="XMLID_88_">
	<polygon id="XMLID_3243_" class="st0" points="20.6,97.6 93.9,97.7 59.1,29.5 55.1,29.5 	"/>
	<path id="XMLID_3240_" class="st1" d="M72.2,54.7l12,23.6c0.1,0.3,0.1,0.6-0.1,0.8l-9.6,13.7c-0.1,0.2-0.2,0.3-0.1,0.5l0.4,3.6
		c0.1,0.5-0.3,0.9-0.8,0.9H59.6c-0.4,0-0.8-0.4-0.8-0.8l0.5-13.1c0-0.2,0.1-0.4,0.2-0.5L70.8,72c0.4-0.4,1.1-0.3,1.3,0.3l1.5,4
		c0.1,0.2,0.1,0.5-0.1,0.7L69,84.2c-0.1,0.1-0.1,0.2-0.1,0.3l-0.1,0.6c-0.1,0.9,1.2,1.2,1.5,0.3l0,0c0-0.1,0-0.1,0.1-0.2l5.3-7.8
		c0.1-0.2,0.2-0.5,0.1-0.7l-4.9-13.5C70.8,63.3,68.7,57.3,72.2,54.7"/>
	<g id="XMLID_395_">
		<g id="XMLID_300_">
			<g id="XMLID_331_">
				<path id="XMLID_332_" class="st1" d="M34.6,49c0,0,6.7-1,13.7,2.4c0,0-1.4-7.4,1.1-12.7c0,0-1.2,5.5,3.4,11.7
					c4.6,6.2,4.9,10.1,4.9,10.1s1.2-5.8-0.5-12.8c0,0,2.4,2.4,3.8,8.2c0,0,3.3-7.5,11.2-6.9c0,0-8.3,2.6-9.7,14.2
					c-0.6,4.9,0.1,9.3,2.2,13.4l-7.4,7.4l-6.2-6.2C55.8,66,48.6,50.1,34.6,49"/>
			</g>
			<g id="XMLID_329_">
				<path id="XMLID_330_" class="st1" d="M27.8,41.1c1.6-1,3.7-1.1,5.5-0.1c1.6,0.9,2.5,2.6,2.6,4.3l-5-2.3l4.5,3.1
					c-1.5,0.8-3.4,0.8-5-0.1C28.7,44.9,27.7,43,27.8,41.1"/>
			</g>
			<g id="XMLID_327_">
				<path id="XMLID_328_" class="st1" d="M45.9,26.3c2.7,1.4,4.5,4.2,4.5,7.4c0,2.9-1.5,5.5-3.8,7L45.9,32l-0.7,8.6
					c-2.3-1.5-3.8-4-3.8-7C41.4,30.4,43.2,27.6,45.9,26.3"/>
			</g>
			<g id="XMLID_325_">
				<path id="XMLID_326_" class="st1" d="M72.1,41.3c-1.8-0.6-3.8-0.1-5.2,1.3c-1.3,1.3-1.7,3.1-1.4,4.7l4.1-3.5l-3.5,4.1
					c1.6,0.3,3.4-0.1,4.7-1.4C72.2,45.1,72.7,43,72.1,41.3"/>
			</g>
			<g id="XMLID_323_">
				<path id="XMLID_324_" class="st1" d="M31,25.8c3-0.1,6,1.4,7.6,4.1c1.5,2.5,1.4,5.5,0.2,7.9l-5-7.1l3.7,7.8
					c-2.7-0.2-5.3-1.6-6.7-4.1C29.2,31.6,29.4,28.3,31,25.8"/>
			</g>
			<g id="XMLID_321_">
				<path id="XMLID_322_" class="st1" d="M59.6,32.1c2.7,1.4,4.5,4.2,4.5,7.4c0,2.9-1.5,5.5-3.8,7l-0.7-8.6l-0.7,8.6
					c-2.3-1.5-3.8-4-3.8-7C55.1,36.3,56.9,33.5,59.6,32.1"/>
			</g>
			<g id="XMLID_319_">
				<path id="XMLID_320_" class="st1" d="M73.3,24.3c-3-0.1-6,1.4-7.6,4.1c-1.5,2.5-1.4,5.5-0.2,7.9l5-7.1l-3.7,7.8
					c2.7-0.2,5.3-1.6,6.7-4.1C75.1,30.2,75,26.9,73.3,24.3"/>
			</g>
			<g id="XMLID_317_">
				<path id="XMLID_318_" class="st1" d="M61.2,17.5c-3-0.1-6,1.4-7.6,4.1c-1.5,2.5-1.4,5.5-0.2,7.9l5-7.1l-3.7,7.8
					c2.7-0.2,5.3-1.6,6.7-4.1C63,23.3,62.9,20,61.2,17.5"/>
			</g>
			<g id="XMLID_315_">
				<path id="XMLID_316_" class="st1" d="M44.2,16.2c2.3-0.1,4.6,1.1,5.8,3.2c1.1,1.9,1.1,4.2,0.1,6L46.3,20l2.8,6
					c-2.1-0.1-4-1.3-5.1-3.2C42.7,20.7,42.9,18.1,44.2,16.2"/>
			</g>
			<g id="XMLID_313_">
				<path id="XMLID_314_" class="st1" d="M70.8,16c-2.1-0.3-4.3,0.7-5.6,2.6c-1.2,1.7-1.3,3.8-0.6,5.6l3.9-4.8l-3,5.4
					c1.9,0,3.9-0.9,5-2.6C71.8,20.2,71.9,17.8,70.8,16"/>
			</g>
			<g id="XMLID_311_">
				<path id="XMLID_312_" class="st1" d="M79.8,32.6c-2.1-0.7-4.4-0.2-6,1.5c-1.5,1.5-2,3.5-1.6,5.4l4.7-4l-4,4.7
					c1.9,0.4,4-0.1,5.4-1.6C79.9,37,80.4,34.6,79.8,32.6"/>
			</g>
			<g id="XMLID_309_">
				<path id="XMLID_310_" class="st1" d="M21.1,32.3c2-1.1,4.6-1.1,6.6,0.3c1.8,1.2,2.8,3.3,2.8,5.4l-5.8-3.2l5.2,4.2
					c-1.9,0.8-4.2,0.6-6-0.6C21.8,37,20.8,34.6,21.1,32.3"/>
			</g>
			<g id="XMLID_307_">
				<path id="XMLID_308_" class="st1" d="M84.4,47.1c-0.7,2.2-2.5,4-4.9,4.4c-2.2,0.4-4.3-0.3-5.8-1.8l6.4-1.8l-6.6,0.7
					c0.8-1.9,2.5-3.4,4.7-3.8C80.6,44.3,82.9,45.3,84.4,47.1"/>
			</g>
			<g id="XMLID_305_">
				<path id="XMLID_306_" class="st1" d="M24.1,55c2,1.1,4.6,1.1,6.6-0.3c1.8-1.2,2.8-3.3,2.8-5.4l-5.8,3.2l5.2-4.2
					c-1.9-0.8-4.2-0.6-6,0.6C24.8,50.4,23.8,52.7,24.1,55"/>
			</g>
			<g id="XMLID_303_">
				<path id="XMLID_304_" class="st1" d="M38.1,42.2c1.6-1,3.7-1.1,5.5-0.1c1.6,0.9,2.5,2.6,2.6,4.3l-5-2.3l4.5,3.1
					c-1.5,0.8-3.4,0.8-5-0.1C38.9,45.9,38,44.1,38.1,42.2"/>
			</g>
			<g id="XMLID_301_">
				<path id="XMLID_302_" class="st1" d="M64.8,47.5c-0.9-0.3-2-0.1-2.7,0.7c-0.7,0.7-0.9,1.6-0.7,2.5l2.2-1.8L61.6,51
					c0.9,0.2,1.8-0.1,2.5-0.7C64.8,49.5,65.1,48.5,64.8,47.5"/>
			</g>
		</g>
	</g>
	<g id="XMLID_15_">
		<g id="XMLID_227_">
			<path id="XMLID_241_" class="st0" d="M102.3,100c-0.4,0-0.8-0.2-1-0.6c-0.2-0.2-0.3-0.5-0.4-0.8c-0.1-0.3,0.1-1,0.3-1.9
				c0.3-0.9,0.7-2.3,1.4-4.2c0.3-1.3,0.6-2.2,0.8-2.8c0.2-0.6,0.3-1,0.3-1.3c0-0.4,0-0.7,0.1-0.9c0.1-0.2,0.1-0.5,0.1-0.7
				c0.2,0,0.4-0.2,0.6-0.5c0.2-0.4,0.4-0.9,0.5-1.5c0.1-0.6,0.3-1,0.4-1.4c0.1-0.3,0.2-0.6,0.2-0.7c0.2-0.3,0.4-0.7,0.5-1.2
				c0.2-0.6,0.5-1.2,0.9-2c0.3-1,0.6-2,0.9-3.1c0.3-1.1,0.7-2.1,1.1-3c0.4-0.9,0.7-1.7,0.9-2.2c0.4-1,0.7-1.8,0.9-2.2
				c0.2-0.4,0.2-0.7,0-0.8c-0.2-0.2-0.3-0.4-0.2-0.8c0.1-0.4,0.5-0.8,1.1-1.3c0.4-0.4,0.7-0.7,1-0.9c0.3-0.2,0.6-0.3,1.1-0.3
				c0.4,0,1.1,0,1.9,0.1c0.6,0,1.3,0,2,0c0.7,0,1.1,0,1.3,0c0.3,0.1,0.7,0.3,1.1,0.4c0.4,0.1,0.9,0.3,1.2,0.4
				c0.4,0.1,0.5,0.3,0.5,0.3c0,0.2,0.1,0.3,0.2,0.4s0.3,0.1,0.5,0.1c0.2,0,0.6,0.2,1,0.5c0.4,0.3,0.8,0.8,1.3,1.3
				c0.4,0.5,0.8,1.1,1,1.6c0.3,0.6,0.5,1.1,0.6,1.6c0.2,0.5,0.1,1.2,0,2.1c0,0.5-0.1,1-0.2,1.5c-0.1,0.5-0.2,0.8-0.4,1
				c-0.2,0.1-0.4,0.3-0.6,0.5c-0.2,0.2-0.3,0.4-0.3,0.5c0,0.1-0.1,0.4-0.4,0.8c-0.2,0.4-0.6,0.8-0.9,1.3c-0.4,0.5-0.8,1-1.2,1.5
				c-0.4,0.5-0.9,0.9-1.3,1.3c-0.4,0.5-1,1-1.6,1.5c-0.6,0.5-1.1,0.8-1.6,1.1c-0.9,0.4-1.9,0.8-3,1.2c-1.1,0.4-2.1,0.7-3.1,1
				c-1,0.3-1.8,0.4-2.4,0.3c-1,0.1-1.6,0.3-1.9,0.4c-0.3,0.1-0.5,0.4-0.6,0.9c-0.2,0.4-0.3,0.9-0.5,1.3c-0.2,0.4-0.2,0.8-0.2,0.9
				c-0.1,0.1-0.2,0.5-0.5,1.2c-0.3,0.7-0.5,1.5-0.8,2.4c-0.3,0.9-0.6,1.8-0.9,2.6c-0.3,0.9-0.5,1.6-0.6,2.1
				c-0.1,0.5-0.3,0.7-0.5,0.8C102.9,99.9,102.7,100,102.3,100z M108.7,84.5c0.1,0.1,0.7,0.1,1.6,0c0.9-0.1,1.9-0.3,3-0.7
				c0.7-0.2,1.4-0.5,2.1-0.8c0.7-0.3,1.4-0.7,2-1.1c0.3-0.2,0.9-0.6,1.5-1.2c0.7-0.6,1.4-1.3,2.1-2.1c0.1-0.2,0.3-0.5,0.5-1
				c0.3-0.5,0.5-0.9,0.7-1.4c0.3-0.5,0.6-1.2,0.9-2.1c0.3-0.9,0.4-1.7,0.2-2.3c-0.2-0.9-0.6-1.7-1.3-2.4c-0.7-0.7-1.6-1.3-2.6-1.5
				c-0.8-0.1-1.4-0.2-1.9-0.2c-0.5,0-1,0-1.6,0.1c-0.6,0.2-1,0.4-1.2,0.7c-0.3,0.3-0.6,0.9-1,1.9c-0.2,0.5-0.6,1.2-1,2.1
				c-0.4,0.9-0.8,1.8-1.1,2.7c-0.6,2.2-1.2,4-1.8,5.4c-0.6,1.4-1,2.3-1.1,2.7c0,0.4,0,0.6-0.1,0.8C108.6,84.2,108.6,84.3,108.7,84.5
				z"/>
			<path id="XMLID_238_" class="st0" d="M141.2,96.8c-0.4,0-0.8-0.1-1.1-0.2c-0.3-0.2-0.6-0.4-1-0.7c-0.7-0.7-1.1-1.3-1.4-1.9
				c-0.3-0.6-0.4-1.2-0.3-1.8c0.1-0.3,0.1-0.6,0.1-1.1c-0.2-0.2-0.2-0.3-0.2-0.3c0.1,0,0.1-0.1,0.2-0.3c0.2,0,0.3-0.2,0.2-0.5
				c-0.1-0.3,0.1-0.8,0.4-1.7c0.3-0.9,0.8-1.7,1.3-2.5c0.2-0.3,0.5-0.8,0.9-1.3s0.9-1.1,1.4-1.6c0.5-0.5,1-1,1.4-1.3
				c0.9-0.7,1.6-1.2,2.3-1.5c0.7-0.3,1.4-0.6,2.1-0.7c0.8-0.2,1.3-0.2,1.6-0.2c0.3,0,0.7,0.3,1.2,0.8c0.8,0.3,1.4,0.7,1.7,1.2
				c0.4,0.5,0.6,1.1,0.7,2c0.1,1,0,2.1-0.2,3.4c-0.3,1.3-1.1,2.9-2.4,4.8c-0.9,1.2-1.7,2.1-2.4,2.7c-0.7,0.6-1.6,1.2-2.6,1.7
				c-0.7,0.5-1.4,0.8-2,1C142.7,96.6,142,96.8,141.2,96.8z M146.1,91.5c0.8-0.9,1.5-1.7,2-2.5c0.5-0.8,1-1.8,1.4-3
				c0.1-0.4,0.2-0.8,0.3-1.4c0-0.5,0-1.1,0-1.5c-0.1-0.5-0.2-0.8-0.4-0.8c-0.4-0.2-0.9-0.3-1.5-0.2c-0.6,0.1-1.2,0.4-1.9,1
				c-1.1,0.9-2,1.9-2.8,3.2c-0.8,1.3-1.6,2.7-2.3,4.4c-0.5,1.2-0.6,2.2-0.3,2.9c0.3,0.7,0.9,1,1.9,0.7
				C143.4,93.9,144.7,93.1,146.1,91.5z"/>
			<path id="XMLID_236_" class="st0" d="M172.4,97.8c-0.7-0.3-1.3-0.6-1.9-1.1c-0.6-0.4-1-0.8-1.1-1.1c0-0.3,0.1-0.5,0.2-0.6
				c0.1-0.1,0.4-0.2,0.9-0.1c0.5,0,1.3,0.1,2.4,0.2c0.4,0,0.9,0,1.5-0.1c0.6-0.1,1.2-0.2,1.7-0.3c0.5-0.1,0.8-0.3,0.9-0.5
				c0.2,0,0.2-0.1,0.1-0.2c-0.1-0.1-0.2-0.2-0.4-0.4c-0.1,0-0.3-0.1-0.5-0.2c-0.2-0.1-0.3-0.2-0.5-0.2c0-0.2-0.2-0.4-0.5-0.6
				c-0.3-0.2-0.7-0.4-1-0.5c-0.8-0.6-1.4-1.1-2-1.6c-0.6-0.5-0.8-0.8-0.6-1c0-0.1,0-0.2,0-0.3c-0.2,0-0.5-0.3-0.8-1
				c-0.3-0.7-0.4-1.3-0.4-1.8c0-0.4,0.1-0.9,0.4-1.5c0.2-0.6,0.6-1.3,1-1.9c0.4-0.7,0.8-1.2,1.3-1.6c0.6-0.6,1.4-1.2,2.3-1.8
				c0.9-0.6,1.8-1.2,2.8-1.7c0.9-0.5,1.7-0.9,2.3-1c0.6-0.2,1.2-0.3,1.7-0.3c0.5,0,1,0.1,1.4,0.3c0.3,0.2,0.7,0.4,1,0.7
				c0.3,0.3,0.5,0.6,0.8,0.9c0.2,0.3,0.4,0.6,0.4,0.8c0,0.4,0,0.8-0.1,1.3c-0.1,0.5-0.2,0.9-0.3,1.3c-0.1,0.4-0.3,0.5-0.5,0.5
				c-0.2,0-0.3,0.1-0.3,0.3c0,0.3-0.3,0.7-0.8,1.1c-0.7,0.4-1.2,0.7-1.7,0.8c-0.5,0.1-0.8-0.1-0.9-0.5c-0.1-0.1-0.2-0.2-0.2-0.3
				c0-0.1-0.1-0.1-0.3-0.1c-0.2-0.2-0.3-0.4-0.3-0.6c0-0.1,0.1-0.3,0.3-0.5c0.2,0,0.4-0.2,0.7-0.6c0.3-0.4,0.5-0.8,0.7-1.2
				c0.2-0.4,0.3-0.8,0.3-0.9c0-0.2,0-0.3-0.1-0.3c-0.1,0-0.2,0-0.5,0c-0.5,0.2-1.1,0.5-1.8,0.8c-0.7,0.3-1.3,0.7-1.9,1
				c-0.6,0.3-1,0.6-1.3,0.9c-0.1,0.2-0.2,0.4-0.3,0.4c0,0.1-0.1,0.1-0.3,0.1c0-0.1-0.1-0.1-0.3,0.2c-0.2,0.2-0.5,0.6-0.8,1
				c-0.3,0.4-0.6,0.9-0.9,1.3c-0.3,0.4-0.5,0.7-0.6,0.9c-0.1,0.1-0.1,0.3-0.2,0.6c-0.1,0.3-0.1,0.6-0.1,0.9
				c-0.1,0.4-0.1,0.7,0.1,0.8c0.2,0.1,0.5,0.5,1.1,0.9c1.2,0.9,2.1,1.6,2.8,2.1c0.7,0.6,1.2,1,1.5,1.4c0.3,0.4,0.5,0.7,0.6,1
				c0.6,1,0.8,1.8,0.6,2.3c-0.2,0.5-0.8,1-1.8,1.4c-0.3,0.2-0.9,0.3-1.7,0.4c-0.8,0.1-1.6,0.2-2.4,0.2
				C173.5,97.9,172.9,97.8,172.4,97.8z"/>
			<path id="XMLID_234_" class="st0" d="M216.5,96c-0.9,0.4-1.6,0.5-2.3,0.3c-0.7-0.2-1.2-0.6-1.6-1.3c-0.4-0.7-0.6-1.6-0.6-2.6
				c0-0.4,0.1-0.9,0.2-1.6c0.1-0.7,0.3-1.5,0.4-2.3c0.2-0.8,0.4-1.5,0.6-2.1c0.1-0.3,0.2-0.5,0.2-0.7c0.1-0.2,0-0.3-0.1-0.3
				c-0.1,0-0.3,0.1-0.5,0.3c-0.2,0.2-0.3,0.3-0.4,0.4c-0.8,0.6-1.5,1.3-2.3,2.2c-0.8,0.9-1.6,1.7-2.2,2.6c-0.7,0.9-1.2,1.7-1.7,2.4
				c-0.4,0.7-0.6,1.3-0.6,1.6c0,0.5-0.3,0.8-0.8,1s-1,0.2-1.3,0c-0.7-0.4-1.1-0.8-1.2-1.3s-0.2-1.4-0.1-2.6c0.1-1.6,0.2-3,0.4-4.2
				c0.2-1.2,0.5-2.6,0.9-4c0.4-1.4,0.9-3.2,1.6-5.3c0.4-1.2,0.9-2.3,1.2-3.3c0.4-1,0.7-1.9,1-2.7c0.3-0.7,0.5-1.2,0.5-1.3
				c0.2-0.2,0.4-0.6,0.7-1.2c0.3-0.6,0.5-1.3,0.7-2c0.2-0.7,0.3-1.1,0.3-1.2c0-0.3,0.1-0.5,0.2-0.7c0.1-0.2,0.2-0.4,0.4-0.5
				c0.1-0.1,0.3-0.3,0.5-0.5c0.2,0,0.4,0.1,0.6,0.1c0.3,0.1,0.5,0.2,0.7,0.4c0.2,0.2,0.4,0.4,0.5,0.7c0.2,0.5,0.4,0.9,0.4,1.4
				c0,0.5-0.1,1.1-0.4,1.8c-0.3,0.7-0.8,1.7-1.5,2.9c-0.6,1-1,2.1-1.5,3.2c-0.4,1.1-0.9,2.2-1.3,3.4c-0.2,0.5-0.4,1.2-0.7,2.1
				c-0.3,0.9-0.6,1.8-0.9,2.8c-0.3,1-0.5,1.8-0.7,2.6c-0.2,0.7-0.3,1.2-0.3,1.4c0,0.2,0.1,0.3,0.4,0.3c0.3,0,0.5-0.2,0.8-0.6
				c0.1-0.3,0.4-0.6,0.9-1c0.4-0.4,0.8-0.7,1.1-0.9c0.3-0.2,0.7-0.6,1.1-1c0.5-0.4,1-0.9,1.5-1.3c0.5-0.4,1.1-0.8,1.5-1.1
				c0.5-0.3,0.9-0.5,1.1-0.5c0.4,0,0.9,0.2,1.2,0.5c0.4,0.3,0.6,0.7,0.8,1c0.1,0.1,0.2,0.2,0.3,0.4s0.2,0.3,0.2,0.3
				c0.2,0.1,0.2,0.7,0,1.7c-0.2,1-0.5,2.3-1.1,3.9c-0.3,1.2-0.6,2.3-0.7,3.1c-0.2,0.8-0.1,1.3,0.1,1.3c0.7-0.4,1.3-0.7,1.7-0.9
				c1-0.6,1.9-1,2.6-1.1c0.7-0.1,1.1,0,1.1,0.4c0,0.1-0.1,0.3-0.2,0.4c-0.1,0.1-0.2,0.2-0.2,0.4c0,0,0,0.1,0,0.3
				c0,0.1-0.2,0.3-0.7,0.8c-0.4,0.4-0.9,0.9-1.5,1.3C217.2,95.7,216.8,96,216.5,96z"/>
			<path id="XMLID_231_" class="st0" d="M241.4,96.1c-0.3,0.1-0.6,0.1-1.1,0.1c-0.4,0-0.8-0.1-1.2-0.1c-0.3-0.1-0.5-0.2-0.5-0.3
				c0-0.2-0.1-0.2-0.3-0.2c-0.3-0.3-0.6-0.5-0.9-0.6c-0.3-0.5-0.5-1-0.5-1.5s0.2-1.4,0.5-2.6c0.1-0.8,0.4-1.8,1-2.9
				c0.6-1.1,1.3-2.3,2.1-3.4c0.8-1.2,1.7-2.2,2.6-3.1c0.9-0.9,1.7-1.6,2.5-2c0.5-0.5,1.1-0.7,1.8-0.7c0.7,0,1.3,0.1,2,0.4
				c0.3,0.2,0.7,0.4,1,0.8c0.3,0.4,0.7,0.8,1,1.2c0.3,0.4,0.6,0.9,0.8,1.3c0.1,0.4,0.2,0.7,0.2,1c0,0.3,0,0.6,0,1
				c0,0.4-0.1,1-0.2,1.8c-0.2,0.6-0.3,1.3-0.4,2.2c-0.1,0.9-0.2,1.6-0.2,2.2c-0.1,0.6,0,1.1,0.2,1.3c0.2,0.3,0.6,0.3,1,0
				c0.4-0.2,0.8-0.3,1.2-0.3c0.4,0,0.7,0.1,0.9,0.3c0.2,0.2,0.3,0.5,0.3,0.9s-0.2,0.8-0.6,1.2c-0.4,0.4-0.9,0.8-1.4,1
				c-0.6,0.3-1.1,0.4-1.6,0.4c-0.4,0-0.7-0.2-1.1-0.7c-0.3-0.4-0.6-1-0.9-1.6c-0.3-0.6-0.5-1.3-0.7-1.9l-0.3-1.1l-2.2,2
				c-0.4,0.5-0.9,0.9-1.3,1.3c-0.4,0.4-0.7,0.7-0.8,0.8c-0.2,0.3-0.5,0.6-1,0.9C242.9,95.5,242.2,95.8,241.4,96.1z M241.6,93.2
				c0.6-0.3,1.3-0.8,2-1.5c0.8-0.6,1.5-1.4,2.2-2.1c0.7-0.8,1.3-1.5,1.8-2.2c0.6-0.8,1-1.5,1.3-2.1c0.3-0.7,0.5-1.3,0.7-1.9
				c-0.1-0.4-0.4-0.8-0.7-1.2c-0.3-0.4-0.6-0.6-0.8-0.7c-0.8,0-1.6,0.5-2.4,1.4c-0.8,0.9-1.7,1.9-2.4,3c-0.1,0.2-0.3,0.4-0.6,0.8
				c-0.2,0.4-0.5,0.7-0.7,1c-0.2,0.3-0.4,0.5-0.4,0.6c-0.1,0.1-0.3,0.5-0.6,1.1c-0.3,0.6-0.6,1.2-0.9,1.8c-0.3,0.6-0.4,1-0.4,1.2
				s0,0.4,0.1,0.6c0.1,0.2,0.2,0.4,0.5,0.4C240.6,93.6,241,93.5,241.6,93.2z"/>
			<path id="XMLID_228_" class="st0" d="M284.5,97.7c-0.1,0.1-0.5,0.2-1.1,0.1c-0.6,0-1.2-0.2-1.7-0.4c-0.1-0.1-0.2-0.2-0.4-0.3
				c-0.2-0.1-0.3-0.3-0.5-0.4c-0.2-0.2-0.3-0.3-0.4-0.4c-0.1-0.1-0.2-0.3-0.5-0.6c-0.3-0.3-0.6-0.6-0.8-0.8
				c-0.3-0.3-0.5-0.4-0.6-0.5c-0.1-0.3-0.4-0.6-0.8-1c-0.4-0.4-0.8-0.8-1.2-1.2c-0.2-0.3-0.5-0.6-0.7-0.8c-0.2-0.2-0.4-0.4-0.6-0.5
				c-0.2-0.1-0.3-0.2-0.4-0.2c-0.2,0.8-0.5,1.6-0.6,2.2c-0.2,0.6-0.4,1.2-0.6,1.8c-0.2,0.6-0.3,1.1-0.4,1.5
				c-0.2,0.5-0.4,0.8-0.6,0.9c-0.2,0.2-0.4,0.2-0.7,0.2c-0.4,0-0.7-0.2-1-0.5c-0.3-0.3-0.4-0.8-0.4-1.4c-0.1-0.5,0-1.5,0.5-3
				c0.5-1.6,1.2-3.6,2.2-6c0.1-0.5,0.3-1,0.5-1.6c0.2-0.5,0.4-1,0.5-1.4c0.3-1.1,0.7-2.1,1.1-3.1c0.4-0.9,0.8-1.9,1.3-2.9
				c0.4-1,0.9-2,1.4-3.2c0.3-0.6,0.5-1,0.7-1.3c0.1-0.3,0.3-0.6,0.5-0.9c0.2-0.3,0.4-0.8,0.8-1.4c0.8-1.4,1.4-2.4,1.8-3.2
				c0.4-0.8,0.8-1.3,1-1.7c0.2-0.4,0.4-0.6,0.6-0.8c0.2-0.2,0.4-0.3,0.6-0.3c0.2-0.1,0.5-0.1,0.7,0c0.2,0,0.4,0.2,0.6,0.4
				c0.3,0.3,0.4,0.5,0.5,0.8c0.1,0.3,0,0.7-0.2,1.1c-0.2,0.5-0.5,1.1-1.1,1.9c-0.3,0.6-0.5,1-0.7,1.3c-0.2,0.3-0.3,0.5-0.5,0.8
				c-0.2,0.3-0.4,0.7-0.8,1.4c-0.1,0.2-0.2,0.4-0.3,0.6c-0.1,0.2-0.3,0.3-0.5,0.3c0,0.1-0.1,0.3-0.2,0.6c-0.1,0.3-0.2,0.6-0.4,0.8
				c-0.1,0.4-0.3,0.8-0.5,1.2c-0.2,0.4-0.4,0.8-0.5,1c-0.2,0.4-0.4,0.9-0.8,1.6c-0.4,0.7-0.7,1.4-1,2c-0.3,0.6-0.5,1.2-0.6,1.5
				c0,0.1,0.1,0.1,0.3,0c0.2-0.2,0.4-0.3,0.7-0.4c0.5-0.4,1.1-0.8,1.8-1.2c0.7-0.4,1.3-0.8,2-1.1c0.6-0.3,1.2-0.5,1.6-0.6
				c0.5-0.1,0.9-0.2,1.3-0.2c0.3,0,0.7,0.1,1,0.2c0.3,0.1,0.5,0.3,0.7,0.5c0.2,0.2,0.4,0.5,0.5,0.8c0.2,0.3,0.3,0.7,0.3,1.1
				c0,0.3-0.1,0.8-0.4,1.5c-0.2,0.7-0.5,1.4-0.9,2c-0.3,0.6-0.7,1.1-1,1.4c-0.2,0.1-0.5,0.2-0.8,0.4c0,0.1-0.1,0.3-0.2,0.5
				c-0.1,0.2-0.3,0.4-0.6,0.5c-0.1,0.1-0.3,0.3-0.5,0.5c-0.2,0.2-0.3,0.3-0.3,0.4v0.2c-0.1,0-0.3,0.1-0.6,0.3
				c-0.3,0.2-0.6,0.4-1,0.7c-0.4,0.4-0.6,0.6-0.8,0.6c-0.2,0-0.4,0.1-0.6,0.2c-0.1,0.1-0.1,0.1-0.2,0.1c-0.1,0-0.2,0.1-0.3,0.1
				c-0.1,0-0.2,0.1-0.2,0.1c-0.1,0-0.1,0.1-0.1,0.1c0,0.1,0.2,0.4,0.5,0.8c0.3,0.4,0.7,0.9,1.2,1.4c0.5,0.5,0.9,1,1.3,1.4
				c0.4,0.4,0.7,0.7,1,0.8c0.3,0.1,0.6,0.4,0.7,0.7c0.2,0.3,0.2,0.6,0.3,0.9C284.6,97.3,284.6,97.5,284.5,97.7z M278.3,88.8
				c0.2-0.1,0.5-0.4,1.1-0.8c0.5-0.4,1.2-0.9,1.8-1.4c0.7-0.5,1.2-1,1.8-1.5c0.5-0.5,0.9-0.8,1.1-1.1c0.2-0.2,0.5-0.6,0.7-1.2
				c0.2-0.6,0.3-1,0.1-1.3c0-0.1-0.3-0.1-0.9,0.2c-0.6,0.3-1.3,0.6-2,0.9c-0.6,0.3-1.3,0.8-2,1.3c-0.8,0.5-1.5,1.1-2.2,1.7
				s-1.2,1.2-1.5,1.7c-0.1,0.2,0,0.5,0.2,0.8c0.2,0.3,0.5,0.5,0.8,0.7C277.6,89,277.9,89,278.3,88.8z"/>
		</g>
	</g>
	<g id="XMLID_1_">
		<g id="XMLID_246_">
			<path id="XMLID_265_" class="st2" d="M110.4,60.9c-0.5,0-0.8-0.2-1.1-0.7c-0.2-0.2-0.4-0.5-0.4-0.9s0.1-1.1,0.4-2.2
				c0.3-1,0.8-2.6,1.5-4.8c0.4-1.4,0.7-2.5,0.9-3.2c0.2-0.7,0.3-1.1,0.3-1.4c0-0.4,0-0.8,0.1-1.1c0.1-0.3,0.1-0.6,0.1-0.8
				c0.2,0,0.5-0.2,0.7-0.6c0.2-0.4,0.4-1,0.6-1.7c0.2-0.6,0.3-1.2,0.4-1.6c0.1-0.4,0.2-0.7,0.2-0.8c0.2-0.3,0.4-0.8,0.6-1.4
				c0.2-0.6,0.5-1.4,1-2.3c0.3-1.1,0.6-2.3,1-3.6c0.4-1.2,0.8-2.4,1.2-3.5s0.7-1.9,1-2.5c0.4-1.2,0.7-2,1-2.5c0.2-0.5,0.2-0.8,0-0.9
				c-0.3-0.2-0.3-0.5-0.2-1c0.2-0.5,0.6-1,1.3-1.5c0.4-0.5,0.8-0.8,1.1-1.1c0.3-0.2,0.7-0.3,1.2-0.3c0.5,0,1.2,0,2.1,0.1
				c0.7,0,1.4,0.1,2.2,0.1c0.8,0,1.3,0,1.4,0c0.3,0.2,0.8,0.3,1.3,0.5c0.5,0.2,0.9,0.3,1.3,0.5c0.4,0.2,0.6,0.3,0.6,0.4
				c0,0.2,0.1,0.4,0.3,0.4c0.2,0.1,0.4,0.1,0.5,0.1c0.3,0,0.6,0.2,1.1,0.6c0.5,0.4,0.9,0.9,1.4,1.5c0.5,0.6,0.9,1.2,1.1,1.8
				c0.3,0.6,0.5,1.3,0.7,1.8c0.2,0.6,0.2,1.4,0,2.4c0,0.6-0.1,1.1-0.3,1.7c-0.1,0.6-0.3,0.9-0.4,1.1c-0.2,0.2-0.4,0.3-0.6,0.6
				c-0.2,0.2-0.3,0.4-0.3,0.6c0,0.2-0.1,0.4-0.4,0.9c-0.3,0.4-0.6,0.9-1,1.5c-0.4,0.6-0.9,1.1-1.4,1.7c-0.5,0.6-1,1.1-1.4,1.5
				c-0.5,0.6-1.1,1.2-1.7,1.7c-0.7,0.5-1.3,1-1.8,1.3c-1,0.5-2.1,0.9-3.3,1.4c-1.2,0.5-2.3,0.8-3.4,1.1c-1.1,0.3-2,0.4-2.7,0.4
				c-1.1,0.2-1.8,0.3-2.1,0.4c-0.3,0.1-0.6,0.5-0.7,1c-0.2,0.5-0.4,1-0.5,1.5c-0.2,0.5-0.3,0.9-0.3,1.1c-0.1,0.2-0.3,0.6-0.5,1.4
				c-0.3,0.8-0.6,1.7-0.9,2.7c-0.3,1-0.6,2-0.9,3c-0.3,1-0.5,1.8-0.7,2.4c-0.2,0.5-0.3,0.8-0.6,0.9C111,60.8,110.7,60.9,110.4,60.9z
				 M117.4,43.3c0.2,0.2,0.7,0.2,1.8,0.1s2.1-0.4,3.3-0.9c0.8-0.3,1.5-0.6,2.3-1c0.8-0.4,1.5-0.8,2.2-1.3c0.4-0.3,0.9-0.7,1.7-1.4
				c0.8-0.7,1.5-1.5,2.3-2.4c0.1-0.2,0.3-0.6,0.6-1.1c0.3-0.5,0.5-1.1,0.8-1.6c0.3-0.5,0.7-1.3,1-2.4c0.3-1,0.4-1.9,0.2-2.6
				c-0.2-1-0.7-1.9-1.5-2.8s-1.7-1.4-2.8-1.7c-0.8-0.2-1.5-0.2-2.1-0.2c-0.5,0-1.1,0.1-1.8,0.2c-0.6,0.2-1.1,0.5-1.3,0.8
				s-0.7,1.1-1.1,2.2c-0.3,0.5-0.6,1.3-1.1,2.4c-0.5,1.1-0.9,2.1-1.3,3c-0.7,2.5-1.4,4.6-2,6.2c-0.7,1.6-1.1,2.6-1.2,3
				c0,0.4,0,0.7-0.1,0.9C117.2,42.9,117.3,43.1,117.4,43.3z"/>
			<path id="XMLID_263_" class="st2" d="M138.4,56.2c-0.3-0.3-0.6-0.5-0.7-0.8c-0.1-0.3-0.1-0.8,0-1.5c0.1-1.1,0.3-2,0.5-2.8
				c0.2-0.8,0.4-1.8,0.7-2.8c0.1-0.5,0.3-1.2,0.7-2.3c0.4-1.1,0.8-2.3,1.3-3.6c0.5-1.3,1.1-2.5,1.6-3.7c0.5-1.2,1-2,1.4-2.6
				c0.3-0.2,0.7-0.3,1.1-0.3c0.4,0,0.8,0.2,1.1,0.5c0.4,0.3,0.5,0.9,0.2,1.8s-0.9,2.2-1.7,4c-0.5,1-0.8,1.8-1,2.3
				c-0.2,0.5-0.3,0.8-0.3,0.9c0,0.1,0.2,0,0.5-0.1c0.2-0.4,0.6-0.9,1.3-1.4c0.6-0.5,1.3-1.1,1.9-1.6c0.7-0.5,1.3-1,1.9-1.4
				c0.6-0.4,1-0.7,1.3-0.8c0.3-0.2,0.7-0.3,1.1-0.5c0.4-0.1,0.7-0.2,0.8-0.3c0.9-0.4,1.8-0.6,2.7-0.5c0.9,0.1,1.5,0.5,1.7,1
				c0,0.3,0.3,0.6,0.7,0.9c0.2,0,0.2,0.1,0.3,0.3c0,0.3-0.2,0.4-0.6,0.5c-0.4,0.1-0.9,0.1-1.5,0.1c-0.5,0-0.9,0.1-1.3,0.3
				c-0.4,0.2-0.8,0.3-1.4,0.6c-1.4,0.8-2.8,1.6-4.1,2.4s-2.6,1.9-3.8,3.2c-0.3,0.3-0.5,0.7-0.8,1.1c-0.3,0.4-0.5,0.9-0.9,1.4
				c-0.2,0.2-0.4,0.6-0.6,1.3c-0.2,0.6-0.4,1.3-0.5,1.8c-0.1,0.6-0.2,0.9-0.2,1.1c-0.2,0.7-0.5,1.3-0.7,1.6
				c-0.5,0.6-0.8,0.9-1.1,0.9C139.4,57.1,139,56.8,138.4,56.2z"/>
			<path id="XMLID_260_" class="st2" d="M159,56.1c-0.2-0.3-0.3-0.5-0.6-0.7c-0.2-0.2-0.3-0.3-0.3-0.5c0-0.2,0-0.3,0-0.5
				c0-0.2-0.1-0.3-0.3-0.5c-0.2-0.2-0.2-0.7,0.1-1.6c0.2-0.8,0.6-1.8,1.1-3c0.5-1.2,1.2-2.5,1.9-3.8c0.3-0.3,0.6-0.7,0.9-1.2
				c0.3-0.5,0.5-0.8,0.7-1c0-0.2,0.1-0.3,0.2-0.4c0.1-0.1,0.2-0.2,0.4-0.2v-0.3c0-0.2,0.2-0.5,0.5-1c0.4-0.5,0.8-1,1.3-1.5
				c0.5-0.5,1.1-1.1,1.6-1.6c0.6-0.5,1-0.9,1.4-1.1c0.8-0.5,1.6-0.9,2.5-1c0.9-0.1,1.6,0.1,2.2,0.6c0.1,0.1,0.3,0.3,0.6,0.6
				c0.3,0.3,0.6,0.6,0.9,0.9c0.4,0.3,0.7,0.7,1.1,1l2.1,1.9l-1,2.8c-0.5,1.5-0.6,2.8-0.4,4c0.2,1.1,0.6,2.1,1.1,3
				c0.2,0.4,0.6,0.8,1.2,1.2c0.6,0.4,1.1,0.6,1.7,0.7c0.3,0,0.6,0.2,0.9,0.3c0.3,0.2,0.4,0.5,0.4,0.9c0,0.4-0.1,0.7-0.2,0.9
				c-0.2,0.2-0.4,0.4-0.8,0.5c-1.3,0.2-2.4-0.2-3.5-0.9c-1.1-0.8-2.1-2-3-3.8c-0.2-0.2-0.4-0.7-0.6-1.3c-0.2-0.6-0.4-1-0.4-1.2
				c-0.2,0.2-0.4,0.5-0.9,1.1c-0.4,0.5-0.7,0.9-1,1.1c-2.7,2.7-5,4.6-7,5.5C161.9,56.9,160.3,56.9,159,56.1z M162.3,52.9
				c0.8-0.3,1.7-0.8,2.6-1.6c1.3-1.1,2.6-2.3,3.9-3.6c1.3-1.3,2.4-2.6,3.2-3.7l1.3-2c-0.4-0.9-0.8-1.5-1.2-1.8
				c-0.4-0.3-0.8-0.5-1.1-0.5c-0.5,0-1.2,0.5-2.2,1.4c-1,0.9-2,2.1-3.1,3.6c-1.1,1.5-2.1,3.2-3.1,5c-0.4,0.8-0.9,1.8-1.4,3.2
				C161.1,53.2,161.5,53.2,162.3,52.9z"/>
			<path id="XMLID_258_" class="st2" d="M191.7,58c-0.5-0.2-1-0.3-1.3-0.5c-0.3-0.2-0.8-0.6-1.4-1.1c-0.5-0.6-0.8-1.2-1.1-1.7
				c-0.2-0.5-0.4-1.1-0.5-1.8c-0.1-0.7-0.1-1.6-0.1-2.7c0-0.5,0.1-1.1,0.3-2c0.2-0.9,0.4-1.9,0.6-2.9c0.2-1,0.5-1.9,0.7-2.7
				c0.2-0.8,0.3-1.3,0.4-1.5c0.1-0.5-0.1-0.8-0.6-0.9c-0.5-0.1-1-0.1-1.6-0.1c-0.6,0-1,0-1.2-0.1c-0.2,0-0.2-0.2-0.2-0.3
				c0-0.2,0-0.3,0-0.3c0-0.1-0.1-0.2-0.2-0.4c-0.1-0.2,0-0.4,0.1-0.7s0.5-0.5,0.9-0.5c0.3-0.1,0.8-0.1,1.4-0.2
				c0.6-0.1,1.2-0.2,1.8-0.4c0.6-0.2,1.1-0.5,1.5-1c0.3-0.8,0.7-1.8,1.2-2.8s0.9-1.9,1.3-2.8c0.4-0.8,0.7-1.3,0.9-1.5
				c0.6-0.3,1.1-0.5,1.4-0.4c0.3,0.1,0.6,0.4,1,1c0.2,0.3,0.3,0.5,0.4,0.6c0.1,0.2,0.1,0.4,0,0.7c-0.1,0.3-0.3,0.8-0.6,1.4
				c-0.3,0.6-0.8,1.6-1.4,2.8c-0.2,0.4-0.4,0.9-0.7,1.4c0.2,0,0.4,0.1,0.7,0.1c0.3,0,0.7,0,1.1-0.1c0.4-0.1,0.9-0.1,1.6-0.2
				c0.6-0.1,1.2,0,1.5,0c0.9,0,1.5,0.2,1.9,0.5c0.4,0.3,0.6,0.9,0.7,1.6c0.1,0.4,0,0.7-0.3,0.7c-0.2,0.1-0.9,0.1-1.9,0.1
				c-0.3,0-0.9,0-1.6,0.1c-0.7,0-1.5,0.1-2.2,0.1c-0.8,0-1.4,0.1-2,0.1c-0.5,0.1-0.8,0.1-0.8,0.2c-0.1,0.1-0.3,0.4-0.5,1.1
				c-0.2,0.6-0.5,1.4-0.7,2.2c-0.2,0.8-0.5,1.5-0.7,2.2c-0.3,1.3-0.5,2.6-0.6,3.9c-0.1,1.3-0.2,2.4-0.1,3.4c0.1,0.9,0.3,1.6,0.6,2
				c0.3,0.3,1,0.4,2,0.2c1-0.2,1.8-0.6,2.4-1.1c0.7-0.6,1.2-0.9,1.7-0.9c0.4,0,0.7,0.2,0.7,0.6s-0.2,1-0.7,1.7
				c-0.5,0.7-1,1.3-1.7,1.8c-0.7,0.5-1.4,0.9-2.1,1.1S192.3,58.2,191.7,58z"/>
			<path id="XMLID_255_" class="st2" d="M207.4,56.4c-0.6-0.1-1.1-0.5-1.4-1.2c-0.4-0.7-0.6-1.4-0.7-2c0-0.3,0.1-0.7,0.1-1.3
				c0.1-0.6,0.1-1.2,0.2-1.8c0.2-0.7,0.4-1.6,0.6-2.6c0.3-1,0.5-2.1,0.8-3.2c0.3-1.1,0.5-2,0.8-2.7c0.2-0.8,0.4-1.2,0.5-1.4
				c0.2-0.3,0.5-0.4,0.9-0.2c0.4,0.2,0.8,0.4,1,0.7c0.2,0.3,0.4,0.7,0.4,1.1c0.1,0.4,0,1-0.2,1.8c-0.2,0.8-0.5,2-0.9,3.5
				c-0.4,1.5-0.7,2.7-0.9,3.7c-0.2,0.9-0.3,1.9-0.3,2.9c-0.2,1.3-0.3,2.1-0.3,2.4C207.9,56.3,207.7,56.4,207.4,56.4z M213.9,33.7
				c-0.2,0.1-0.3,0.2-0.4,0.1c-0.1,0-0.4-0.1-0.7-0.3c-0.3,0-0.6-0.2-1-0.5c-0.4-0.3-0.7-0.7-1-1c-0.3-0.4-0.4-0.6-0.4-0.7
				c0-0.4,0-0.9,0.1-1.4c0.1-0.6,0.3-1.1,0.6-1.6c0.3-0.5,0.7-0.7,1.3-0.8c0.2,0,0.3,0,0.4,0.1c0.1,0,0.5,0.2,1,0.4
				c0.3,0.6,0.6,1.2,0.9,1.9c0.3,0.7,0.4,1.4,0.4,2C215.1,32.6,214.7,33.2,213.9,33.7z"/>
			<path id="XMLID_252_" class="st2" d="M219.1,55.3c0-0.3,0-0.6-0.1-0.9c-0.1-0.3,0-0.5,0.1-0.6l0.5,0.1c-0.2,0-0.4,0-0.7,0
				c-0.3,0-0.6-0.1-0.8-0.2c-0.2-0.1-0.4-0.2-0.4-0.3c0-0.6,0.1-1.1,0.1-1.5s0.1-0.6,0.3-0.9c0-0.3,0.1-0.8,0.3-1.3
				c0.2-0.5,0.4-1.1,0.6-1.6c0.2-0.6,0.3-1.6,0.6-2.9c0.2-1.3,0.6-2.5,1.1-3.7c0.3-1,0.7-2.2,1.1-3.7c0.5-1.5,0.9-2.7,1.3-3.7
				c0.5-1.7,0.9-3.2,1.3-4.2c0.4-1.1,0.8-2.1,1.3-3c0.4-0.9,0.9-1.9,1.4-3c0.2-0.3,0.3-0.7,0.5-1.2c0.2-0.5,0.3-0.9,0.4-1.2
				c0.1-0.3,0.4-0.5,0.9-0.7c0.5-0.1,1,0,1.4,0.5c0.4,0.4,0.6,0.8,0.7,1.1c0,0.3-0.1,0.8-0.4,1.5c-0.3,0.7-0.7,1.8-1.4,3.4
				c-0.3,0.4-0.6,1-0.9,1.9c-0.3,0.9-0.6,1.7-0.9,2.4c-0.6,1.3-1,2.5-1.4,3.4c-0.3,0.9-0.7,1.9-1,2.9c-0.3,1.1-0.6,2.3-0.9,3.6
				c-0.4,1.3-0.7,2.6-1.1,3.8l-0.9,0.3c0.3-0.3,0.6-0.7,1-1.2c0.4-0.5,0.8-0.9,1.1-1.3c0.4-0.4,0.6-0.6,0.7-0.7
				c1-0.9,2.2-1.7,3.4-2.4c1.3-0.7,2.4-1.3,3.6-1.7c1.1-0.4,2-0.5,2.5-0.2c0.5,0.2,1,0.5,1.7,1.2c0.7,0.6,1.1,1.3,1.2,1.8
				c0.3,0.6,0.4,1.3,0.2,2.1c-0.2,0.8-0.6,1.9-1.4,3.2c-0.6,1.2-1.4,2.3-2.2,3.4c-0.8,1.1-1.6,2-2.4,2.7c-0.3,0.2-0.6,0.4-1,0.8
				c-0.4,0.4-0.7,0.7-1.1,1.1c-0.8,0.7-1.7,1.3-2.8,1.7c-1.1,0.4-2.2,0.7-3.2,0.8c-1.1,0.1-2,0-2.8-0.3
				C219.9,56.3,219.4,55.9,219.1,55.3z M220,53.7c0.2,0,0.4,0.1,0.6,0.1c0.2,0,0.4,0,0.6,0c0.8-0.1,1.5-0.2,2.1-0.4
				c0.6-0.1,1.2-0.3,1.7-0.6c0.6-0.2,1.2-0.6,1.9-1c1-0.8,1.9-1.5,2.7-2.2c0.8-0.7,1.6-1.6,2.3-2.5c0.6-0.8,1.2-1.8,1.7-3
				c0.5-1.1,0.8-2,0.8-2.7c0-0.3-0.1-0.5-0.3-0.5c-0.1,0-0.4,0.1-1,0.3c-0.6,0.2-1.2,0.5-1.8,0.7c-0.6,0.3-1,0.5-1.2,0.7
				c0,0.2-0.2,0.3-0.7,0.5c-1.2,0.9-2.1,1.6-2.8,2.2s-1.3,1.2-1.7,1.8c-0.3,0.4-0.5,0.7-0.7,0.9c-0.2,0.2-0.4,0.5-0.5,0.8
				c-0.2,0.3-0.4,0.6-0.7,1c-0.3,0.4-0.7,1-1.1,1.7c-0.3,0.5-0.6,1-1,1.4s-0.7,0.7-0.9,0.8V53.7z"/>
			<path id="XMLID_250_" class="st2" d="M244.2,55.1c-0.3,0-0.5,0-0.8,0c-0.3-0.1-0.6-0.2-0.8-0.4c-0.3-0.3-0.5-0.5-0.6-0.7
				c-0.1-0.2-0.1-0.4-0.1-0.8c0.1-0.4,0.2-1,0.4-1.8c0.2-0.6,0.4-1.4,0.7-2.5c0.3-1.1,0.5-2.1,0.9-3.2c0.1-0.6,0.3-1.2,0.5-1.9
				c0.2-0.6,0.4-1.2,0.7-1.8c0.2-0.5,0.4-1,0.5-1.3c0.3-1.1,0.6-2,0.9-2.8s0.6-1.7,1.1-2.8c0.4-1,0.9-2.4,1.5-4.2
				c0.8-2.3,1.5-4,1.9-5.2s0.8-2.1,1-2.6c0.2-0.5,0.4-1,0.4-1.3c0-0.3,0.1-0.5,0.3-0.7c0.2-0.2,0.4-0.2,0.7-0.2c0.5,0,1,0.3,1.3,0.8
				c0.3,0.5,0.5,1.1,0.6,1.8c0.1,0.7,0,1.4-0.3,2c-0.6,1.4-1.3,3-1.9,4.9c-0.7,1.9-1.3,3.7-2,5.5c-0.6,1.8-1.3,3.3-1.8,4.6
				c0,0.2-0.1,0.4-0.2,0.8c-0.1,0.4-0.2,0.7-0.4,1c-0.2,0.3-0.4,0.7-0.6,1.3c0,0.2-0.1,0.4-0.2,0.9c-0.1,0.4-0.3,0.9-0.5,1.5
				c-0.2,0.5-0.3,1-0.5,1.8c-0.2,0.7-0.4,1.3-0.4,1.8c0.2-0.3,0.6-0.9,1.2-1.5c0.6-0.7,1.2-1.3,1.7-1.8c0.6-0.5,1.3-1.1,2-1.8
				c0.8-0.6,1.4-1.1,1.8-1.4c0.5-0.3,1-0.7,1.8-1.2c0-0.2,0.1-0.2,0.2-0.3c0.1,0,0.3,0,0.4,0c0.2,0,0.2,0,0.3-0.1c0,0,0-0.1,0-0.3
				c0-0.2,0.2-0.4,0.7-0.5c0.4-0.2,0.9-0.3,1.5-0.4c0.6-0.1,1.1-0.1,1.4-0.1c0.5,0,0.8,0.1,1.1,0.3c0.3,0.2,0.6,0.6,1,1.3
				c0.5,0.6,0.7,1.3,0.9,2.2c0.1,0.9,0,1.7-0.3,2.6c0,0.3,0,0.7-0.1,1.3c-0.1,0.5-0.1,1.1-0.1,1.7l-0.3,1.8h0.9
				c0.3,0,0.7,0.1,1.3,0.3c0.2,0.2,0.3,0.3,0.5,0.4c0.2,0.1,0.3,0.2,0.5,0.2c0.5,0,0.6,0.2,0.5,0.5c-0.1,0.4-0.4,0.7-0.9,1
				c-0.9,0.6-1.7,0.9-2.5,0.9s-1.4-0.3-2-0.9c-0.6-0.6-1-1.4-1.1-2.2c-0.2-0.8-0.1-1.8,0.2-3c0.2-1.7,0.2-2.9,0.3-3.7
				c0-0.8-0.2-1.2-0.6-1.2c-0.4,0-1,0.3-2,0.8c-0.9,0.5-2,1.2-3.2,2.1c-1.2,0.9-2.3,1.8-3.5,2.9c-1.1,1.1-2.1,2.2-2.8,3.3
				c-0.5,0.6-0.9,1.1-1.3,1.5C245,54.8,244.6,55,244.2,55.1z"/>
			<path id="XMLID_247_" class="st2" d="M273.2,56.3c-0.5,0.1-0.9,0-1.5-0.2c-0.5-0.2-1-0.5-1.4-1c-0.4-0.4-0.7-0.9-0.8-1.3
				c-0.2-0.8,0-1.8,0.3-3c0.4-1.2,0.9-2.5,1.6-3.8c0.7-1.3,1.5-2.6,2.4-3.9c0.9-1.3,1.8-2.3,2.8-3.3c1-0.9,1.9-1.6,2.7-1.9
				c0.4-0.3,0.7-0.4,1-0.5c0.2-0.1,0.5-0.1,0.8,0c0.3,0.1,0.7,0.3,1.3,0.6c0.5,0.2,0.9,0.3,1.2,0.5c0.3,0.2,0.6,0.6,1,1.1
				c0.3,0.6,0.5,1.1,0.7,1.7c0.2,0.6,0.3,1.2,0.4,1.9c0.3,0.9,0.4,1.6,0.3,1.8c-0.1,0.3-0.2,0.5-0.3,0.7c-0.3,0.4-0.4,0.6-0.2,0.6
				c0,0.3-0.1,0.5-0.3,0.8c-0.3,0.8-0.5,1.7-0.6,2.6c-0.1,0.9-0.1,1.6,0,2.2c0.3,0.8,0.9,1.3,1.6,1.5c0.8,0.2,1.6-0.2,2.4-1
				c0.4-0.3,0.8-0.6,1.2-0.8c0.4-0.2,0.6-0.2,0.6,0.1c0.2,0.2,0.4,0.3,0.6,0.3c0.2,0,0.3,0.1,0.4,0.2c0.1,0.2,0.1,0.4,0,0.6
				c-0.1,0.2-0.2,0.5-0.4,0.8c-0.6,0.6-0.9,0.9-0.9,1.1c-0.3,0.3-0.5,0.5-0.9,0.8c-0.7,0.4-1.5,0.6-2.6,0.6c-1,0-1.8-0.2-2.4-0.6
				c-0.6-0.4-1.1-1-1.6-1.7c-0.5-0.7-0.8-1.3-0.9-1.9l-0.3-0.6l-1.6,1.1c-0.4,0.4-0.9,0.8-1.3,1.2c-0.5,0.4-0.8,0.6-0.9,0.8
				c-0.1,0.2-0.2,0.3-0.4,0.4c-0.1,0.1-0.3,0.2-0.4,0.2c-0.2,0-0.3,0-0.6,0c0,0.2-0.2,0.3-0.5,0.6c-0.4,0.2-0.8,0.4-1.3,0.6
				C274,56.2,273.6,56.3,273.2,56.3z M273.8,52.7c0.6-0.4,1.3-0.8,2-1.3c0.7-0.5,1.4-1,2-1.5c0.6-0.5,1-0.9,1.2-1.1
				c0.2-0.2,0.4-0.4,0.7-0.8c0.3-0.4,0.6-0.7,0.9-0.9c0.9-1,1.5-2.1,1.8-3.3c0.3-1.2,0.3-2.1-0.1-2.8c-0.2-0.4-0.3-0.6-0.6-0.7
				c-0.2,0-0.7,0.1-1.4,0.4c-0.5,0.3-1,0.8-1.7,1.5c-0.7,0.7-1.4,1.6-2.1,2.6c-0.7,1-1.4,2-2.1,3c-0.6,1-1.2,2-1.6,2.8
				c-0.4,0.9-0.6,1.6-0.6,2c0,0.2,0.1,0.3,0.3,0.6C272.8,53.2,273.3,53,273.8,52.7z"/>
		</g>
	</g>
	<path id="XMLID_101_" class="st1" d="M42.3,54.7l-12,23.6c-0.1,0.3-0.1,0.6,0.1,0.8L40,92.8c0.1,0.2,0.2,0.3,0.1,0.5l-0.4,3.6
		c-0.1,0.5,0.3,0.9,0.8,0.9h14.4c0.4,0,0.8-0.4,0.8-0.8l-0.5-13.1c0-0.2-0.1-0.4-0.2-0.5L43.7,72c-0.4-0.4-1.1-0.3-1.3,0.3l-1.5,4
		c-0.1,0.2-0.1,0.5,0.1,0.7l4.5,7.3c0.1,0.1,0.1,0.2,0.1,0.3l0.1,0.6c0.1,0.9-1.2,1.2-1.5,0.3v0c0-0.1,0-0.1-0.1-0.2l-5.3-7.8
		c-0.1-0.2-0.2-0.5-0.1-0.7l4.9-13.5C43.7,63.3,45.9,57.3,42.3,54.7"/>
	<g id="XMLID_16_">
		<g id="XMLID_932_">
			<path id="XMLID_1024_" class="st3" d="M25.3,118.4c0,0.1,0,0.1,0,0.2c0,0.1-0.1,0.1-0.1,0.1c0,0-0.1,0.1-0.1,0.1s-0.1,0-0.2,0
				h-0.3c-0.1,0-0.2,0-0.3,0s-0.2-0.1-0.2-0.1c-0.1-0.1-0.1-0.1-0.2-0.2c-0.1-0.1-0.1-0.2-0.2-0.4l-2.3-4.3
				c-0.1-0.2-0.2-0.5-0.4-0.7c-0.1-0.2-0.2-0.5-0.3-0.7h0c0,0.3,0,0.6,0,0.9c0,0.3,0,0.6,0,0.9v4.6c0,0,0,0.1,0,0.1c0,0,0,0-0.1,0.1
				s-0.1,0-0.2,0c-0.1,0-0.1,0-0.2,0c-0.1,0-0.2,0-0.2,0c-0.1,0-0.1,0-0.2,0c0,0-0.1,0-0.1-0.1c0,0,0-0.1,0-0.1v-7
				c0-0.2,0-0.3,0.1-0.3c0.1-0.1,0.2-0.1,0.3-0.1h0.5c0.1,0,0.2,0,0.3,0c0.1,0,0.1,0.1,0.2,0.1c0.1,0,0.1,0.1,0.2,0.2
				s0.1,0.2,0.2,0.3l1.8,3.3c0.1,0.2,0.2,0.4,0.3,0.6c0.1,0.2,0.2,0.4,0.3,0.6c0.1,0.2,0.2,0.4,0.3,0.6c0.1,0.2,0.2,0.4,0.3,0.6h0
				c0-0.3,0-0.6,0-1s0-0.7,0-1v-4.1c0,0,0-0.1,0-0.1s0,0,0.1-0.1c0,0,0.1,0,0.2,0c0.1,0,0.1,0,0.3,0c0.1,0,0.2,0,0.2,0
				c0.1,0,0.1,0,0.2,0c0,0,0.1,0,0.1,0.1s0,0,0,0.1V118.4z"/>
			<path id="XMLID_1022_" class="st3" d="M32.7,118.7C32.7,118.7,32.7,118.7,32.7,118.7c0,0.1-0.1,0.1-0.1,0.1c0,0-0.1,0-0.1,0
				c-0.1,0-0.1,0-0.2,0c-0.1,0-0.2,0-0.2,0c-0.1,0-0.1,0-0.1,0s-0.1,0-0.1-0.1c0,0,0,0,0-0.1V118c-0.3,0.3-0.6,0.6-0.9,0.7
				c-0.3,0.2-0.6,0.2-0.9,0.2c-0.4,0-0.7-0.1-0.9-0.2s-0.4-0.3-0.6-0.5c-0.1-0.2-0.3-0.4-0.3-0.7c-0.1-0.3-0.1-0.6-0.1-1v-3.2
				c0,0,0-0.1,0-0.1c0,0,0,0,0.1-0.1c0,0,0.1,0,0.2,0c0.1,0,0.1,0,0.2,0s0.2,0,0.2,0c0.1,0,0.1,0,0.1,0s0.1,0,0.1,0.1s0,0,0,0.1v3.1
				c0,0.3,0,0.6,0.1,0.7c0,0.2,0.1,0.3,0.2,0.5s0.2,0.2,0.4,0.3c0.1,0.1,0.3,0.1,0.5,0.1c0.2,0,0.5-0.1,0.7-0.3
				c0.2-0.2,0.5-0.4,0.8-0.8v-3.7c0,0,0-0.1,0-0.1s0,0,0.1-0.1c0,0,0.1,0,0.2,0c0.1,0,0.1,0,0.2,0c0.1,0,0.2,0,0.2,0
				c0.1,0,0.1,0,0.1,0s0.1,0,0.1,0.1s0,0,0,0.1V118.7z"/>
			<path id="XMLID_1020_" class="st3" d="M38.5,113.7c0,0.1,0,0.2,0,0.2c0,0.1,0,0.1,0,0.1s0,0.1,0,0.1s0,0-0.1,0s-0.1,0-0.1,0
				c0,0-0.1,0-0.2-0.1c-0.1,0-0.1,0-0.2,0c-0.1,0-0.1,0-0.2,0c-0.1,0-0.2,0-0.3,0.1s-0.2,0.1-0.3,0.2s-0.2,0.2-0.3,0.4
				s-0.2,0.3-0.4,0.5v3.5c0,0,0,0.1,0,0.1c0,0,0,0-0.1,0.1c0,0-0.1,0-0.1,0c-0.1,0-0.1,0-0.2,0c-0.1,0-0.2,0-0.2,0
				c-0.1,0-0.1,0-0.1,0c0,0-0.1,0-0.1-0.1c0,0,0,0,0-0.1v-5.3c0,0,0-0.1,0-0.1s0,0,0.1-0.1c0,0,0.1,0,0.1,0c0.1,0,0.1,0,0.2,0
				c0.1,0,0.2,0,0.2,0c0.1,0,0.1,0,0.1,0c0,0,0.1,0,0.1,0.1s0,0,0,0.1v0.8c0.1-0.2,0.3-0.4,0.4-0.5s0.2-0.2,0.4-0.3
				c0.1-0.1,0.2-0.1,0.3-0.2s0.2,0,0.3,0c0.1,0,0.1,0,0.2,0c0.1,0,0.1,0,0.2,0c0.1,0,0.1,0,0.2,0.1c0.1,0,0.1,0,0.1,0.1s0,0,0,0.1
				c0,0,0,0,0,0.1s0,0.1,0,0.1C38.5,113.6,38.5,113.6,38.5,113.7z"/>
			<path id="XMLID_1018_" class="st3" d="M43.4,118.3c0,0.1,0,0.2,0,0.3c0,0.1,0,0.1-0.1,0.1c0,0-0.1,0.1-0.1,0.1
				c-0.1,0-0.1,0-0.2,0.1c-0.1,0-0.2,0-0.3,0c-0.1,0-0.2,0-0.3,0c-0.3,0-0.5,0-0.7-0.1c-0.2-0.1-0.4-0.2-0.5-0.3s-0.2-0.3-0.3-0.6
				c-0.1-0.2-0.1-0.5-0.1-0.8V114h-0.7c-0.1,0-0.1,0-0.1-0.1c0-0.1-0.1-0.2-0.1-0.3c0-0.1,0-0.1,0-0.2c0-0.1,0-0.1,0-0.1
				c0,0,0-0.1,0.1-0.1c0,0,0.1,0,0.1,0h0.7V112c0,0,0-0.1,0-0.1s0,0,0.1-0.1c0,0,0.1,0,0.1,0c0.1,0,0.1,0,0.2,0c0.1,0,0.2,0,0.2,0
				c0.1,0,0.1,0,0.1,0c0,0,0.1,0,0.1,0.1s0,0,0,0.1v1.3h1.4c0,0,0.1,0,0.1,0c0,0,0,0,0.1,0.1c0,0,0,0.1,0,0.1c0,0.1,0,0.1,0,0.2
				c0,0.1,0,0.2-0.1,0.3c0,0.1-0.1,0.1-0.1,0.1h-1.4v3c0,0.4,0.1,0.6,0.2,0.8c0.1,0.2,0.3,0.3,0.6,0.3c0.1,0,0.2,0,0.2,0
				c0.1,0,0.1,0,0.2-0.1c0.1,0,0.1,0,0.1-0.1c0,0,0.1,0,0.1,0c0,0,0,0,0.1,0c0,0,0,0,0,0.1s0,0.1,0,0.1
				C43.4,118.2,43.4,118.2,43.4,118.3z"/>
			<path id="XMLID_1016_" class="st3" d="M50.2,118.7C50.2,118.7,50.1,118.7,50.2,118.7c0,0.1-0.1,0.1-0.1,0.1c0,0-0.1,0-0.1,0
				c-0.1,0-0.1,0-0.2,0c-0.1,0-0.2,0-0.2,0c-0.1,0-0.1,0-0.1,0s-0.1,0-0.1-0.1c0,0,0,0,0-0.1V118c-0.3,0.3-0.6,0.6-0.9,0.7
				c-0.3,0.2-0.6,0.2-0.9,0.2c-0.4,0-0.7-0.1-0.9-0.2s-0.4-0.3-0.6-0.5c-0.1-0.2-0.3-0.4-0.3-0.7c-0.1-0.3-0.1-0.6-0.1-1v-3.2
				c0,0,0-0.1,0-0.1c0,0,0,0,0.1-0.1c0,0,0.1,0,0.2,0c0.1,0,0.1,0,0.2,0s0.2,0,0.2,0c0.1,0,0.1,0,0.1,0s0.1,0,0.1,0.1s0,0,0,0.1v3.1
				c0,0.3,0,0.6,0.1,0.7c0,0.2,0.1,0.3,0.2,0.5s0.2,0.2,0.4,0.3c0.1,0.1,0.3,0.1,0.5,0.1c0.2,0,0.5-0.1,0.7-0.3
				c0.2-0.2,0.5-0.4,0.8-0.8v-3.7c0,0,0-0.1,0-0.1s0,0,0.1-0.1c0,0,0.1,0,0.2,0c0.1,0,0.1,0,0.2,0c0.1,0,0.2,0,0.2,0
				c0.1,0,0.1,0,0.1,0s0.1,0,0.1,0.1s0,0,0,0.1V118.7z"/>
			<path id="XMLID_1014_" class="st3" d="M56,113.7c0,0.1,0,0.2,0,0.2c0,0.1,0,0.1,0,0.1s0,0.1,0,0.1s0,0-0.1,0s-0.1,0-0.1,0
				c0,0-0.1,0-0.2-0.1c-0.1,0-0.1,0-0.2,0c-0.1,0-0.1,0-0.2,0c-0.1,0-0.2,0-0.3,0.1s-0.2,0.1-0.3,0.2s-0.2,0.2-0.3,0.4
				s-0.2,0.3-0.4,0.5v3.5c0,0,0,0.1,0,0.1c0,0,0,0-0.1,0.1c0,0-0.1,0-0.1,0c-0.1,0-0.1,0-0.2,0c-0.1,0-0.2,0-0.2,0
				c-0.1,0-0.1,0-0.1,0c0,0-0.1,0-0.1-0.1c0,0,0,0,0-0.1v-5.3c0,0,0-0.1,0-0.1s0,0,0.1-0.1c0,0,0.1,0,0.1,0c0.1,0,0.1,0,0.2,0
				c0.1,0,0.2,0,0.2,0c0.1,0,0.1,0,0.1,0c0,0,0.1,0,0.1,0.1s0,0,0,0.1v0.8c0.1-0.2,0.3-0.4,0.4-0.5s0.2-0.2,0.4-0.3
				c0.1-0.1,0.2-0.1,0.3-0.2s0.2,0,0.3,0c0.1,0,0.1,0,0.2,0c0.1,0,0.1,0,0.2,0c0.1,0,0.1,0,0.2,0.1c0.1,0,0.1,0,0.1,0.1s0,0,0,0.1
				c0,0,0,0,0,0.1s0,0.1,0,0.1C56,113.6,56,113.6,56,113.7z"/>
			<path id="XMLID_1011_" class="st3" d="M59.2,111.6c0,0.2,0,0.4-0.1,0.5c-0.1,0.1-0.2,0.1-0.5,0.1c-0.2,0-0.4,0-0.5-0.1
				c-0.1-0.1-0.1-0.2-0.1-0.5c0-0.2,0-0.4,0.1-0.5c0.1-0.1,0.2-0.1,0.5-0.1c0.2,0,0.4,0,0.5,0.1C59.1,111.2,59.2,111.4,59.2,111.6z
				 M59,118.7C59,118.7,59,118.7,59,118.7c0,0.1-0.1,0.1-0.1,0.1c0,0-0.1,0-0.1,0c-0.1,0-0.1,0-0.2,0c-0.1,0-0.2,0-0.2,0
				c-0.1,0-0.1,0-0.1,0c0,0-0.1,0-0.1-0.1c0,0,0,0,0-0.1v-5.3c0,0,0-0.1,0-0.1s0,0,0.1-0.1c0,0,0.1,0,0.1,0c0.1,0,0.1,0,0.2,0
				c0.1,0,0.2,0,0.2,0c0.1,0,0.1,0,0.1,0c0,0,0.1,0,0.1,0.1s0,0,0,0.1V118.7z"/>
			<path id="XMLID_1009_" class="st3" d="M66.4,118.7C66.4,118.7,66.4,118.7,66.4,118.7c0,0.1-0.1,0.1-0.1,0.1c0,0-0.1,0-0.1,0
				s-0.1,0-0.2,0c-0.1,0-0.2,0-0.2,0c-0.1,0-0.1,0-0.1,0c0,0-0.1,0-0.1-0.1c0,0,0,0,0-0.1v-3.1c0-0.3,0-0.5-0.1-0.7
				c0-0.2-0.1-0.3-0.2-0.5c-0.1-0.1-0.2-0.2-0.4-0.3c-0.1-0.1-0.3-0.1-0.5-0.1c-0.2,0-0.5,0.1-0.7,0.3c-0.2,0.2-0.5,0.4-0.8,0.8v3.7
				c0,0,0,0.1,0,0.1c0,0,0,0-0.1,0.1c0,0-0.1,0-0.1,0c-0.1,0-0.1,0-0.2,0c-0.1,0-0.2,0-0.2,0c-0.1,0-0.1,0-0.1,0c0,0-0.1,0-0.1-0.1
				c0,0,0,0,0-0.1v-5.3c0,0,0-0.1,0-0.1s0,0,0.1-0.1c0,0,0.1,0,0.1,0c0.1,0,0.1,0,0.2,0c0.1,0,0.2,0,0.2,0c0.1,0,0.1,0,0.1,0
				c0,0,0.1,0,0.1,0.1s0,0,0,0.1v0.7c0.3-0.3,0.6-0.6,0.9-0.7c0.3-0.2,0.6-0.2,0.9-0.2c0.4,0,0.6,0.1,0.9,0.2
				c0.2,0.1,0.4,0.3,0.6,0.5c0.1,0.2,0.3,0.4,0.3,0.7c0.1,0.3,0.1,0.6,0.1,1V118.7z"/>
			<path id="XMLID_1005_" class="st3" d="M73.5,113.6c0,0.1,0,0.2-0.1,0.3c0,0.1-0.1,0.1-0.1,0.1h-0.8c0.1,0.1,0.2,0.3,0.3,0.5
				c0.1,0.2,0.1,0.3,0.1,0.5c0,0.3,0,0.6-0.1,0.8c-0.1,0.2-0.2,0.4-0.4,0.6c-0.2,0.2-0.4,0.3-0.7,0.4c-0.3,0.1-0.5,0.1-0.8,0.1
				c-0.2,0-0.4,0-0.6-0.1c-0.2-0.1-0.3-0.1-0.5-0.2c-0.1,0.1-0.1,0.2-0.2,0.2c0,0.1-0.1,0.2-0.1,0.3c0,0.1,0.1,0.3,0.2,0.3
				c0.1,0.1,0.3,0.1,0.5,0.1l1.4,0.1c0.3,0,0.5,0,0.7,0.1c0.2,0.1,0.4,0.2,0.6,0.3s0.3,0.3,0.4,0.4c0.1,0.2,0.1,0.4,0.1,0.6
				c0,0.2-0.1,0.5-0.2,0.7s-0.3,0.4-0.5,0.6c-0.2,0.2-0.5,0.3-0.8,0.4s-0.7,0.1-1.2,0.1c-0.4,0-0.8,0-1.1-0.1
				c-0.3-0.1-0.5-0.2-0.7-0.3c-0.2-0.1-0.3-0.3-0.4-0.5c-0.1-0.2-0.1-0.4-0.1-0.6c0-0.1,0-0.3,0-0.4s0.1-0.2,0.1-0.3
				c0.1-0.1,0.1-0.2,0.2-0.3s0.2-0.2,0.3-0.3c-0.2-0.1-0.3-0.2-0.4-0.4c-0.1-0.1-0.1-0.3-0.1-0.5c0-0.2,0-0.5,0.1-0.6
				c0.1-0.2,0.2-0.4,0.4-0.5c-0.1-0.1-0.2-0.3-0.3-0.5c-0.1-0.2-0.1-0.4-0.1-0.7c0-0.3,0.1-0.6,0.2-0.8c0.1-0.2,0.2-0.4,0.4-0.6
				c0.2-0.2,0.4-0.3,0.7-0.4s0.5-0.1,0.8-0.1c0.2,0,0.3,0,0.5,0s0.3,0,0.4,0.1h1.6c0.1,0,0.1,0,0.2,0.1
				C73.5,113.4,73.5,113.5,73.5,113.6z M72.5,119.2c0-0.2-0.1-0.4-0.3-0.5c-0.2-0.1-0.4-0.2-0.8-0.2l-1.4,0
				c-0.1,0.1-0.2,0.2-0.3,0.3c-0.1,0.1-0.1,0.2-0.2,0.3c0,0.1-0.1,0.2-0.1,0.2c0,0.1,0,0.2,0,0.2c0,0.3,0.1,0.4,0.4,0.6
				c0.3,0.1,0.6,0.2,1.1,0.2c0.3,0,0.5,0,0.7-0.1c0.2-0.1,0.4-0.1,0.5-0.2c0.1-0.1,0.2-0.2,0.3-0.3
				C72.5,119.5,72.5,119.4,72.5,119.2z M72,115c0-0.4-0.1-0.6-0.3-0.8c-0.2-0.2-0.5-0.3-0.8-0.3c-0.2,0-0.4,0-0.5,0.1
				c-0.1,0.1-0.3,0.1-0.3,0.3c-0.1,0.1-0.2,0.2-0.2,0.4c0,0.1-0.1,0.3-0.1,0.5c0,0.3,0.1,0.6,0.3,0.8c0.2,0.2,0.5,0.3,0.8,0.3
				c0.2,0,0.4,0,0.5-0.1c0.1-0.1,0.3-0.1,0.4-0.3c0.1-0.1,0.2-0.2,0.2-0.4C72,115.3,72,115.2,72,115z"/>
			<path id="XMLID_1003_" class="st3" d="M84.3,111.7c0,0.1,0,0.1,0,0.2c0,0.1,0,0.1,0,0.1c0,0,0,0.1-0.1,0.1c0,0-0.1,0-0.1,0H82
				v6.6c0,0,0,0.1,0,0.1c0,0,0,0-0.1,0.1c0,0-0.1,0-0.2,0c-0.1,0-0.1,0-0.2,0c-0.1,0-0.2,0-0.2,0c-0.1,0-0.1,0-0.2,0s-0.1,0-0.1-0.1
				c0,0,0-0.1,0-0.1v-6.6h-2.1c0,0-0.1,0-0.1,0c0,0,0,0-0.1-0.1s0-0.1,0-0.1c0-0.1,0-0.1,0-0.2s0-0.1,0-0.2c0-0.1,0-0.1,0-0.1
				s0-0.1,0.1-0.1c0,0,0.1,0,0.1,0h5.3c0,0,0.1,0,0.1,0c0,0,0,0,0.1,0.1c0,0,0,0.1,0,0.1C84.3,111.5,84.3,111.6,84.3,111.7z"/>
			<path id="XMLID_1000_" class="st3" d="M89.3,118.7c0,0,0,0.1,0,0.1c0,0-0.1,0-0.1,0.1c-0.1,0-0.1,0-0.2,0c-0.1,0-0.2,0-0.2,0
				c-0.1,0-0.1,0-0.1-0.1c0,0,0-0.1,0-0.1v-0.5c-0.2,0.2-0.5,0.4-0.8,0.6c-0.3,0.1-0.6,0.2-0.9,0.2c-0.3,0-0.5,0-0.8-0.1
				s-0.4-0.2-0.6-0.3c-0.2-0.1-0.3-0.3-0.4-0.5s-0.1-0.4-0.1-0.7c0-0.3,0.1-0.6,0.2-0.8s0.3-0.4,0.5-0.5c0.2-0.1,0.5-0.3,0.8-0.3
				s0.7-0.1,1.1-0.1h0.7v-0.4c0-0.2,0-0.4-0.1-0.5c0-0.2-0.1-0.3-0.2-0.4c-0.1-0.1-0.2-0.2-0.4-0.2c-0.2-0.1-0.3-0.1-0.6-0.1
				c-0.2,0-0.5,0-0.6,0.1c-0.2,0.1-0.4,0.1-0.5,0.2c-0.1,0.1-0.3,0.1-0.4,0.2c-0.1,0.1-0.2,0.1-0.2,0.1c0,0-0.1,0-0.1,0s0,0-0.1-0.1
				c0,0,0-0.1,0-0.1c0,0,0-0.1,0-0.2c0-0.1,0-0.2,0-0.2s0-0.1,0.1-0.2c0.1-0.1,0.1-0.1,0.3-0.2c0.1-0.1,0.3-0.1,0.4-0.2
				c0.2-0.1,0.4-0.1,0.6-0.1c0.2,0,0.4-0.1,0.6-0.1c0.4,0,0.7,0,1,0.1c0.3,0.1,0.5,0.2,0.6,0.4c0.2,0.2,0.3,0.4,0.4,0.6
				c0.1,0.2,0.1,0.5,0.1,0.9V118.7z M88.3,116.3h-0.8c-0.3,0-0.5,0-0.7,0.1c-0.2,0-0.4,0.1-0.5,0.2c-0.1,0.1-0.2,0.2-0.3,0.3
				s-0.1,0.3-0.1,0.4c0,0.3,0.1,0.5,0.3,0.7c0.2,0.2,0.4,0.2,0.7,0.2c0.3,0,0.5-0.1,0.7-0.2s0.4-0.3,0.7-0.6V116.3z"/>
			<path id="XMLID_998_" class="st3" d="M93,118.7C93,118.7,93,118.7,93,118.7c0,0.1-0.1,0.1-0.1,0.1c0,0-0.1,0-0.1,0
				c-0.1,0-0.1,0-0.2,0c-0.1,0-0.2,0-0.2,0c-0.1,0-0.1,0-0.1,0c0,0-0.1,0-0.1-0.1c0,0,0,0,0-0.1v-7.9c0,0,0-0.1,0-0.1s0,0,0.1-0.1
				c0,0,0.1,0,0.1,0c0.1,0,0.1,0,0.2,0c0.1,0,0.2,0,0.2,0c0.1,0,0.1,0,0.1,0c0,0,0.1,0,0.1,0.1s0,0.1,0,0.1V118.7z"/>
			<path id="XMLID_995_" class="st3" d="M100.3,115.8c0,0.2,0,0.3-0.1,0.3c-0.1,0.1-0.2,0.1-0.3,0.1h-3.5c0,0.3,0,0.6,0.1,0.8
				s0.2,0.4,0.3,0.6c0.1,0.2,0.3,0.3,0.5,0.4c0.2,0.1,0.5,0.1,0.8,0.1c0.3,0,0.5,0,0.7-0.1c0.2,0,0.4-0.1,0.5-0.1
				c0.1-0.1,0.3-0.1,0.4-0.1c0.1,0,0.2-0.1,0.2-0.1c0,0,0.1,0,0.1,0c0,0,0,0,0.1,0.1c0,0,0,0.1,0,0.1c0,0,0,0.1,0,0.2
				c0,0.1,0,0.1,0,0.1c0,0,0,0.1,0,0.1s0,0.1,0,0.1c0,0,0,0-0.1,0.1s-0.1,0.1-0.2,0.1c-0.1,0-0.2,0.1-0.4,0.1
				c-0.2,0-0.4,0.1-0.6,0.1c-0.2,0-0.5,0.1-0.7,0.1c-0.4,0-0.8-0.1-1.1-0.2c-0.3-0.1-0.6-0.3-0.8-0.5s-0.4-0.5-0.5-0.9
				s-0.2-0.8-0.2-1.3c0-0.5,0.1-0.9,0.2-1.2c0.1-0.4,0.3-0.7,0.5-0.9c0.2-0.3,0.5-0.4,0.8-0.6c0.3-0.1,0.7-0.2,1.1-0.2
				c0.4,0,0.8,0.1,1.1,0.2c0.3,0.1,0.5,0.3,0.7,0.5c0.2,0.2,0.3,0.5,0.4,0.8c0.1,0.3,0.1,0.6,0.1,1V115.8z M99.3,115.5
				c0-0.5-0.1-0.9-0.3-1.2c-0.2-0.3-0.6-0.4-1.1-0.4c-0.2,0-0.5,0-0.6,0.1c-0.2,0.1-0.3,0.2-0.5,0.4c-0.1,0.1-0.2,0.3-0.3,0.5
				c-0.1,0.2-0.1,0.4-0.1,0.6H99.3z"/>
			<path id="XMLID_993_" class="st3" d="M107.3,118.7C107.3,118.7,107.3,118.7,107.3,118.7c0,0.1-0.1,0.1-0.1,0.1c0,0-0.1,0-0.1,0
				s-0.1,0-0.2,0c-0.1,0-0.2,0-0.2,0c-0.1,0-0.1,0-0.1,0c0,0-0.1,0-0.1-0.1c0,0,0,0,0-0.1v-3.1c0-0.3,0-0.5-0.1-0.7
				c0-0.2-0.1-0.3-0.2-0.5c-0.1-0.1-0.2-0.2-0.4-0.3c-0.1-0.1-0.3-0.1-0.5-0.1c-0.2,0-0.5,0.1-0.7,0.3c-0.2,0.2-0.5,0.4-0.8,0.8v3.7
				c0,0,0,0.1,0,0.1c0,0,0,0-0.1,0.1c0,0-0.1,0-0.1,0c-0.1,0-0.1,0-0.2,0c-0.1,0-0.2,0-0.2,0c-0.1,0-0.1,0-0.1,0c0,0-0.1,0-0.1-0.1
				c0,0,0,0,0-0.1v-5.3c0,0,0-0.1,0-0.1s0,0,0.1-0.1c0,0,0.1,0,0.1,0c0.1,0,0.1,0,0.2,0c0.1,0,0.2,0,0.2,0c0.1,0,0.1,0,0.1,0
				c0,0,0.1,0,0.1,0.1s0,0,0,0.1v0.7c0.3-0.3,0.6-0.6,0.9-0.7c0.3-0.2,0.6-0.2,0.9-0.2c0.4,0,0.6,0.1,0.9,0.2
				c0.2,0.1,0.4,0.3,0.6,0.5c0.1,0.2,0.3,0.4,0.3,0.7c0.1,0.3,0.1,0.6,0.1,1V118.7z"/>
			<path id="XMLID_991_" class="st3" d="M112.7,118.3c0,0.1,0,0.2,0,0.3c0,0.1,0,0.1-0.1,0.1c0,0-0.1,0.1-0.1,0.1
				c-0.1,0-0.1,0-0.2,0.1c-0.1,0-0.2,0-0.3,0c-0.1,0-0.2,0-0.3,0c-0.3,0-0.5,0-0.7-0.1c-0.2-0.1-0.4-0.2-0.5-0.3s-0.2-0.3-0.3-0.6
				c-0.1-0.2-0.1-0.5-0.1-0.8V114h-0.7c-0.1,0-0.1,0-0.1-0.1c0-0.1-0.1-0.2-0.1-0.3c0-0.1,0-0.1,0-0.2c0-0.1,0-0.1,0-0.1
				c0,0,0-0.1,0.1-0.1c0,0,0.1,0,0.1,0h0.7V112c0,0,0-0.1,0-0.1s0,0,0.1-0.1c0,0,0.1,0,0.1,0c0.1,0,0.1,0,0.2,0c0.1,0,0.2,0,0.2,0
				c0.1,0,0.1,0,0.1,0c0,0,0.1,0,0.1,0.1s0,0,0,0.1v1.3h1.4c0,0,0.1,0,0.1,0c0,0,0,0,0.1,0.1c0,0,0,0.1,0,0.1c0,0.1,0,0.1,0,0.2
				c0,0.1,0,0.2-0.1,0.3c0,0.1-0.1,0.1-0.1,0.1h-1.4v3c0,0.4,0.1,0.6,0.2,0.8c0.1,0.2,0.3,0.3,0.6,0.3c0.1,0,0.2,0,0.2,0
				c0.1,0,0.1,0,0.2-0.1c0.1,0,0.1,0,0.1-0.1c0,0,0.1,0,0.1,0c0,0,0,0,0.1,0c0,0,0,0,0,0.1s0,0.1,0,0.1
				C112.7,118.2,112.7,118.2,112.7,118.3z"/>
			<path id="XMLID_989_" class="st3" d="M116.9,115.9c0,0.2,0,0.3-0.1,0.3c0,0.1-0.1,0.1-0.2,0.1h-2.5c-0.1,0-0.1,0-0.2-0.1
				c0-0.1-0.1-0.2-0.1-0.3c0-0.1,0-0.3,0.1-0.3c0-0.1,0.1-0.1,0.2-0.1h2.5c0,0,0.1,0,0.1,0c0,0,0,0,0.1,0.1c0,0,0,0.1,0,0.1
				C116.9,115.7,116.9,115.8,116.9,115.9z"/>
			<path id="XMLID_986_" class="st3" d="M125,118.5c0,0.1,0,0.2,0,0.2c0,0.1,0,0.1,0,0.1s-0.1,0-0.2,0.1c-0.1,0-0.2,0-0.3,0
				s-0.2,0-0.3,0c-0.1,0-0.1,0-0.2,0c0,0-0.1,0-0.1-0.1c0,0,0-0.1-0.1-0.1l-0.7-1.9h-3.2l-0.6,1.8c0,0,0,0.1,0,0.1c0,0,0,0-0.1,0.1
				c0,0-0.1,0-0.2,0c-0.1,0-0.2,0-0.3,0c-0.1,0-0.2,0-0.3,0c-0.1,0-0.1,0-0.2-0.1s0-0.1,0-0.1c0-0.1,0-0.1,0-0.2l2.6-7.1
				c0,0,0-0.1,0.1-0.1s0.1,0,0.1-0.1c0,0,0.1,0,0.2,0c0.1,0,0.2,0,0.3,0c0.1,0,0.2,0,0.3,0c0.1,0,0.1,0,0.2,0c0.1,0,0.1,0,0.1,0.1
				c0,0,0,0.1,0.1,0.1L125,118.5z M121.8,112.2L121.8,112.2l-1.3,3.8h2.6L121.8,112.2z"/>
			<path id="XMLID_984_" class="st3" d="M129.6,118.3c0,0.1,0,0.2,0,0.3c0,0.1,0,0.1-0.1,0.1c0,0-0.1,0.1-0.1,0.1
				c-0.1,0-0.1,0-0.2,0.1c-0.1,0-0.2,0-0.3,0c-0.1,0-0.2,0-0.3,0c-0.3,0-0.5,0-0.7-0.1c-0.2-0.1-0.4-0.2-0.5-0.3s-0.2-0.3-0.3-0.6
				c-0.1-0.2-0.1-0.5-0.1-0.8V114h-0.7c-0.1,0-0.1,0-0.1-0.1c0-0.1-0.1-0.2-0.1-0.3c0-0.1,0-0.1,0-0.2c0-0.1,0-0.1,0-0.1
				c0,0,0-0.1,0.1-0.1c0,0,0.1,0,0.1,0h0.7V112c0,0,0-0.1,0-0.1s0,0,0.1-0.1c0,0,0.1,0,0.1,0c0.1,0,0.1,0,0.2,0c0.1,0,0.2,0,0.2,0
				c0.1,0,0.1,0,0.1,0c0,0,0.1,0,0.1,0.1s0,0,0,0.1v1.3h1.4c0,0,0.1,0,0.1,0c0,0,0,0,0.1,0.1c0,0,0,0.1,0,0.1c0,0.1,0,0.1,0,0.2
				c0,0.1,0,0.2-0.1,0.3c0,0.1-0.1,0.1-0.1,0.1H128v3c0,0.4,0.1,0.6,0.2,0.8c0.1,0.2,0.3,0.3,0.6,0.3c0.1,0,0.2,0,0.2,0
				c0.1,0,0.1,0,0.2-0.1c0.1,0,0.1,0,0.1-0.1c0,0,0.1,0,0.1,0c0,0,0,0,0.1,0c0,0,0,0,0,0.1s0,0.1,0,0.1
				C129.6,118.2,129.6,118.2,129.6,118.3z"/>
			<path id="XMLID_982_" class="st3" d="M138.3,118.3c0,0.1,0,0.2,0,0.3c0,0.1,0,0.1-0.1,0.1c0,0-0.1,0.1-0.1,0.1
				c-0.1,0-0.1,0-0.2,0.1c-0.1,0-0.2,0-0.3,0c-0.1,0-0.2,0-0.3,0c-0.3,0-0.5,0-0.7-0.1c-0.2-0.1-0.4-0.2-0.5-0.3s-0.2-0.3-0.3-0.6
				c-0.1-0.2-0.1-0.5-0.1-0.8V114H135c-0.1,0-0.1,0-0.1-0.1c0-0.1-0.1-0.2-0.1-0.3c0-0.1,0-0.1,0-0.2c0-0.1,0-0.1,0-0.1
				c0,0,0-0.1,0.1-0.1c0,0,0.1,0,0.1,0h0.7V112c0,0,0-0.1,0-0.1s0,0,0.1-0.1c0,0,0.1,0,0.1,0c0.1,0,0.1,0,0.2,0c0.1,0,0.2,0,0.2,0
				c0.1,0,0.1,0,0.1,0c0,0,0.1,0,0.1,0.1s0,0,0,0.1v1.3h1.4c0,0,0.1,0,0.1,0c0,0,0,0,0.1,0.1c0,0,0,0.1,0,0.1c0,0.1,0,0.1,0,0.2
				c0,0.1,0,0.2-0.1,0.3c0,0.1-0.1,0.1-0.1,0.1h-1.4v3c0,0.4,0.1,0.6,0.2,0.8c0.1,0.2,0.3,0.3,0.6,0.3c0.1,0,0.2,0,0.2,0
				c0.1,0,0.1,0,0.2-0.1c0.1,0,0.1,0,0.1-0.1c0,0,0.1,0,0.1,0c0,0,0,0,0.1,0c0,0,0,0,0,0.1s0,0.1,0,0.1
				C138.3,118.2,138.3,118.2,138.3,118.3z"/>
			<path id="XMLID_980_" class="st3" d="M145.1,118.7C145.1,118.7,145.1,118.7,145.1,118.7c0,0.1-0.1,0.1-0.1,0.1c0,0-0.1,0-0.1,0
				s-0.1,0-0.2,0c-0.1,0-0.2,0-0.2,0c-0.1,0-0.1,0-0.1,0c0,0-0.1,0-0.1-0.1c0,0,0,0,0-0.1v-3.1c0-0.3,0-0.5-0.1-0.7
				c0-0.2-0.1-0.3-0.2-0.5c-0.1-0.1-0.2-0.2-0.4-0.3c-0.1-0.1-0.3-0.1-0.5-0.1c-0.2,0-0.5,0.1-0.7,0.3c-0.2,0.2-0.5,0.4-0.8,0.8v3.7
				c0,0,0,0.1,0,0.1c0,0,0,0-0.1,0.1c0,0-0.1,0-0.1,0c-0.1,0-0.1,0-0.2,0c-0.1,0-0.2,0-0.2,0c-0.1,0-0.1,0-0.1,0c0,0-0.1,0-0.1-0.1
				c0,0,0,0,0-0.1v-7.9c0,0,0-0.1,0-0.1s0,0,0.1-0.1c0,0,0.1,0,0.1,0c0.1,0,0.1,0,0.2,0c0.1,0,0.2,0,0.2,0c0.1,0,0.1,0,0.1,0
				c0,0,0.1,0,0.1,0.1s0,0.1,0,0.1v3.2c0.3-0.3,0.6-0.5,0.8-0.7c0.3-0.1,0.6-0.2,0.9-0.2c0.4,0,0.6,0.1,0.9,0.2
				c0.2,0.1,0.4,0.3,0.6,0.5c0.1,0.2,0.3,0.4,0.3,0.7c0.1,0.3,0.1,0.6,0.1,1V118.7z"/>
			<path id="XMLID_977_" class="st3" d="M152.4,115.8c0,0.2,0,0.3-0.1,0.3c-0.1,0.1-0.2,0.1-0.3,0.1h-3.5c0,0.3,0,0.6,0.1,0.8
				s0.2,0.4,0.3,0.6c0.1,0.2,0.3,0.3,0.5,0.4c0.2,0.1,0.5,0.1,0.8,0.1c0.3,0,0.5,0,0.7-0.1c0.2,0,0.4-0.1,0.5-0.1
				c0.1-0.1,0.3-0.1,0.4-0.1c0.1,0,0.2-0.1,0.2-0.1c0,0,0.1,0,0.1,0c0,0,0,0,0.1,0.1c0,0,0,0.1,0,0.1c0,0,0,0.1,0,0.2
				c0,0.1,0,0.1,0,0.1c0,0,0,0.1,0,0.1s0,0.1,0,0.1c0,0,0,0-0.1,0.1s-0.1,0.1-0.2,0.1c-0.1,0-0.2,0.1-0.4,0.1
				c-0.2,0-0.4,0.1-0.6,0.1c-0.2,0-0.5,0.1-0.7,0.1c-0.4,0-0.8-0.1-1.1-0.2c-0.3-0.1-0.6-0.3-0.8-0.5s-0.4-0.5-0.5-0.9
				s-0.2-0.8-0.2-1.3c0-0.5,0.1-0.9,0.2-1.2c0.1-0.4,0.3-0.7,0.5-0.9c0.2-0.3,0.5-0.4,0.8-0.6c0.3-0.1,0.7-0.2,1.1-0.2
				c0.4,0,0.8,0.1,1.1,0.2c0.3,0.1,0.5,0.3,0.7,0.5c0.2,0.2,0.3,0.5,0.4,0.8c0.1,0.3,0.1,0.6,0.1,1V115.8z M151.4,115.5
				c0-0.5-0.1-0.9-0.3-1.2c-0.2-0.3-0.6-0.4-1.1-0.4c-0.2,0-0.5,0-0.6,0.1c-0.2,0.1-0.3,0.2-0.5,0.4c-0.1,0.1-0.2,0.3-0.3,0.5
				c-0.1,0.2-0.1,0.4-0.1,0.6H151.4z"/>
			<path id="XMLID_973_" class="st3" d="M163.6,116.6c0,0.2,0,0.5-0.1,0.7c-0.1,0.2-0.1,0.4-0.3,0.5c-0.1,0.2-0.2,0.3-0.4,0.4
				c-0.2,0.1-0.3,0.2-0.5,0.3c-0.2,0.1-0.4,0.1-0.6,0.2c-0.2,0-0.5,0.1-0.8,0.1h-2c-0.1,0-0.2,0-0.3-0.1c-0.1-0.1-0.1-0.2-0.1-0.3
				v-6.8c0-0.2,0-0.3,0.1-0.3c0.1-0.1,0.2-0.1,0.3-0.1h1.7c0.5,0,0.8,0,1.1,0.1c0.3,0.1,0.5,0.2,0.7,0.4c0.2,0.2,0.3,0.4,0.4,0.6
				c0.1,0.2,0.1,0.5,0.1,0.8c0,0.2,0,0.4-0.1,0.5c0,0.2-0.1,0.3-0.2,0.5c-0.1,0.1-0.2,0.3-0.3,0.4c-0.1,0.1-0.3,0.2-0.4,0.3
				c0.2,0,0.4,0.1,0.6,0.2c0.2,0.1,0.3,0.2,0.5,0.4c0.1,0.2,0.2,0.3,0.3,0.6S163.6,116.4,163.6,116.6z M162.1,113.2
				c0-0.2,0-0.4-0.1-0.5c-0.1-0.1-0.1-0.3-0.2-0.4c-0.1-0.1-0.3-0.2-0.4-0.2c-0.2-0.1-0.4-0.1-0.7-0.1h-1v2.5h1.2
				c0.3,0,0.5,0,0.6-0.1c0.2-0.1,0.3-0.2,0.4-0.3c0.1-0.1,0.2-0.3,0.2-0.4S162.1,113.4,162.1,113.2z M162.5,116.7
				c0-0.2,0-0.4-0.1-0.6c-0.1-0.2-0.2-0.3-0.3-0.4s-0.3-0.2-0.5-0.3c-0.2-0.1-0.5-0.1-0.8-0.1h-1.2v2.7h1.5c0.2,0,0.4,0,0.6-0.1
				c0.2-0.1,0.3-0.1,0.5-0.2s0.2-0.2,0.3-0.4C162.5,117.1,162.5,116.9,162.5,116.7z"/>
			<path id="XMLID_970_" class="st3" d="M170.9,116c0,0.4-0.1,0.8-0.2,1.2s-0.3,0.7-0.5,0.9c-0.2,0.3-0.5,0.5-0.8,0.6
				s-0.7,0.2-1.2,0.2c-0.4,0-0.8-0.1-1.1-0.2s-0.6-0.3-0.8-0.6c-0.2-0.2-0.4-0.5-0.5-0.9s-0.2-0.8-0.2-1.2c0-0.4,0.1-0.8,0.2-1.2
				s0.3-0.7,0.5-0.9s0.5-0.5,0.8-0.6c0.3-0.1,0.7-0.2,1.2-0.2c0.4,0,0.8,0.1,1.1,0.2s0.6,0.3,0.8,0.6s0.4,0.5,0.5,0.9
				S170.9,115.5,170.9,116z M169.9,116c0-0.3,0-0.6-0.1-0.8c-0.1-0.3-0.1-0.5-0.3-0.7c-0.1-0.2-0.3-0.3-0.5-0.5s-0.5-0.2-0.8-0.2
				c-0.3,0-0.5,0.1-0.7,0.2c-0.2,0.1-0.4,0.2-0.5,0.4c-0.1,0.2-0.2,0.4-0.3,0.7c-0.1,0.3-0.1,0.5-0.1,0.8c0,0.3,0,0.6,0.1,0.8
				c0.1,0.3,0.1,0.5,0.3,0.7c0.1,0.2,0.3,0.3,0.5,0.5s0.5,0.2,0.8,0.2c0.3,0,0.5-0.1,0.7-0.2s0.4-0.2,0.5-0.4s0.2-0.4,0.3-0.7
				S169.9,116.3,169.9,116z"/>
			<path id="XMLID_968_" class="st3" d="M179.7,118.3c0,0.1,0,0.2,0,0.3c0,0.1,0,0.1-0.1,0.1s-0.1,0.1-0.1,0.1
				c-0.1,0-0.1,0.1-0.2,0.1c-0.1,0-0.2,0-0.3,0c-0.1,0-0.2,0-0.3,0c-0.3,0-0.5,0-0.7-0.1c-0.2-0.1-0.4-0.2-0.5-0.3s-0.2-0.3-0.3-0.6
				c-0.1-0.2-0.1-0.5-0.1-0.8V114h-2.6v3c0,0.4,0.1,0.6,0.2,0.8c0.1,0.2,0.3,0.3,0.6,0.3c0.1,0,0.2,0,0.2,0c0.1,0,0.1,0,0.2-0.1
				c0.1,0,0.1,0,0.1-0.1c0,0,0.1,0,0.1,0c0,0,0,0,0.1,0c0,0,0,0,0,0.1s0,0.1,0,0.1c0,0,0,0.1,0,0.2c0,0.1,0,0.1,0,0.2
				c0,0,0,0.1,0,0.1s0,0.1,0,0.1c0,0,0,0.1-0.1,0.1c0,0-0.1,0.1-0.1,0.1c-0.1,0-0.1,0-0.2,0.1c-0.1,0-0.2,0-0.3,0
				c-0.1,0-0.2,0-0.3,0c-0.3,0-0.5,0-0.7-0.1c-0.2-0.1-0.4-0.2-0.5-0.3s-0.2-0.3-0.3-0.6c-0.1-0.2-0.1-0.5-0.1-0.8V114h-0.7
				c-0.1,0-0.1,0-0.1-0.1c0-0.1-0.1-0.2-0.1-0.3c0-0.1,0-0.1,0-0.2c0-0.1,0-0.1,0-0.1c0,0,0-0.1,0.1-0.1c0,0,0.1,0,0.1,0h0.7V112
				c0,0,0-0.1,0-0.1s0,0,0.1-0.1c0,0,0.1,0,0.1,0c0.1,0,0.1,0,0.2,0c0.1,0,0.2,0,0.2,0c0.1,0,0.1,0,0.1,0c0,0,0.1,0,0.1,0.1
				s0,0,0,0.1v1.3h2.6v-1.5c0,0,0-0.1,0-0.1s0,0,0.1-0.1c0,0,0.1,0,0.1,0s0.1,0,0.2,0s0.2,0,0.2,0c0.1,0,0.1,0,0.1,0
				c0,0,0.1,0,0.1,0.1s0,0.1,0,0.1v1.5h1.4c0,0,0.1,0,0.1,0s0,0,0.1,0.1c0,0,0,0.1,0,0.1c0,0.1,0,0.1,0,0.2c0,0.1,0,0.2-0.1,0.3
				c0,0.1-0.1,0.1-0.1,0.1h-1.4v3c0,0.4,0.1,0.6,0.2,0.8c0.1,0.2,0.3,0.3,0.6,0.3c0.1,0,0.2,0,0.2,0c0.1,0,0.1,0,0.2-0.1
				c0.1,0,0.1,0,0.1-0.1c0,0,0.1,0,0.1,0c0,0,0,0,0.1,0c0,0,0,0,0,0.1s0,0.1,0,0.1C179.7,118.2,179.7,118.2,179.7,118.3z"/>
			<path id="XMLID_965_" class="st3" d="M186.7,116c0,0.4-0.1,0.8-0.2,1.2s-0.3,0.7-0.5,0.9c-0.2,0.3-0.5,0.5-0.8,0.6
				s-0.7,0.2-1.2,0.2c-0.4,0-0.8-0.1-1.1-0.2s-0.6-0.3-0.8-0.6c-0.2-0.2-0.4-0.5-0.5-0.9s-0.2-0.8-0.2-1.2c0-0.4,0.1-0.8,0.2-1.2
				s0.3-0.7,0.5-0.9s0.5-0.5,0.8-0.6c0.3-0.1,0.7-0.2,1.2-0.2c0.4,0,0.8,0.1,1.1,0.2s0.6,0.3,0.8,0.6s0.4,0.5,0.5,0.9
				S186.7,115.5,186.7,116z M185.7,116c0-0.3,0-0.6-0.1-0.8c-0.1-0.3-0.1-0.5-0.3-0.7c-0.1-0.2-0.3-0.3-0.5-0.5s-0.5-0.2-0.8-0.2
				c-0.3,0-0.5,0.1-0.7,0.2c-0.2,0.1-0.4,0.2-0.5,0.4c-0.1,0.2-0.2,0.4-0.3,0.7c-0.1,0.3-0.1,0.5-0.1,0.8c0,0.3,0,0.6,0.1,0.8
				c0.1,0.3,0.1,0.5,0.3,0.7c0.1,0.2,0.3,0.3,0.5,0.5s0.5,0.2,0.8,0.2c0.3,0,0.5-0.1,0.7-0.2s0.4-0.2,0.5-0.4s0.2-0.4,0.3-0.7
				S185.7,116.3,185.7,116z"/>
			<path id="XMLID_963_" class="st3" d="M197,118.7C197,118.7,197,118.7,197,118.7c0,0.1-0.1,0.1-0.1,0.1s-0.1,0-0.1,0
				c-0.1,0-0.1,0-0.2,0c-0.1,0-0.2,0-0.2,0c-0.1,0-0.1,0-0.1,0s-0.1,0-0.1-0.1c0,0,0,0,0-0.1v-3.2c0-0.2,0-0.4-0.1-0.6
				c0-0.2-0.1-0.3-0.2-0.5c-0.1-0.1-0.2-0.2-0.3-0.3c-0.1-0.1-0.3-0.1-0.5-0.1c-0.2,0-0.4,0.1-0.7,0.3c-0.2,0.2-0.5,0.4-0.7,0.8v3.7
				c0,0,0,0.1,0,0.1c0,0,0,0-0.1,0.1s-0.1,0-0.1,0c-0.1,0-0.1,0-0.2,0c-0.1,0-0.2,0-0.2,0c-0.1,0-0.1,0-0.2,0c0,0-0.1,0-0.1-0.1
				c0,0,0,0,0-0.1v-3.2c0-0.2,0-0.4-0.1-0.6c0-0.2-0.1-0.3-0.2-0.5c-0.1-0.1-0.2-0.2-0.3-0.3c-0.1-0.1-0.3-0.1-0.5-0.1
				c-0.2,0-0.4,0.1-0.7,0.3c-0.2,0.2-0.5,0.4-0.7,0.8v3.7c0,0,0,0.1,0,0.1c0,0,0,0-0.1,0.1c0,0-0.1,0-0.1,0c-0.1,0-0.1,0-0.2,0
				c-0.1,0-0.2,0-0.2,0c-0.1,0-0.1,0-0.1,0c0,0-0.1,0-0.1-0.1c0,0,0,0,0-0.1v-5.3c0,0,0-0.1,0-0.1s0,0,0.1-0.1c0,0,0.1,0,0.1,0
				c0.1,0,0.1,0,0.2,0c0.1,0,0.2,0,0.2,0c0.1,0,0.1,0,0.1,0c0,0,0.1,0,0.1,0.1s0,0,0,0.1v0.7c0.3-0.3,0.6-0.6,0.9-0.7
				c0.3-0.2,0.6-0.2,0.9-0.2c0.2,0,0.4,0,0.6,0.1c0.2,0.1,0.3,0.1,0.5,0.2s0.2,0.2,0.3,0.3s0.2,0.3,0.2,0.4c0.2-0.2,0.3-0.4,0.5-0.5
				c0.2-0.1,0.3-0.2,0.5-0.3c0.1-0.1,0.3-0.1,0.4-0.2c0.1,0,0.3-0.1,0.4-0.1c0.3,0,0.6,0.1,0.9,0.2s0.4,0.3,0.6,0.5
				c0.1,0.2,0.2,0.4,0.3,0.7c0.1,0.3,0.1,0.6,0.1,0.9V118.7z"/>
			<path id="XMLID_960_" class="st3" d="M208.3,116c0,0.4-0.1,0.8-0.2,1.2s-0.3,0.7-0.5,0.9c-0.2,0.3-0.5,0.5-0.8,0.6
				s-0.7,0.2-1.2,0.2c-0.4,0-0.8-0.1-1.1-0.2s-0.6-0.3-0.8-0.6c-0.2-0.2-0.4-0.5-0.5-0.9s-0.2-0.8-0.2-1.2c0-0.4,0.1-0.8,0.2-1.2
				s0.3-0.7,0.5-0.9s0.5-0.5,0.8-0.6c0.3-0.1,0.7-0.2,1.2-0.2c0.4,0,0.8,0.1,1.1,0.2s0.6,0.3,0.8,0.6s0.4,0.5,0.5,0.9
				S208.3,115.5,208.3,116z M207.3,116c0-0.3,0-0.6-0.1-0.8c-0.1-0.3-0.1-0.5-0.3-0.7c-0.1-0.2-0.3-0.3-0.5-0.5s-0.5-0.2-0.8-0.2
				c-0.3,0-0.5,0.1-0.7,0.2c-0.2,0.1-0.4,0.2-0.5,0.4c-0.1,0.2-0.2,0.4-0.3,0.7c-0.1,0.3-0.1,0.5-0.1,0.8c0,0.3,0,0.6,0.1,0.8
				c0.1,0.3,0.1,0.5,0.3,0.7c0.1,0.2,0.3,0.3,0.5,0.5s0.5,0.2,0.8,0.2c0.3,0,0.5-0.1,0.7-0.2s0.4-0.2,0.5-0.4s0.2-0.4,0.3-0.7
				S207.3,116.3,207.3,116z"/>
			<path id="XMLID_958_" class="st3" d="M213.6,111.2c0,0.1,0,0.1,0,0.2c0,0,0,0.1,0,0.1c0,0,0,0,0,0.1s0,0-0.1,0c0,0-0.1,0-0.1,0
				c0,0-0.1,0-0.1-0.1c-0.1,0-0.1,0-0.2-0.1c-0.1,0-0.2,0-0.3,0c-0.1,0-0.3,0-0.4,0.1c-0.1,0-0.2,0.1-0.2,0.2
				c-0.1,0.1-0.1,0.2-0.1,0.4c0,0.2,0,0.4,0,0.6v0.6h1.2c0,0,0.1,0,0.1,0s0,0,0.1,0.1c0,0,0,0.1,0,0.1c0,0.1,0,0.1,0,0.2
				c0,0.1,0,0.2-0.1,0.3c0,0.1-0.1,0.1-0.1,0.1H212v4.6c0,0,0,0.1,0,0.1c0,0,0,0-0.1,0.1c0,0-0.1,0-0.2,0c-0.1,0-0.1,0-0.2,0
				s-0.2,0-0.2,0c-0.1,0-0.1,0-0.1,0c0,0-0.1,0-0.1-0.1c0,0,0,0,0-0.1V114h-0.7c-0.1,0-0.1,0-0.1-0.1c0-0.1,0-0.2,0-0.3
				c0-0.1,0-0.1,0-0.2c0-0.1,0-0.1,0-0.1c0,0,0-0.1,0.1-0.1s0.1,0,0.1,0h0.7v-0.5c0-0.4,0-0.7,0.1-1c0.1-0.3,0.2-0.5,0.3-0.7
				c0.1-0.2,0.3-0.3,0.5-0.4s0.5-0.1,0.8-0.1c0.1,0,0.3,0,0.4,0s0.2,0.1,0.3,0.1c0.1,0,0.1,0.1,0.1,0.1c0,0,0,0.1,0.1,0.1
				c0,0,0,0.1,0,0.1C213.6,111.1,213.6,111.1,213.6,111.2z"/>
			<path id="XMLID_956_" class="st3" d="M221.8,118.3c0,0.1,0,0.2,0,0.3c0,0.1,0,0.1-0.1,0.1c0,0-0.1,0.1-0.1,0.1
				c-0.1,0-0.1,0-0.2,0.1c-0.1,0-0.2,0-0.3,0c-0.1,0-0.2,0-0.3,0c-0.3,0-0.5,0-0.7-0.1c-0.2-0.1-0.4-0.2-0.5-0.3s-0.2-0.3-0.3-0.6
				c-0.1-0.2-0.1-0.5-0.1-0.8V114h-0.7c-0.1,0-0.1,0-0.1-0.1c0-0.1-0.1-0.2-0.1-0.3c0-0.1,0-0.1,0-0.2c0-0.1,0-0.1,0-0.1
				c0,0,0-0.1,0.1-0.1c0,0,0.1,0,0.1,0h0.7V112c0,0,0-0.1,0-0.1s0,0,0.1-0.1c0,0,0.1,0,0.1,0c0.1,0,0.1,0,0.2,0c0.1,0,0.2,0,0.2,0
				c0.1,0,0.1,0,0.1,0c0,0,0.1,0,0.1,0.1s0,0,0,0.1v1.3h1.4c0,0,0.1,0,0.1,0c0,0,0,0,0.1,0.1c0,0,0,0.1,0,0.1c0,0.1,0,0.1,0,0.2
				c0,0.1,0,0.2-0.1,0.3c0,0.1-0.1,0.1-0.1,0.1h-1.4v3c0,0.4,0.1,0.6,0.2,0.8c0.1,0.2,0.3,0.3,0.6,0.3c0.1,0,0.2,0,0.2,0
				c0.1,0,0.1,0,0.2-0.1c0.1,0,0.1,0,0.1-0.1c0,0,0.1,0,0.1,0c0,0,0,0,0.1,0c0,0,0,0,0,0.1s0,0.1,0,0.1
				C221.8,118.2,221.8,118.2,221.8,118.3z"/>
			<path id="XMLID_954_" class="st3" d="M228.6,118.7C228.6,118.7,228.6,118.7,228.6,118.7c0,0.1-0.1,0.1-0.1,0.1c0,0-0.1,0-0.1,0
				s-0.1,0-0.2,0c-0.1,0-0.2,0-0.2,0c-0.1,0-0.1,0-0.1,0c0,0-0.1,0-0.1-0.1c0,0,0,0,0-0.1v-3.1c0-0.3,0-0.5-0.1-0.7
				c0-0.2-0.1-0.3-0.2-0.5c-0.1-0.1-0.2-0.2-0.4-0.3c-0.1-0.1-0.3-0.1-0.5-0.1c-0.2,0-0.5,0.1-0.7,0.3c-0.2,0.2-0.5,0.4-0.8,0.8v3.7
				c0,0,0,0.1,0,0.1c0,0,0,0-0.1,0.1c0,0-0.1,0-0.1,0c-0.1,0-0.1,0-0.2,0c-0.1,0-0.2,0-0.2,0c-0.1,0-0.1,0-0.1,0c0,0-0.1,0-0.1-0.1
				c0,0,0,0,0-0.1v-7.9c0,0,0-0.1,0-0.1s0,0,0.1-0.1c0,0,0.1,0,0.1,0c0.1,0,0.1,0,0.2,0c0.1,0,0.2,0,0.2,0c0.1,0,0.1,0,0.1,0
				c0,0,0.1,0,0.1,0.1s0,0.1,0,0.1v3.2c0.3-0.3,0.6-0.5,0.8-0.7c0.3-0.1,0.6-0.2,0.9-0.2c0.4,0,0.6,0.1,0.9,0.2
				c0.2,0.1,0.4,0.3,0.6,0.5c0.1,0.2,0.3,0.4,0.3,0.7c0.1,0.3,0.1,0.6,0.1,1V118.7z"/>
			<path id="XMLID_951_" class="st3" d="M235.9,115.8c0,0.2,0,0.3-0.1,0.3c-0.1,0.1-0.2,0.1-0.3,0.1H232c0,0.3,0,0.6,0.1,0.8
				s0.2,0.4,0.3,0.6c0.1,0.2,0.3,0.3,0.5,0.4c0.2,0.1,0.5,0.1,0.8,0.1c0.3,0,0.5,0,0.7-0.1c0.2,0,0.4-0.1,0.5-0.1
				c0.1-0.1,0.3-0.1,0.4-0.1c0.1,0,0.2-0.1,0.2-0.1c0,0,0.1,0,0.1,0c0,0,0,0,0.1,0.1c0,0,0,0.1,0,0.1c0,0,0,0.1,0,0.2
				c0,0.1,0,0.1,0,0.1c0,0,0,0.1,0,0.1s0,0.1,0,0.1c0,0,0,0-0.1,0.1s-0.1,0.1-0.2,0.1c-0.1,0-0.2,0.1-0.4,0.1
				c-0.2,0-0.4,0.1-0.6,0.1c-0.2,0-0.5,0.1-0.7,0.1c-0.4,0-0.8-0.1-1.1-0.2c-0.3-0.1-0.6-0.3-0.8-0.5s-0.4-0.5-0.5-0.9
				s-0.2-0.8-0.2-1.3c0-0.5,0.1-0.9,0.2-1.2c0.1-0.4,0.3-0.7,0.5-0.9c0.2-0.3,0.5-0.4,0.8-0.6c0.3-0.1,0.7-0.2,1.1-0.2
				c0.4,0,0.8,0.1,1.1,0.2c0.3,0.1,0.5,0.3,0.7,0.5c0.2,0.2,0.3,0.5,0.4,0.8c0.1,0.3,0.1,0.6,0.1,1V115.8z M234.9,115.5
				c0-0.5-0.1-0.9-0.3-1.2c-0.2-0.3-0.6-0.4-1.1-0.4c-0.2,0-0.5,0-0.6,0.1c-0.2,0.1-0.3,0.2-0.5,0.4c-0.1,0.1-0.2,0.3-0.3,0.5
				c-0.1,0.2-0.1,0.4-0.1,0.6H234.9z"/>
			<path id="XMLID_948_" class="st3" d="M246.8,113.4c0,0.4-0.1,0.7-0.2,1c-0.1,0.3-0.3,0.6-0.5,0.8s-0.5,0.4-0.9,0.5
				s-0.7,0.2-1.2,0.2h-0.9v2.7c0,0,0,0.1,0,0.1c0,0,0,0-0.1,0.1c0,0-0.1,0-0.2,0c-0.1,0-0.1,0-0.2,0s-0.2,0-0.2,0s-0.1,0-0.2,0
				c0,0-0.1,0-0.1-0.1c0,0,0-0.1,0-0.1v-7c0-0.2,0-0.3,0.1-0.3s0.2-0.1,0.3-0.1h1.6c0.2,0,0.3,0,0.5,0c0.2,0,0.3,0,0.5,0.1
				c0.2,0,0.4,0.1,0.6,0.3c0.2,0.1,0.4,0.3,0.5,0.5c0.1,0.2,0.3,0.4,0.3,0.6S246.8,113.2,246.8,113.4z M245.7,113.5
				c0-0.3-0.1-0.6-0.2-0.8c-0.1-0.2-0.3-0.4-0.4-0.5c-0.2-0.1-0.3-0.2-0.5-0.2c-0.2,0-0.4,0-0.5,0h-0.9v3.1h0.9c0.3,0,0.6,0,0.8-0.1
				s0.4-0.2,0.5-0.3c0.1-0.1,0.2-0.3,0.3-0.5C245.7,114,245.7,113.8,245.7,113.5z"/>
			<path id="XMLID_946_" class="st3" d="M251.7,118.8l-0.7,1.9c0,0.1-0.1,0.1-0.2,0.1s-0.2,0.1-0.4,0.1c-0.1,0-0.2,0-0.2,0
				c-0.1,0-0.1,0-0.1,0c0,0-0.1-0.1-0.1-0.1s0-0.1,0-0.1l0.7-1.8c0,0-0.1,0-0.1-0.1c0,0-0.1-0.1-0.1-0.1l-1.9-5.1c0-0.1,0-0.1,0-0.2
				s0-0.1,0-0.1s0.1,0,0.2-0.1c0.1,0,0.2,0,0.3,0s0.2,0,0.3,0c0.1,0,0.1,0,0.2,0c0,0,0.1,0,0.1,0.1c0,0,0,0.1,0.1,0.1l1.5,4.2h0
				l1.5-4.3c0-0.1,0.1-0.1,0.1-0.1c0,0,0.1,0,0.2,0c0.1,0,0.2,0,0.3,0c0.1,0,0.2,0,0.3,0c0.1,0,0.1,0,0.2,0.1s0,0.1,0,0.1
				s0,0.1,0,0.2L251.7,118.8z"/>
			<path id="XMLID_944_" class="st3" d="M258.8,113.7c0,0.1,0,0.2,0,0.2c0,0.1,0,0.1,0,0.1s0,0.1,0,0.1s0,0-0.1,0s-0.1,0-0.1,0
				c0,0-0.1,0-0.2-0.1c-0.1,0-0.1,0-0.2,0c-0.1,0-0.1,0-0.2,0c-0.1,0-0.2,0-0.3,0.1s-0.2,0.1-0.3,0.2s-0.2,0.2-0.3,0.4
				s-0.2,0.3-0.4,0.5v3.5c0,0,0,0.1,0,0.1c0,0,0,0-0.1,0.1c0,0-0.1,0-0.1,0c-0.1,0-0.1,0-0.2,0c-0.1,0-0.2,0-0.2,0
				c-0.1,0-0.1,0-0.1,0c0,0-0.1,0-0.1-0.1c0,0,0,0,0-0.1v-5.3c0,0,0-0.1,0-0.1s0,0,0.1-0.1c0,0,0.1,0,0.1,0c0.1,0,0.1,0,0.2,0
				c0.1,0,0.2,0,0.2,0c0.1,0,0.1,0,0.1,0c0,0,0.1,0,0.1,0.1s0,0,0,0.1v0.8c0.1-0.2,0.3-0.4,0.4-0.5s0.2-0.2,0.4-0.3
				c0.1-0.1,0.2-0.1,0.3-0.2s0.2,0,0.3,0c0.1,0,0.1,0,0.2,0c0.1,0,0.1,0,0.2,0c0.1,0,0.1,0,0.2,0.1c0.1,0,0.1,0,0.1,0.1s0,0,0,0.1
				c0,0,0,0,0,0.1s0,0.1,0,0.1C258.8,113.6,258.8,113.6,258.8,113.7z"/>
			<path id="XMLID_941_" class="st3" d="M264.6,118.7c0,0,0,0.1,0,0.1c0,0-0.1,0-0.1,0.1c-0.1,0-0.1,0-0.2,0c-0.1,0-0.2,0-0.2,0
				c-0.1,0-0.1,0-0.1-0.1c0,0,0-0.1,0-0.1v-0.5c-0.2,0.2-0.5,0.4-0.8,0.6c-0.3,0.1-0.6,0.2-0.9,0.2c-0.3,0-0.5,0-0.8-0.1
				s-0.4-0.2-0.6-0.3c-0.2-0.1-0.3-0.3-0.4-0.5s-0.1-0.4-0.1-0.7c0-0.3,0.1-0.6,0.2-0.8s0.3-0.4,0.5-0.5c0.2-0.1,0.5-0.3,0.8-0.3
				s0.7-0.1,1.1-0.1h0.7v-0.4c0-0.2,0-0.4-0.1-0.5c0-0.2-0.1-0.3-0.2-0.4c-0.1-0.1-0.2-0.2-0.4-0.2c-0.2-0.1-0.3-0.1-0.6-0.1
				c-0.2,0-0.5,0-0.6,0.1c-0.2,0.1-0.4,0.1-0.5,0.2c-0.1,0.1-0.3,0.1-0.4,0.2c-0.1,0.1-0.2,0.1-0.2,0.1c0,0-0.1,0-0.1,0s0,0-0.1-0.1
				c0,0,0-0.1,0-0.1c0,0,0-0.1,0-0.2c0-0.1,0-0.2,0-0.2s0-0.1,0.1-0.2c0.1-0.1,0.1-0.1,0.3-0.2c0.1-0.1,0.3-0.1,0.4-0.2
				c0.2-0.1,0.4-0.1,0.6-0.1c0.2,0,0.4-0.1,0.6-0.1c0.4,0,0.7,0,1,0.1c0.3,0.1,0.5,0.2,0.6,0.4c0.2,0.2,0.3,0.4,0.4,0.6
				c0.1,0.2,0.1,0.5,0.1,0.9V118.7z M263.6,116.3h-0.8c-0.3,0-0.5,0-0.7,0.1c-0.2,0-0.4,0.1-0.5,0.2c-0.1,0.1-0.2,0.2-0.3,0.3
				s-0.1,0.3-0.1,0.4c0,0.3,0.1,0.5,0.3,0.7c0.2,0.2,0.4,0.2,0.7,0.2c0.3,0,0.5-0.1,0.7-0.2s0.4-0.3,0.7-0.6V116.3z"/>
			<path id="XMLID_939_" class="st3" d="M275.2,118.7C275.2,118.7,275.2,118.7,275.2,118.7c0,0.1-0.1,0.1-0.1,0.1s-0.1,0-0.1,0
				c-0.1,0-0.1,0-0.2,0c-0.1,0-0.2,0-0.2,0c-0.1,0-0.1,0-0.1,0s-0.1,0-0.1-0.1c0,0,0,0,0-0.1v-3.2c0-0.2,0-0.4-0.1-0.6
				c0-0.2-0.1-0.3-0.2-0.5c-0.1-0.1-0.2-0.2-0.3-0.3c-0.1-0.1-0.3-0.1-0.5-0.1c-0.2,0-0.4,0.1-0.7,0.3c-0.2,0.2-0.5,0.4-0.7,0.8v3.7
				c0,0,0,0.1,0,0.1c0,0,0,0-0.1,0.1s-0.1,0-0.1,0c-0.1,0-0.1,0-0.2,0c-0.1,0-0.2,0-0.2,0c-0.1,0-0.1,0-0.2,0c0,0-0.1,0-0.1-0.1
				c0,0,0,0,0-0.1v-3.2c0-0.2,0-0.4-0.1-0.6c0-0.2-0.1-0.3-0.2-0.5c-0.1-0.1-0.2-0.2-0.3-0.3c-0.1-0.1-0.3-0.1-0.5-0.1
				c-0.2,0-0.4,0.1-0.7,0.3c-0.2,0.2-0.5,0.4-0.7,0.8v3.7c0,0,0,0.1,0,0.1c0,0,0,0-0.1,0.1c0,0-0.1,0-0.1,0c-0.1,0-0.1,0-0.2,0
				c-0.1,0-0.2,0-0.2,0c-0.1,0-0.1,0-0.1,0c0,0-0.1,0-0.1-0.1c0,0,0,0,0-0.1v-5.3c0,0,0-0.1,0-0.1s0,0,0.1-0.1c0,0,0.1,0,0.1,0
				c0.1,0,0.1,0,0.2,0c0.1,0,0.2,0,0.2,0c0.1,0,0.1,0,0.1,0c0,0,0.1,0,0.1,0.1s0,0,0,0.1v0.7c0.3-0.3,0.6-0.6,0.9-0.7
				c0.3-0.2,0.6-0.2,0.9-0.2c0.2,0,0.4,0,0.6,0.1c0.2,0.1,0.3,0.1,0.5,0.2s0.2,0.2,0.3,0.3s0.2,0.3,0.2,0.4c0.2-0.2,0.3-0.4,0.5-0.5
				c0.2-0.1,0.3-0.2,0.5-0.3c0.1-0.1,0.3-0.1,0.4-0.2c0.1,0,0.3-0.1,0.4-0.1c0.3,0,0.6,0.1,0.9,0.2s0.4,0.3,0.6,0.5
				c0.1,0.2,0.2,0.4,0.3,0.7c0.1,0.3,0.1,0.6,0.1,0.9V118.7z"/>
			<path id="XMLID_936_" class="st3" d="M279,111.6c0,0.2,0,0.4-0.1,0.5c-0.1,0.1-0.2,0.1-0.5,0.1c-0.2,0-0.4,0-0.5-0.1
				c-0.1-0.1-0.1-0.2-0.1-0.5c0-0.2,0-0.4,0.1-0.5c0.1-0.1,0.2-0.1,0.5-0.1c0.2,0,0.4,0,0.5,0.1C279,111.2,279,111.4,279,111.6z
				 M278.9,118.7C278.9,118.7,278.9,118.7,278.9,118.7c0,0.1-0.1,0.1-0.1,0.1c0,0-0.1,0-0.1,0c-0.1,0-0.1,0-0.2,0
				c-0.1,0-0.2,0-0.2,0c-0.1,0-0.1,0-0.1,0c0,0-0.1,0-0.1-0.1c0,0,0,0,0-0.1v-5.3c0,0,0-0.1,0-0.1s0,0,0.1-0.1c0,0,0.1,0,0.1,0
				c0.1,0,0.1,0,0.2,0c0.1,0,0.2,0,0.2,0c0.1,0,0.1,0,0.1,0c0,0,0.1,0,0.1,0.1s0,0,0,0.1V118.7z"/>
			<path id="XMLID_933_" class="st3" d="M286.2,118.7C286.2,118.7,286.2,118.7,286.2,118.7c0,0.1-0.1,0.1-0.1,0.1s-0.1,0-0.1,0
				s-0.1,0-0.2,0c-0.1,0-0.2,0-0.2,0c-0.1,0-0.1,0-0.1,0c0,0-0.1,0-0.1-0.1c0,0,0-0.1,0-0.1V118c-0.3,0.3-0.6,0.5-0.9,0.7
				c-0.3,0.2-0.6,0.3-1,0.3c-0.4,0-0.7-0.1-1-0.2c-0.3-0.2-0.5-0.4-0.7-0.6c-0.2-0.3-0.3-0.6-0.4-0.9s-0.1-0.7-0.1-1.1
				c0-0.5,0-0.9,0.1-1.2s0.2-0.7,0.4-0.9c0.2-0.3,0.4-0.5,0.7-0.6c0.3-0.1,0.6-0.2,1-0.2c0.3,0,0.6,0.1,0.9,0.2
				c0.3,0.1,0.5,0.3,0.8,0.6v-3.1c0,0,0-0.1,0-0.1c0,0,0,0,0.1-0.1c0,0,0.1,0,0.2,0c0.1,0,0.1,0,0.2,0c0.1,0,0.2,0,0.2,0
				c0.1,0,0.1,0,0.1,0s0.1,0,0.1,0.1c0,0,0,0.1,0,0.1V118.7z M285.2,115c-0.3-0.3-0.5-0.6-0.8-0.7c-0.2-0.2-0.5-0.3-0.8-0.3
				c-0.2,0-0.5,0.1-0.6,0.2c-0.2,0.1-0.3,0.3-0.4,0.5c-0.1,0.2-0.2,0.4-0.2,0.7c0,0.2-0.1,0.5-0.1,0.7c0,0.3,0,0.5,0.1,0.8
				c0,0.3,0.1,0.5,0.2,0.7c0.1,0.2,0.2,0.4,0.4,0.5c0.2,0.1,0.4,0.2,0.6,0.2c0.1,0,0.3,0,0.4-0.1c0.1,0,0.2-0.1,0.4-0.2
				s0.3-0.2,0.4-0.3c0.1-0.1,0.3-0.3,0.4-0.5V115z"/>
		</g>
	</g>
</g>
</svg>
